<svg version="1.2" xmlns="http://www.w3.org/2000/svg" viewBox="0 0 678 440" width="678" height="440">
	<title>section-2-svg</title>
	<defs>
		<clipPath clipPathUnits="userSpaceOnUse" id="cp1">
			<path d="m0 0h678v440h-678z"/>
		</clipPath>
		<clipPath clipPathUnits="userSpaceOnUse" id="cp2">
			<path d="m379 320c-7.74 0-14-6.26-14-14 0-7.74 6.26-14 14-14 7.74 0 14 6.26 14 14 0 7.74-6.26 14-14 14z"/>
		</clipPath>
		<clipPath clipPathUnits="userSpaceOnUse" id="cp3">
			<path d="m343 320c-7.74 0-14-6.26-14-14 0-7.74 6.26-14 14-14 7.74 0 14 6.26 14 14 0 7.74-6.26 14-14 14z"/>
		</clipPath>
		<clipPath clipPathUnits="userSpaceOnUse" id="cp4">
			<path d="m343 232c-7.74 0-14-6.26-14-14 0-7.74 6.26-14 14-14 7.74 0 14 6.26 14 14 0 7.74-6.26 14-14 14z"/>
		</clipPath>
		<clipPath clipPathUnits="userSpaceOnUse" id="cp5">
			<path d="m342 160c-7.74 0-14-6.26-14-14 0-7.74 6.26-14 14-14 7.74 0 14 6.26 14 14 0 7.74-6.26 14-14 14z"/>
		</clipPath>
		<clipPath clipPathUnits="userSpaceOnUse" id="cp6">
			<path d="m343 196c-7.74 0-14-6.26-14-14 0-7.74 6.26-14 14-14 7.74 0 14 6.26 14 14 0 7.74-6.26 14-14 14z"/>
		</clipPath>
	</defs>
	<style>
		.s0 { fill: #292841 } 
		.s1 { fill: #cfdeff } 
		.s2 { fill: #ff82a6 } 
		.s3 { fill: #ffb869 } 
		.s4 { fill: #f7e5bc } 
		.s5 { fill: #ffffff } 
		.s6 { fill: #b9bbbe } 
		.s7 { fill: #dcddde } 
		.s8 { fill: #628bf7 } 
		.s9 { fill: none;stroke: #29c566;stroke-width: 2 } 
		.s10 { fill: none;stroke: #000000 } 
		.s11 { fill: #1c1b29 } 
		.s12 { fill: #43b581 } 
		.s13 { fill: #6adbc6 } 
		.s14 { fill: #6b392b } 
		.s15 { fill: #542518 } 
		.s16 { fill: #6e2b17 } 
		.s17 { fill: #783522 } 
		.s18 { fill: #542113 } 
		.s19 { fill: #ad482c } 
		.s20 { fill: #eb9151 } 
		.s21 { fill: #ba4e5d } 
		.s22 { fill: #d65a6b } 
		.s23 { fill: #ad4452 } 
		.s24 { fill: #c45f3d } 
		.s25 { fill: #133dbd } 
		.s26 { fill: #913945 } 
		.s27 { fill: #db7b47 } 
	</style>
	<g id="Clip-Path" clip-path="url(#cp1)">
		<g id="Layer">
			<path id="Layer" class="s0" d="m252 71c0-4.4 3.6-8 8-8h381c4.4 0 8 3.6 8 8v312c0 4.4-3.6 8-8 8h-381c-4.4 0-8-3.6-8-8z"/>
			<g id="Clip-Path" clip-path="url(#cp2)">
				<g id="Layer">
					<path id="Layer" class="s1" d="m379 320c-7.7 0-14-6.3-14-14 0-7.7 6.3-14 14-14 7.7 0 14 6.3 14 14 0 7.7-6.3 14-14 14z"/>
				</g>
			</g>
			<g id="Clip-Path" clip-path="url(#cp3)">
				<g id="Layer">
					<path id="Layer" class="s2" d="m343 320c-7.7 0-14-6.3-14-14 0-7.7 6.3-14 14-14 7.7 0 14 6.3 14 14 0 7.7-6.3 14-14 14z"/>
				</g>
			</g>
			<g id="Clip-Path" clip-path="url(#cp4)">
				<g id="Layer">
					<path id="Layer" class="s3" d="m343 232c-7.7 0-14-6.3-14-14 0-7.7 6.3-14 14-14 7.7 0 14 6.3 14 14 0 7.7-6.3 14-14 14z"/>
				</g>
			</g>
			<g id="Clip-Path" clip-path="url(#cp5)">
				<g id="Layer">
					<path id="Layer" class="s4" d="m342 160c-7.7 0-14-6.3-14-14 0-7.7 6.3-14 14-14 7.7 0 14 6.3 14 14 0 7.7-6.3 14-14 14z"/>
				</g>
			</g>
			<path id="Layer" class="s5" d="m331.8 99.6c-0.9 0-1.6-0.6-1.6-1.5 0-0.9 0.7-1.5 1.6-1.5 0.9 0 1.6 0.6 1.6 1.5 0 0.9-0.7 1.5-1.6 1.5zm-2 16.4c-0.4 0-0.8 0-1-0.1l-0.4-2.1c0.3 0 0.6 0 0.9 0 0.7 0 1.2-0.3 1.2-1.2v-11.2h2.6v11.4c0 2.3-1.3 3.2-3.3 3.2zm8.7-14.6v6.9c0 1 0.4 1.6 1.4 1.6 0.8 0 1.6-0.6 2.4-1.4v-7.1h2.6v10.6h-2.2l-0.3-1.5c-1 1-2.1 1.7-3.5 1.7-2 0-3-1.2-3-3.2v-7.6zm12.7 10.8c-1.6 0-3.2-0.5-4.2-1l0.4-2.2c1.1 0.7 2.5 1.2 3.8 1.2 1.2 0 1.8-0.4 1.8-1.1 0-0.7-0.5-1-2.1-1.5-2.6-0.6-3.7-1.4-3.7-3.3 0-1.8 1.5-3.1 3.9-3.1 1.4 0 2.7 0.2 3.7 0.7l-0.3 2.2c-1.1-0.6-2.3-1-3.4-1-1 0-1.5 0.4-1.5 1 0 0.6 0.4 0.9 2 1.3 2.8 0.7 3.9 1.5 3.9 3.5 0 2.1-1.5 3.3-4.3 3.3zm10.3 0c-2 0-3.4-0.8-3.4-3.2v-5.5h-1.5v-2.1h1.5v-3.4l2.6-0.4v3.8h2.1l0.4 2.1h-2.5v5c0 0.9 0.3 1.4 1.4 1.4q0.4 0 0.8-0.1l0.3 2.2c-0.4 0.1-0.9 0.2-1.7 0.2zm3.1-5.3v-2.5h5.7v2.5zm12.6 5.3c-2.9 0-5-2-5-5.5 0-3.7 2.3-5.5 5.2-5.5 1.3 0 2.4 0.4 3.2 0.9l-0.4 2.3c-0.8-0.6-1.7-1-2.7-1-1.6 0-2.7 1.2-2.7 3.3 0 2.2 1.2 3.2 2.8 3.2 0.9 0 1.8-0.2 2.8-1l0.3 2.3c-1 0.7-2.1 1-3.5 1zm12.1-0.2v-7c0-0.9-0.4-1.5-1.4-1.5-0.8 0-1.7 0.5-2.4 1.3v7.2h-2.7v-15.5l2.7-0.4v6.6c0.9-0.8 2-1.5 3.4-1.5 1.9 0 3 1.2 3 3.1v7.7zm6.7-12.4c-0.8 0-1.6-0.6-1.6-1.5 0-0.9 0.8-1.5 1.6-1.5 0.9 0 1.6 0.6 1.6 1.5 0 0.9-0.7 1.5-1.6 1.5zm-1.3 12.4v-10.6h2.6v10.6zm5.6 0v-15.5l2.6-0.4v15.9zm5.6 0v-15.5l2.6-0.4v15.9zm6.9-12.4c-0.9 0-1.6-0.6-1.6-1.5 0-0.9 0.7-1.5 1.6-1.5 0.8 0 1.5 0.6 1.5 1.5 0 0.9-0.7 1.5-1.5 1.5zm-1.4 12.4v-10.6h2.7v10.6zm11.8 0v-7c0-0.9-0.4-1.5-1.3-1.5-0.8 0-1.7 0.5-2.4 1.3v7.2h-2.7v-10.6h2.3l0.2 1.5c1-1 2.1-1.7 3.5-1.7 2 0 3.1 1.2 3.1 3.1v7.7z"/>
			<path id="Layer" fill-rule="evenodd" class="s6" d="m334.5 261.3c1 0 1.8 0.1 2.4 0.4v-5.2l2.7-0.4v15.9h-2.3l-0.2-1.5c-0.8 0.9-1.8 1.7-3.3 1.7-2.2 0-4-1.6-4-5.2 0-4 2.2-5.7 4.7-5.7zm0 8.6c1 0 1.7-0.6 2.4-1.5v-4.6c-0.6-0.3-1.1-0.4-2-0.4-1.4 0-2.4 1.1-2.4 3.4 0 2.1 0.8 3.1 2 3.1zm14.2 2.1v-7c0-0.9-0.4-1.5-1.4-1.5-0.8 0-1.6 0.5-2.4 1.3v7.2h-2.7v-10.6h2.3l0.2 1.5c1-1 2.1-1.7 3.6-1.7 2 0 3 1.2 3 3.1v7.7zm9.4-10.7c1 0 1.8 0.1 2.5 0.4v-5.2l2.6-0.4v15.9h-2.3l-0.2-1.5c-0.7 0.9-1.8 1.7-3.2 1.7-2.3 0-4-1.6-4-5.2 0-4 2.1-5.7 4.6-5.7zm0.1 8.6c0.9 0 1.7-0.6 2.4-1.5v-4.6c-0.7-0.3-1.2-0.4-2.1-0.4-1.4 0-2.4 1.1-2.4 3.4 0 2.1 0.9 3.1 2.1 3.1zm7.4-3v-2.5h5.7v2.5zm14.5 5.1v-7c0-0.9-0.4-1.5-1.3-1.5-0.9 0-1.7 0.5-2.5 1.3v7.2h-2.6v-10.6h2.2l0.3 1.5c1-1 2.1-1.7 3.5-1.7 2 0 3.1 1.2 3.1 3.1v7.7zm6.7-12.4c-0.9 0-1.6-0.6-1.6-1.5 0-0.9 0.7-1.5 1.6-1.5 0.9 0 1.6 0.6 1.6 1.5 0 0.9-0.7 1.5-1.6 1.5zm-1.3 12.4v-10.6h2.6v10.6zm9.4 4c-2.9 0-5.1-0.9-5.1-2.6 0-1 0.7-1.8 2-2.5q-0.6-0.5-0.6-1.2 0-0.9 1.3-1.7c-1.2-0.6-2-1.7-2-3.1 0-2.3 1.9-3.7 4.3-3.7 1.2 0 2.2 0.3 3 0.9l2.6-0.9 0.4 2.1-2 0.2c0.2 0.4 0.3 0.9 0.3 1.4 0 2.2-1.9 3.6-4.2 3.6q-0.5 0-0.9-0.1c-0.3 0.2-0.4 0.4-0.4 0.6 0 0.4 0.3 0.4 1.9 0.7l1.4 0.1c2.2 0.3 3.6 1 3.6 2.6 0 2.3-2.6 3.6-5.6 3.6zm-0.1-13.2c-1.1 0-1.8 0.9-1.8 2.1 0 1.1 0.7 2 1.8 2 1.2 0 1.9-0.9 1.9-2.1 0-1.1-0.8-2-1.9-2zm3.2 10.2c0-0.6-0.5-0.9-1.8-1.1l-1.4-0.2c-0.7-0.1-1.1-0.1-1.6-0.2-0.8 0.5-1.1 1-1.1 1.6 0 0.8 0.9 1.3 2.9 1.3 1.9 0 3-0.6 3-1.4zm10.8-1v-7c0-0.9-0.4-1.5-1.4-1.5-0.8 0-1.7 0.5-2.4 1.3v7.2h-2.7v-15.5l2.7-0.4v6.6c0.9-0.8 2-1.5 3.4-1.5 1.9 0 3 1.2 3 3.1v7.7zm9.3 0.2c-2.1 0-3.5-0.8-3.5-3.2v-5.5h-1.5v-2.1h1.5v-3.4l2.6-0.4v3.8h2.2l0.3 2.1h-2.5v5c0 0.9 0.4 1.4 1.4 1.4q0.5 0 0.9-0.1l0.3 2.2c-0.4 0.1-0.9 0.2-1.7 0.2z"/>
			<path id="Layer" fill-rule="evenodd" class="s6" d="m333.9 356.2c-1.5 0-3.1-0.5-4.1-1l0.3-2.2c1.2 0.7 2.6 1.2 3.9 1.2 1.2 0 1.8-0.4 1.8-1.1 0-0.7-0.5-1-2.2-1.5-2.6-0.6-3.6-1.4-3.6-3.3 0-1.8 1.4-3.1 3.9-3.1 1.4 0 2.6 0.2 3.7 0.7l-0.3 2.2c-1.1-0.6-2.4-1-3.4-1-1 0-1.5 0.4-1.5 1 0 0.6 0.4 0.9 2 1.3 2.7 0.7 3.8 1.5 3.8 3.5 0 2.1-1.5 3.3-4.3 3.3zm10.4 0c-2.1 0-3.5-0.8-3.5-3.2v-5.5h-1.5v-2.1h1.5v-3.4l2.6-0.4v3.8h2.2l0.3 2.1h-2.5v5c0 0.9 0.4 1.4 1.4 1.4q0.5 0 0.9-0.1l0.3 2.2c-0.4 0.1-0.9 0.2-1.7 0.2zm6.3-10.8v6.9c0 1 0.4 1.6 1.3 1.6 0.8 0 1.7-0.6 2.4-1.4v-7.1h2.7v10.6h-2.3l-0.2-1.5c-1 1-2.1 1.7-3.5 1.7-2.1 0-3.1-1.2-3.1-3.2v-7.6zm13.2-0.1c1.1 0 1.9 0.1 2.5 0.4v-5.2l2.6-0.4v15.9h-2.2l-0.2-1.5c-0.8 0.9-1.8 1.7-3.3 1.7-2.2 0-4-1.6-4-5.2 0-4 2.2-5.7 4.6-5.7zm0.1 8.6c1 0 1.7-0.6 2.4-1.5v-4.6c-0.7-0.3-1.2-0.4-2.1-0.4-1.3 0-2.3 1.1-2.3 3.4 0 2.1 0.8 3.1 2 3.1zm7.8 6l-0.4-2.2q0.5 0.1 1.2 0.1c0.9 0 1.6-0.4 1.9-1.5l0.1-0.3-3.8-10.4 2.7-0.4 2.4 7.7 2.4-7.5h2.7l-4.1 11.3c-0.9 2.5-2.1 3.3-4 3.3-0.6 0-0.9 0-1.1-0.1zm10.3-9v-2.5h5.7v2.5zm10.7-1v6.1h-2.6v-10.6h2.2l0.4 2.1c0.7-1.2 1.7-2.3 3.4-2.3l0.4 2.6c-1.7 0.1-3 1-3.8 2.1zm9.6 6.3c-2.9 0-5-2-5-5.5 0-3.5 2.1-5.5 5-5.5 2.9 0 5 2 5 5.5 0 3.4-2.1 5.5-5 5.5zm0-8.9c-1.6 0-2.4 1.4-2.4 3.4 0 1.9 0.9 3.4 2.4 3.4 1.6 0 2.5-1.4 2.5-3.4 0-2-0.9-3.4-2.5-3.4zm11.6 8.9c-2.9 0-5-2-5-5.5 0-3.5 2.1-5.5 5-5.5 2.9 0 5 2 5 5.5 0 3.4-2.1 5.5-5 5.5zm0-8.9c-1.6 0-2.4 1.4-2.4 3.4 0 1.9 0.9 3.4 2.4 3.4 1.6 0 2.5-1.4 2.5-3.4 0-2-0.9-3.4-2.5-3.4zm19.8 8.7v-7c0-0.9-0.3-1.5-1.3-1.5-0.8 0-1.6 0.5-2.4 1.3v7.2h-2.6v-7c0-0.9-0.4-1.5-1.3-1.5-0.8 0-1.6 0.5-2.4 1.3v7.2h-2.6v-10.6h2.2l0.3 1.5c1-1 2-1.7 3.5-1.7 1.5 0 2.3 0.6 2.7 1.7 0.9-1 2.1-1.7 3.5-1.7 2 0 3 1.2 3 3.1v7.7z"/>
			<path id="Layer" fill-rule="evenodd" class="s6" d="m306 95v20c0 0.5-0.3 1-0.8 1.2-0.4 0.2-1 0-1.3-0.3l-5.4-5.9h-3.7c-0.7 0-1.3-0.6-1.3-1.2v-7.5c0-0.7 0.6-1.3 1.3-1.3h3.7l5.4-5.9c0.3-0.3 0.9-0.4 1.3-0.3 0.5 0.2 0.8 0.7 0.8 1.2zm11.3 10c-0.1 4.8-4 8.8-8.8 8.8v-2.5c3.4 0 6.3-2.9 6.3-6.3 0-3.4-2.9-6.2-6.3-6.2v-2.5c4.8 0 8.8 3.9 8.8 8.7zm-8.8-3.7c2.1 0 3.8 1.6 3.8 3.7 0 2.1-1.7 3.8-3.8 3.8v-2.5c0.7 0 1.3-0.6 1.3-1.3-0.1-0.7-0.6-1.2-1.3-1.2z"/>
			<path id="Layer" fill-rule="evenodd" class="s6" d="m306 255v20c0 0.5-0.3 1-0.8 1.2-0.4 0.2-1 0-1.3-0.3l-5.4-5.9h-3.7c-0.7 0-1.3-0.6-1.3-1.2v-7.5c0-0.7 0.6-1.3 1.3-1.3h3.7l5.4-5.9c0.3-0.3 0.9-0.4 1.3-0.3 0.5 0.2 0.8 0.7 0.8 1.2zm11.3 10c-0.1 4.8-4 8.8-8.8 8.8v-2.5c3.4 0 6.3-2.9 6.3-6.3 0-3.4-2.9-6.2-6.3-6.2v-2.5c4.8 0 8.8 3.9 8.8 8.7zm-8.8-3.7c2.1 0 3.8 1.6 3.8 3.7 0 2.1-1.7 3.8-3.8 3.8v-2.5c0.7 0 1.3-0.6 1.3-1.3-0.1-0.7-0.6-1.2-1.3-1.2z"/>
			<path id="Layer" fill-rule="evenodd" class="s6" d="m306 339v20c0 0.5-0.3 1-0.8 1.2-0.4 0.2-1 0-1.3-0.3l-5.4-5.9h-3.7c-0.7 0-1.3-0.6-1.3-1.2v-7.5c0-0.7 0.6-1.3 1.3-1.3h3.7l5.4-5.9c0.3-0.3 0.9-0.4 1.3-0.3 0.5 0.2 0.8 0.7 0.8 1.2zm11.3 10c-0.1 4.8-4 8.8-8.8 8.8v-2.5c3.4 0 6.3-2.9 6.3-6.3 0-3.4-2.9-6.2-6.3-6.2v-2.5c4.8 0 8.8 3.9 8.8 8.7zm-8.8-3.7c2.1 0 3.8 1.6 3.8 3.7 0 2.1-1.7 3.8-3.8 3.8v-2.5c0.7 0 1.3-0.6 1.3-1.3-0.1-0.7-0.6-1.2-1.3-1.2z"/>
			<path id="Layer" fill-rule="evenodd" class="s7" d="m366.2 141h3.2c2.5 0 4 1.1 4 3.4 0 2.3-1.6 3.5-4.2 3.5h-0.9v4.1h-2.1zm3.1 1.7h-1v3.6h0.9c1.4 0 2.2-0.6 2.2-1.9 0-1.1-0.8-1.7-2.1-1.7zm8.5 9.5c-2.1 0-3.7-1.2-3.7-4 0-2.5 1.5-4 3.5-4 2.3 0 3.3 1.7 3.3 3.9 0 0.1 0 0.3 0 0.5h-4.9c0 1.5 0.9 2.1 2 2.1 1 0 1.9-0.4 2.7-0.9l0.2 1.5c-0.8 0.5-1.8 0.9-3.1 0.9zm-1.8-4.8h3.1c-0.2-1.2-0.6-1.9-1.6-1.9-0.7 0-1.4 0.6-1.5 1.9zm10.2 4.7c-0.7 0-1.3-0.1-1.8-0.3v2.9l-1.9 0.3v-10.7h1.6l0.2 1.1c0.5-0.7 1.3-1.2 2.4-1.2 1.6 0 2.9 1.2 2.9 3.8 0 2.8-1.6 4.1-3.4 4.1zm0-6.3c-0.7 0-1.3 0.5-1.8 1.1v3.3c0.5 0.3 0.8 0.4 1.5 0.4 1 0 1.7-0.8 1.7-2.5 0-1.5-0.6-2.3-1.4-2.3zm8.7 6.3c-0.8 0-1.4-0.1-1.8-0.3v2.9l-2 0.3v-10.7h1.7l0.2 1.1c0.5-0.7 1.3-1.2 2.3-1.2 1.6 0 2.9 1.2 2.9 3.8 0 2.8-1.6 4.1-3.3 4.1zm-0.1-6.3c-0.7 0-1.2 0.5-1.7 1.1v3.3c0.4 0.3 0.8 0.4 1.5 0.4 0.9 0 1.7-0.8 1.7-2.5 0-1.5-0.6-2.3-1.5-2.3zm8.4 6.4c-2.2 0-3.8-1.2-3.8-4 0-2.5 1.5-4 3.5-4 2.3 0 3.4 1.7 3.4 3.9 0 0.1 0 0.3 0 0.5h-5c0.1 1.5 0.9 2.1 2.1 2.1 1 0 1.8-0.4 2.6-0.9l0.3 1.5c-0.9 0.5-1.9 0.9-3.1 0.9zm-1.9-4.8h3.1c-0.1-1.2-0.6-1.9-1.5-1.9-0.8 0-1.4 0.6-1.6 1.9z"/>
			<path id="Layer" class="s6" d="m585.1 147.1l-1.2 1.2c-0.6-1-0.9-2.1-0.9-3.3h1.7q0 1.1 0.4 2.1z"/>
			<path id="Layer" class="s6" d="m587 145v-6c0-1.7 1.3-3 3-3 1.7 0 3 1.3 3 3v0.2l-6 6q0-0.1 0-0.1 0-0.1 0-0.1z"/>
			<path id="Layer" class="s6" d="m590 150.1c2.8 0 5.3-2.1 5.3-5.1h1.7c0 3.4-2.7 6.2-6 6.7v4.3h-2v-4.3q-0.4 0-0.7-0.1l0.7-0.7 0.7-0.8q0.2 0 0.3 0z"/>
			<path id="Layer" class="s6" d="m593 144.3l-3.6 3.6-1.7 1.7-1.2 1.2-4.2 4.2-1.3-1.3 16.7-16.7 1.3 1.3z"/>
			<path id="Layer" class="s6" d="m585.1 219.1l-1.2 1.2c-0.6-1-0.9-2.1-0.9-3.3h1.7q0 1.1 0.4 2.1z"/>
			<path id="Layer" class="s6" d="m587 217v-6c0-1.7 1.3-3 3-3 1.7 0 3 1.3 3 3v0.2l-6 6q0-0.1 0-0.1 0-0.1 0-0.1z"/>
			<path id="Layer" class="s6" d="m590 222.1c2.8 0 5.3-2.1 5.3-5.1h1.7c0 3.4-2.7 6.2-6 6.7v4.3h-2v-4.3q-0.4 0-0.7-0.1l0.7-0.7 0.7-0.8q0.2 0 0.3 0z"/>
			<path id="Layer" class="s6" d="m593 216.3l-3.6 3.6-1.7 1.7-1.2 1.2-4.2 4.2-1.3-1.3 16.7-16.7 1.3 1.3z"/>
			<path id="Layer" fill-rule="evenodd" class="s7" d="m371.2 224.2c-3.5 0-5.5-2.3-5.5-5.7 0-3.4 2.1-5.7 5.4-5.7 1.4 0 2.5 0.3 3.4 0.8l-0.3 2c-0.8-0.6-1.8-1-3.1-1-2.1 0-3.2 1.5-3.2 3.9 0 2.3 1.1 3.9 3.3 3.9 0.8 0 1.4-0.1 1.9-0.4v-2.5h-2.2l-0.3-1.7h4.4v5.3c-1 0.7-2.4 1.1-3.8 1.1zm7.7-4.6v4.4h-1.9v-7.7h1.6l0.3 1.5c0.5-0.9 1.3-1.6 2.5-1.7l0.3 1.9c-1.2 0.1-2.2 0.7-2.8 1.6zm8.2 4.4l-0.2-1c-0.6 0.6-1.4 1.2-2.5 1.2-1.4 0-2.2-0.8-2.2-2.2 0-1.9 1.5-2.7 4.6-3v-0.2c0-0.8-0.5-1.2-1.3-1.2-0.9 0-1.7 0.3-2.6 0.7l-0.2-1.6c0.9-0.3 1.8-0.6 3.1-0.6 2 0 2.9 0.7 2.9 2.6v5.3zm-0.2-3.9c-2.3 0.3-2.8 1-2.8 1.7 0 0.6 0.4 0.9 1 0.9 0.6 0 1.2-0.3 1.8-0.8zm6.7 6.7c-2.1 0-3.7-0.6-3.7-1.9 0-0.7 0.5-1.3 1.4-1.8q-0.4-0.4-0.4-0.8 0-0.7 1-1.3c-0.9-0.4-1.5-1.2-1.5-2.2 0-1.7 1.4-2.8 3.1-2.8q1.4 0.1 2.2 0.8l1.9-0.7 0.2 1.5-1.4 0.1q0.3 0.5 0.2 1c0 1.7-1.4 2.7-3 2.7q-0.4 0-0.7-0.1c-0.2 0.2-0.3 0.3-0.3 0.5 0 0.2 0.3 0.3 1.5 0.4l0.9 0.1c1.6 0.3 2.6 0.8 2.6 1.9 0 1.7-1.8 2.6-4 2.6zm-0.1-9.5c-0.8 0-1.3 0.6-1.3 1.5 0 0.8 0.5 1.4 1.3 1.4 0.9 0 1.4-0.6 1.4-1.5 0-0.8-0.6-1.4-1.4-1.4zm2.3 7.4c0-0.5-0.3-0.7-1.2-0.8l-1.1-0.2c-0.5 0-0.8-0.1-1.1-0.2-0.6 0.4-0.9 0.8-0.9 1.2 0 0.6 0.7 1 2.2 1 1.4 0 2.1-0.5 2.1-1zm6.1 2.1c-2.1 0-3.7-0.6-3.7-1.9 0-0.7 0.5-1.3 1.4-1.8q-0.4-0.4-0.4-0.8 0-0.7 1-1.3c-1-0.4-1.5-1.2-1.5-2.2 0-1.7 1.4-2.8 3.1-2.8q1.4 0.1 2.2 0.8l1.9-0.7 0.2 1.5-1.4 0.1q0.2 0.5 0.2 1c0 1.7-1.4 2.7-3 2.7q-0.4 0-0.7-0.1c-0.2 0.2-0.3 0.3-0.3 0.5 0 0.2 0.3 0.3 1.5 0.4l0.9 0.1c1.6 0.3 2.6 0.8 2.6 1.9 0 1.7-1.8 2.6-4 2.6zm-0.1-9.5c-0.8 0-1.3 0.6-1.3 1.5 0 0.8 0.5 1.4 1.3 1.4 0.9 0 1.4-0.6 1.4-1.5 0-0.8-0.6-1.4-1.4-1.4zm2.3 7.4c0-0.5-0.3-0.7-1.3-0.8l-1-0.2c-0.5 0-0.8-0.1-1.1-0.2-0.6 0.4-0.9 0.8-0.9 1.2 0 0.6 0.7 1 2.2 1 1.4 0 2.1-0.5 2.1-1zm3.3-0.8v-11.2l1.9-0.3v11.5zm7.3 0.2c-2.1 0-3.8-1.2-3.8-4 0-2.5 1.5-4.1 3.6-4.1 2.3 0 3.3 1.8 3.3 4 0 0.1 0 0.3 0 0.4h-5c0.1 1.5 0.9 2.2 2.1 2.2 1 0 1.8-0.4 2.7-1l0.2 1.5c-0.8 0.6-1.8 1-3.1 1zm-1.8-4.9h3c-0.1-1.2-0.6-1.8-1.5-1.8-0.8 0-1.4 0.6-1.5 1.8z"/>
			<path id="Layer" fill-rule="evenodd" class="s7" d="m366.2 188v-11h2.1v9.1h3.7l0.3 1.9zm10.4 0.2c-2.1 0-3.6-1.5-3.6-4.1 0-2.5 1.5-4 3.6-4 2.1 0 3.7 1.5 3.7 4 0 2.5-1.6 4.1-3.7 4.1zm0-6.5c-1.1 0-1.8 1-1.8 2.4 0 1.5 0.7 2.5 1.8 2.5 1.2 0 1.8-1 1.8-2.5 0-1.4-0.7-2.4-1.8-2.4zm8.5 6.4c-2.2 0-3.7-1.4-3.7-3.9 0-2.7 1.7-4.1 3.8-4.1 1 0 1.8 0.3 2.4 0.7l-0.3 1.7c-0.6-0.5-1.2-0.7-2-0.7-1.1 0-1.9 0.8-1.9 2.3 0 1.6 0.8 2.4 2 2.4 0.6 0 1.3-0.2 2-0.7l0.2 1.6c-0.7 0.5-1.5 0.7-2.5 0.7zm6-3.9v3.8h-1.9v-11.2l1.9-0.4v7.1l2.5-3.2h2.2l-2.9 3.5 3.1 4-2.1 0.3zm9.2 4c-2.2 0-3.8-1.2-3.8-4 0-2.5 1.5-4 3.5-4 2.3 0 3.4 1.7 3.4 3.9 0 0.2 0 0.4 0 0.5h-5c0.1 1.5 0.9 2.1 2.1 2.1 1 0 1.8-0.3 2.6-0.9l0.3 1.5c-0.9 0.5-1.9 0.9-3.1 0.9zm-1.9-4.8h3.1c-0.1-1.2-0.6-1.9-1.5-1.9-0.8 0-1.4 0.6-1.6 1.9z"/>
			<g id="Clip-Path" clip-path="url(#cp6)">
				<g id="Layer">
					<path id="Layer" class="s8" d="m343 196c-7.7 0-14-6.3-14-14 0-7.7 6.3-14 14-14 7.7 0 14 6.3 14 14 0 7.7-6.3 14-14 14z"/>
				</g>
			</g>
			<path id="Layer" class="s9" d="m343 195c-7.2 0-13-5.8-13-13 0-7.2 5.8-13 13-13 7.2 0 13 5.8 13 13 0 7.2-5.8 13-13 13z"/>
			<path id="Layer" class="s10" d="m343 193.5c-6.4 0-11.5-5.1-11.5-11.5 0-6.4 5.1-11.5 11.5-11.5 6.4 0 11.5 5.1 11.5 11.5 0 6.4-5.1 11.5-11.5 11.5z"/>
			<path id="Layer" class="s11" d="m154 40c0-4.4 3.6-8 8-8h197c4.4 0 8 3.6 8 8v32c0 4.4-3.6 8-8 8h-197c-4.4 0-8-3.6-8-8z"/>
			<path id="Layer" class="s12" d="m172.4 63v2.8c0 0.8-0.5 1.4-1.1 1.4h-3.4c-0.6 0-1.1-0.6-1.1-1.4v-2.8c0-0.8 0.5-1.4 1.1-1.4h3.4c0.6 0 1.1 0.6 1.1 1.4z"/>
			<path id="Layer" class="s12" d="m180.8 65.9c0 0.7-0.5 1.3-1.1 1.3h-3.4c-0.6 0-1.1-0.6-1.1-1.3v-11.4c0-0.7 0.5-1.3 1.1-1.3h3.4c0.6 0 1.1 0.6 1.1 1.3z"/>
			<path id="Layer" class="s12" d="m189.2 66c0 0.6-0.5 1.2-1.1 1.2h-3.4c-0.6 0-1.1-0.6-1.1-1.2v-20c0-0.6 0.5-1.2 1.1-1.2h3.4c0.6 0 1.1 0.6 1.1 1.2z"/>
			<path id="Layer" fill-rule="evenodd" class="s12" d="m209 64.1h-3l-5.5-14.9 3-0.5 4.1 11.6 4-11.5h3zm10.4 0.2c-2.9 0-5-2.1-5-5.6 0-3.4 2.1-5.5 5-5.5 2.9 0 5 2.1 5 5.5 0 3.5-2.1 5.6-5 5.6zm0-9c-1.6 0-2.4 1.5-2.4 3.4 0 2 0.8 3.4 2.4 3.4 1.6 0 2.4-1.4 2.4-3.4 0-1.9-0.8-3.4-2.4-3.4zm8.6-3.7c-0.9 0-1.6-0.6-1.6-1.5 0-0.9 0.7-1.5 1.6-1.5 0.9 0 1.6 0.6 1.6 1.5 0 0.9-0.7 1.5-1.6 1.5zm-1.3 12.4v-10.6h2.6v10.6zm9.9 0.2c-2.9 0-5-1.9-5-5.4 0-3.7 2.3-5.6 5.2-5.6 1.4 0 2.5 0.4 3.2 0.9l-0.3 2.4c-0.9-0.7-1.7-1-2.8-1-1.6 0-2.7 1.1-2.7 3.2 0 2.2 1.3 3.3 2.8 3.3 0.9 0 1.8-0.3 2.8-1l0.3 2.2c-1 0.7-2.1 1-3.5 1zm10.1 0.1c-3 0-5.2-1.7-5.2-5.6 0-3.4 2.1-5.5 4.9-5.5 3.1 0 4.6 2.4 4.6 5.4 0 0.2 0 0.5 0 0.6h-6.9c0.1 2.1 1.3 3 2.9 3 1.4 0 2.5-0.5 3.6-1.3l0.4 2.1c-1.2 0.7-2.6 1.3-4.3 1.3zm-2.5-6.7h4.2c-0.2-1.7-0.8-2.6-2.1-2.6-1.1 0-1.9 0.9-2.1 2.6zm20.5 6.7c-4.4 0-7.2-3.1-7.2-7.8 0-4.7 2.8-7.9 7.2-7.9 1.8 0 3.1 0.4 4.2 1.1l-0.4 2.7c-1-0.7-2.2-1.3-3.6-1.3-2.8 0-4.4 2.1-4.4 5.3 0 3.3 1.7 5.4 4.4 5.4 1.4 0 2.7-0.6 3.8-1.4l0.4 2.6c-1.1 0.8-2.7 1.3-4.4 1.3zm10.9 0c-2.9 0-5-2.1-5-5.6 0-3.4 2.2-5.5 5-5.5 2.9 0 5.1 2.1 5.1 5.5 0 3.5-2.2 5.6-5.1 5.6zm0-9c-1.5 0-2.4 1.5-2.4 3.4 0 2 0.9 3.4 2.4 3.4 1.6 0 2.5-1.4 2.5-3.4 0-1.9-0.9-3.4-2.5-3.4zm13.6 8.7v-6.9c0-0.9-0.4-1.6-1.3-1.6-0.9 0-1.7 0.5-2.5 1.4v7.1h-2.6v-10.6h2.2l0.3 1.5c1-0.9 2.1-1.7 3.5-1.7 2 0 3.1 1.2 3.1 3.2v7.6zm11.7 0v-6.9c0-0.9-0.4-1.6-1.4-1.6-0.8 0-1.6 0.5-2.4 1.4v7.1h-2.7v-10.6h2.3l0.2 1.5c1-0.9 2.1-1.7 3.6-1.7 2 0 3 1.2 3 3.2v7.6zm9.9 0.3c-2.9 0-5.2-1.7-5.2-5.6 0-3.4 2.1-5.5 4.9-5.5 3.2 0 4.6 2.4 4.6 5.4 0 0.2 0 0.5 0 0.6h-6.8c0.1 2.1 1.2 3 2.8 3 1.4 0 2.5-0.5 3.7-1.3l0.3 2.1c-1.2 0.7-2.5 1.3-4.3 1.3zm-2.5-6.7h4.2c-0.1-1.7-0.8-2.6-2.1-2.6-1 0-1.9 0.9-2.1 2.6zm13.4 6.6c-2.9 0-5-1.9-5-5.4 0-3.7 2.3-5.6 5.2-5.6 1.4 0 2.5 0.4 3.2 0.9l-0.3 2.4c-0.9-0.7-1.7-1-2.8-1-1.6 0-2.7 1.1-2.7 3.2 0 2.2 1.3 3.3 2.8 3.3 0.9 0 1.8-0.3 2.8-1l0.3 2.2c-1 0.7-2.1 1-3.5 1zm9.7 0c-2.1 0-3.5-0.8-3.5-3.2v-5.4h-1.5v-2.2h1.5v-3.4l2.6-0.4v3.8h2.2l0.3 2.2h-2.5v5c0 0.8 0.4 1.3 1.4 1.3q0.5 0 0.8-0.1l0.4 2.2c-0.4 0.1-0.9 0.2-1.7 0.2zm8.2 0.1c-3 0-5.2-1.7-5.2-5.6 0-3.4 2.1-5.5 4.9-5.5 3.1 0 4.6 2.4 4.6 5.4 0 0.2 0 0.5 0 0.6h-6.9c0.1 2.1 1.3 3 2.9 3 1.4 0 2.5-0.5 3.6-1.3l0.4 2.1c-1.2 0.7-2.6 1.3-4.3 1.3zm-2.5-6.7h4.2c-0.2-1.7-0.8-2.6-2.1-2.6-1.1 0-1.9 0.9-2.1 2.6zm13-4.3c1 0 1.8 0.2 2.5 0.4v-5.1l2.6-0.5v15.9h-2.2l-0.3-1.4c-0.7 0.9-1.7 1.7-3.2 1.7-2.2 0-4-1.7-4-5.3 0-3.9 2.2-5.7 4.6-5.7zm0.1 8.6c0.9 0 1.7-0.6 2.4-1.5v-4.5c-0.7-0.3-1.2-0.5-2.1-0.5-1.4 0-2.4 1.1-2.4 3.5 0 2 0.9 3 2.1 3z"/>
			<path id="Layer" class="s13" d="m476 37.8l-1.8 4.1c0 0.1-0.1 0.1-0.1 0l-1.9-4.1-4.1-1.8c-0.1 0-0.1-0.2 0-0.2l4.1-1.8 1.9-4h0.1l1.8 4h0.1l4.1 1.8c0.1 0 0.1 0.2 0 0.2l-4.1 1.8z"/>
			<path id="Layer" class="s14" d="m296.4 425.5h-36.5v-6.1h36.5z"/>
			<path id="Layer" class="s14" d="m337.9 425.5h-36.5v-6.1h36.5z"/>
			<path id="Layer" class="s14" d="m294 371.1l7 69.3h-8.9l-7.1-69.3z"/>
			<path id="Layer" class="s15" d="m336.6 371.1l6.9 69.3h-8.8l-7.2-69.3z"/>
			<path id="Layer" class="s15" d="m311.4 371.1l-7.1 69.3h-8.9l7.1-69.3z"/>
			<path id="Layer" class="s15" d="m268.9 371.1l-7.1 69.3h-8.9l7-69.3z"/>
			<path id="Layer" class="s16" d="m341.2 370.9c0 2.3-1.8 4.1-4.1 4.1h-82.7c-2.3 0-4.1-1.8-4.1-4.1 0-2.2 1.8-4.1 4.1-4.1h82.7c2.3 0 4.1 1.9 4.1 4.1z"/>
			<path id="Layer" class="s17" d="m235.7 440.4h-14.9v-93h14.9z"/>
			<path id="Layer" class="s15" d="m141.8 363.2l7 77.2h-8.8l-7.2-77.2z"/>
			<path id="Layer" class="s15" d="m86.8 360.4l-7.1 80h-8.9l7-80z"/>
			<path id="Layer" class="s16" d="m77.8 366.7l-12.6-61q0-0.2 0-0.5 0.1-0.3 0.3-0.6 0.1-0.2 0.4-0.3 0.3-0.2 0.6-0.1h6.2q0.5 0 0.8 0.3 0.4 0.3 0.4 0.7l12.9 61.5z"/>
			<path id="Layer copy" class="s16" d="m119.8 366.7l-12.6-61q0-0.2 0-0.5 0.1-0.3 0.3-0.6 0.1-0.2 0.4-0.3 0.3-0.2 0.6-0.1h6.2q0.5 0 0.8 0.3 0.4 0.3 0.4 0.7l12.9 61.5z"/>
			<path id="Layer" class="s16" d="m109.6 316.2h-38.2v-6.8h38.2z"/>
			<path id="Layer" class="s16" d="m76 360.4h58.9v7h-58.9q-0.7 0-1.4-0.3-0.6-0.2-1.1-0.7-0.5-0.5-0.8-1.1-0.3-0.7-0.3-1.4c0-0.9 0.4-1.8 1.1-2.5 0.6-0.6 1.5-1 2.5-1z"/>
			<path id="Layer" class="s18" d="m95.2 360.4h48.8q0.7 0 1.3 0.3 0.7 0.3 1.2 0.7 0.4 0.5 0.7 1.2 0.2 0.6 0.2 1.3 0 0.7-0.2 1.4-0.3 0.6-0.7 1.1-0.5 0.5-1.2 0.7-0.6 0.3-1.3 0.3h-48.8z"/>
			<path id="Layer" class="s19" d="m105.2 440.4h-16.2v-93h16.2z"/>
			<path id="Layer" class="s19" d="m272 347.4h16.2v93h-16.2z"/>
			<path id="Layer" class="s20" d="m95.2 440.4h-6.2v-93h6.2z"/>
			<path id="Layer" class="s19" d="m105.2 364.3h-16.2v-16.9h16.2z"/>
			<path id="Layer" class="s21" d="m181 336.6h-20.3v-5.9h20.3z"/>
			<path id="Layer" class="s22" d="m166.4 330.7l-1.6 4.2h-2.6l1.8-4.2z"/>
			<path id="Layer" class="s23" d="m180.9 336.6h-11.7v-5.9h11.7z"/>
			<path id="Layer" class="s20" d="m191.5 440.4h-15.9v-93h15.9z"/>
			<path id="Layer" class="s19" d="m191.5 440.4h-10.5v-93h10.5z"/>
			<path id="Layer" class="s19" d="m191.5 364.3h-15.9v-16.9h15.9z"/>
			<path id="Layer" class="s20" d="m322.5 338.2v11.8c0 0.8-0.6 1.5-1.5 1.5h-263c-0.8 0-1.5-0.7-1.5-1.5v-11.8c0-0.8 0.7-1.5 1.5-1.5h263c0.9 0 1.5 0.7 1.5 1.5z"/>
			<path id="Layer" class="s24" d="m322.5 338.2v11.8c0 0.8-0.6 1.5-1.5 1.5h-135.4c-0.8 0-1.5-0.7-1.5-1.5v-11.8c0-0.8 0.7-1.5 1.5-1.5h135.4c0.9 0 1.5 0.7 1.5 1.5z"/>
			<path id="Layer" class="s13" d="m142.8 239.7h-0.1l-1.7-3.6-3.6-1.6c-0.1 0-0.1-0.1 0-0.1l3.6-1.7 1.7-3.6c0-0.1 0.1-0.1 0.1 0l1.6 3.7 3.6 1.6c0.1 0 0.1 0.1 0 0.1l-3.6 1.6z"/>
			<path id="Layer" class="s25" d="m386.4 413.6h-0.2l-1.5-3.7h-0.1l-3.6-1.5c-0.1-0.1-0.1-0.2 0-0.2l3.6-1.6h0.1l1.5-3.6h0.2l1.6 3.6 3.7 1.6v0.2l-3.7 1.5z"/>
			<path id="Layer" class="s3" d="m27 338.4l-1.6 3.6h-0.1l-1.6-3.6-3.6-1.6c-0.1 0-0.1-0.1 0-0.1l3.6-1.7 1.6-3.6h0.1l1.6 3.6h0.1l3.6 1.7c0.1 0 0.1 0.1 0 0.1l-3.6 1.6z"/>
			<path id="Layer" class="s26" d="m180.9 332.4h-18.6v-0.5h18.6z"/>
			<path id="Layer" class="s26" d="m181 334.1h-20.3v-0.4h20.3z"/>
			<path id="Layer" class="s26" d="m181 336.1h-20.3v-0.5h20.3z"/>
			<path id="Layer" class="s21" d="m257.2 336.7h-21.4v-6.3h21.4z"/>
			<path id="Layer" class="s22" d="m241.8 330.4l-1.6 4.3h-2.9l1.9-4.3z"/>
			<path id="Layer" class="s26" d="m257.2 332.1h-19.7v-0.4h19.7z"/>
			<path id="Layer" class="s26" d="m257.2 334h-21.4v-0.5h21.4z"/>
			<path id="Layer" class="s26" d="m257.2 336.1h-21.4v-0.5h21.4z"/>
			<path id="Layer" class="s27" d="m223.1 336.8h-12.5c-2.5-6.4-2.5-13.5 0-19.8h12.5c2.5 6.4 2.5 13.4 0 19.8z"/>
		</g>
	</g>
</svg>