<svg version="1.2" xmlns="http://www.w3.org/2000/svg" viewBox="0 0 678 440" width="678" height="440">
	<title>section-3-svg</title>
	<defs>
		<clipPath clipPathUnits="userSpaceOnUse" id="cp1">
			<path d="m255 140c-7.74 0-14-6.26-14-14 0-7.74 6.26-14 14-14 7.74 0 14 6.26 14 14 0 7.74-6.26 14-14 14z"/>
		</clipPath>
		<clipPath clipPathUnits="userSpaceOnUse" id="cp2">
			<path d="m255 104c-7.74 0-14-6.26-14-14 0-7.74 6.26-14 14-14 7.74 0 14 6.26 14 14 0 7.74-6.26 14-14 14z"/>
		</clipPath>
		<clipPath clipPathUnits="userSpaceOnUse" id="cp3">
			<path d="m255 267c-7.74 0-14-6.26-14-14 0-7.74 6.26-14 14-14 7.74 0 14 6.26 14 14 0 7.74-6.26 14-14 14z"/>
		</clipPath>
		<clipPath clipPathUnits="userSpaceOnUse" id="cp4">
			<path d="m255 231c-7.74 0-14-6.26-14-14 0-7.74 6.26-14 14-14 7.74 0 14 6.26 14 14 0 7.74-6.26 14-14 14z"/>
		</clipPath>
		<clipPath clipPathUnits="userSpaceOnUse" id="cp5">
			<path d="m506 247c-29.86 0-54-24.14-54-54 0-29.86 24.14-54 54-54 29.86 0 54 24.14 54 54 0 29.86-24.14 54-54 54z"/>
		</clipPath>
		<linearGradient id="g1" x1="200.8" y1="384.6" x2="200.8" y2="417.9" gradientUnits="userSpaceOnUse">
			<stop offset="0" stop-color="#ed9653"/>
			<stop offset="1" stop-color="#f0a85e"/>
		</linearGradient>
		<clipPath clipPathUnits="userSpaceOnUse" id="cp6">
			<path d="m255 360c-7.74 0-14-6.26-14-14 0-7.74 6.26-14 14-14 7.74 0 14 6.26 14 14 0 7.74-6.26 14-14 14z"/>
		</clipPath>
	</defs>
	<style>
		.s0 { fill: #292841 } 
		.s1 { opacity: .1;fill: #807cef } 
		.s2 { fill: #cfdeff } 
		.s3 { fill: #8684bd } 
		.s4 { fill: #628bf7 } 
		.s5 { fill: #dcddde } 
		.s6 { fill: #ff82a6 } 
		.s7 { fill: #ffb869 } 
		.s8 { fill: #ffffff } 
		.s9 { fill: #f7e5bc } 
		.s10 { fill: #bed3ff } 
		.s11 { fill: #ed988d } 
		.s12 { fill: #fdd2f8 } 
		.s13 { fill: #1c1b29 } 
		.s14 { fill: #99aab5 } 
		.s15 { fill: #6adbc6 } 
		.s16 { fill: #b9bbbe } 
		.s17 { opacity: .2;fill: #ed988d } 
		.s18 { opacity: .2;fill: #bed3ff } 
		.s19 { fill: #9f90a8 } 
		.s20 { fill: #433e6b } 
		.s21 { fill: #b4a3be } 
		.s22 { fill: #527ff7 } 
		.s23 { fill: #4c65d4 } 
		.s24 { fill: url(#g1) } 
		.s25 { fill: #fccc7e } 
		.s26 { fill: #ff7abc } 
		.s27 { fill: #1f1e41 } 
		.s28 { fill: #f0ad60 } 
		.s29 { fill: #eea456 } 
		.s30 { fill: #8dadfc } 
		.s31 { fill: #ffadd6 } 
		.s32 { fill: #a63281 } 
		.s33 { fill: #f06a9f } 
		.s34 { fill: #db5191 } 
		.s35 { fill: #d14590 } 
		.s36 { fill: #bf3d8d } 
		.s37 { fill: #ab3582 } 
		.s38 { fill: #e663a0 } 
		.s39 { fill: #cf4e9d } 
	</style>
	<path id="Layer" class="s0" d="m216 26c0-4.4 3.6-8 8-8h254c4.4 0 8 3.6 8 8v353c0 4.4-3.6 8-8 8h-254c-4.4 0-8-3.6-8-8z"/>
	<path id="Layer" class="s1" d="m236 202c0-2.2 1.8-4 4-4h218c2.2 0 4 1.8 4 4v30c0 2.2-1.8 4-4 4h-218c-2.2 0-4-1.8-4-4z"/>
	<g id="Clip-Path" clip-path="url(#cp1)">
		<g id="Layer">
			<path id="Layer" class="s2" d="m255 140c-7.7 0-14-6.3-14-14 0-7.7 6.3-14 14-14 7.7 0 14 6.3 14 14 0 7.7-6.3 14-14 14z"/>
		</g>
	</g>
	<path id="Layer" class="s3" d="m464 52.9h-7.1v7.1h-1.8v-7.1h-7.1v-1.8h7.1v-7.1h1.8v7.1h7.1z"/>
	<g id="Clip-Path" clip-path="url(#cp2)">
		<g id="Layer">
			<path id="Layer" class="s4" d="m255 104c-7.7 0-14-6.3-14-14 0-7.7 6.3-14 14-14 7.7 0 14 6.3 14 14 0 7.7-6.3 14-14 14z"/>
		</g>
	</g>
	<path id="Layer" fill-rule="evenodd" class="s5" d="m278.2 96v-11h2.1v9.1h3.7l0.3 1.9zm10.4 0.2c-2.1 0-3.6-1.5-3.6-4.1 0-2.5 1.5-4 3.6-4 2.1 0 3.7 1.5 3.7 4 0 2.5-1.6 4.1-3.7 4.1zm0-6.5c-1.1 0-1.8 1-1.8 2.4 0 1.5 0.7 2.5 1.8 2.5 1.2 0 1.8-1 1.8-2.5 0-1.4-0.7-2.4-1.8-2.4zm8.5 6.4c-2.2 0-3.7-1.4-3.7-3.9 0-2.7 1.7-4.1 3.8-4.1 1 0 1.8 0.3 2.4 0.7l-0.3 1.7c-0.6-0.5-1.2-0.7-2-0.7-1.1 0-1.9 0.8-1.9 2.3 0 1.6 0.8 2.4 2 2.4 0.6 0 1.3-0.2 2-0.7l0.2 1.6c-0.7 0.5-1.5 0.7-2.5 0.7zm6-3.9v3.8h-1.9v-11.2l1.9-0.4v7.1l2.5-3.2h2.2l-2.9 3.5 3.1 4-2.1 0.3zm9.2 4c-2.2 0-3.8-1.2-3.8-4 0-2.5 1.5-4 3.5-4 2.3 0 3.4 1.7 3.4 3.9 0 0.2 0 0.4 0 0.5h-5c0.1 1.5 0.9 2.1 2.1 2.1 1 0 1.8-0.3 2.6-0.9l0.3 1.5c-0.9 0.5-1.9 0.9-3.1 0.9zm-1.9-4.8h3.1c-0.1-1.2-0.6-1.9-1.5-1.9-0.8 0-1.4 0.6-1.6 1.9z"/>
	<g id="Clip-Path" clip-path="url(#cp3)">
		<g id="Layer">
			<path id="Layer" class="s6" d="m255 267c-7.7 0-14-6.3-14-14 0-7.7 6.3-14 14-14 7.7 0 14 6.3 14 14 0 7.7-6.3 14-14 14z"/>
		</g>
	</g>
	<path id="Layer" fill-rule="evenodd" class="s5" d="m283 259.2c-3.2 0-5.3-2.3-5.3-5.7 0-3.4 2.1-5.7 5.3-5.7 1.3 0 2.2 0.3 3 0.8l-0.3 2c-0.7-0.6-1.5-1-2.6-1-2 0-3.2 1.5-3.2 3.9 0 2.4 1.2 3.9 3.2 3.9 1.1 0 2-0.4 2.8-1l0.3 1.8c-0.8 0.6-2 1-3.2 1zm9.3-0.2l-0.1-1c-0.7 0.6-1.5 1.2-2.6 1.2-1.3 0-2.2-0.8-2.2-2.2 0-1.9 1.5-2.7 4.7-3v-0.2c0-0.8-0.5-1.2-1.4-1.2-0.9 0-1.7 0.3-2.5 0.7l-0.3-1.6c0.9-0.3 1.9-0.6 3.1-0.6 2 0 3 0.7 3 2.6v5.3zm-0.3-3.9c-2.2 0.3-2.7 1-2.7 1.7 0 0.6 0.3 0.9 0.9 0.9 0.7 0 1.3-0.3 1.8-0.8zm7.5 3.9c-0.7 0-1.3-0.1-1.8-0.3v2.9l-1.9 0.3v-10.7h1.7l0.1 1.1c0.6-0.7 1.3-1.3 2.4-1.3 1.6 0 2.9 1.3 2.9 3.8 0 2.9-1.6 4.2-3.4 4.2zm0-6.3c-0.7 0-1.2 0.5-1.8 1.1v3.3c0.5 0.3 0.9 0.4 1.5 0.4 1 0 1.8-0.8 1.8-2.5 0-1.5-0.6-2.3-1.5-2.3z"/>
	<g id="Clip-Path" clip-path="url(#cp4)">
		<g id="Layer">
			<path id="Layer" class="s7" d="m255 231c-7.7 0-14-6.3-14-14 0-7.7 6.3-14 14-14 7.7 0 14 6.3 14 14 0 7.7-6.3 14-14 14z"/>
		</g>
	</g>
	<path id="Layer" fill-rule="evenodd" class="s8" d="m283.2 223.2c-3.5 0-5.5-2.3-5.5-5.7 0-3.4 2.1-5.7 5.4-5.7 1.4 0 2.5 0.3 3.4 0.8l-0.3 2c-0.8-0.6-1.8-1-3.1-1-2.1 0-3.2 1.5-3.2 3.9 0 2.3 1.1 3.9 3.3 3.9 0.8 0 1.4-0.1 1.9-0.4v-2.5h-2.2l-0.3-1.7h4.4v5.3c-1 0.7-2.4 1.1-3.8 1.1zm7.7-4.6v4.4h-1.9v-7.7h1.6l0.3 1.5c0.5-0.9 1.3-1.6 2.5-1.7l0.3 1.9c-1.2 0.1-2.2 0.7-2.8 1.6zm8.2 4.4l-0.2-1c-0.6 0.6-1.4 1.2-2.5 1.2-1.4 0-2.2-0.8-2.2-2.2 0-1.9 1.5-2.7 4.6-3v-0.2c0-0.8-0.5-1.2-1.3-1.2-0.9 0-1.7 0.3-2.6 0.7l-0.2-1.6c0.9-0.3 1.8-0.6 3.1-0.6 2 0 2.9 0.7 2.9 2.6v5.3zm-0.2-3.9c-2.3 0.3-2.8 1-2.8 1.7 0 0.6 0.4 0.9 1 0.9 0.6 0 1.2-0.3 1.8-0.8zm6.7 6.7c-2.1 0-3.7-0.6-3.7-1.9 0-0.7 0.5-1.3 1.4-1.8q-0.4-0.4-0.4-0.8 0-0.7 1-1.3c-0.9-0.4-1.5-1.2-1.5-2.2 0-1.7 1.4-2.8 3.1-2.8q1.4 0.1 2.2 0.8l1.9-0.7 0.2 1.5-1.4 0.1q0.3 0.5 0.2 1c0 1.7-1.4 2.7-3 2.7q-0.4 0-0.7-0.1c-0.2 0.2-0.3 0.3-0.3 0.5 0 0.2 0.3 0.3 1.5 0.4l0.9 0.1c1.6 0.3 2.6 0.8 2.6 1.9 0 1.7-1.8 2.6-4 2.6zm-0.1-9.5c-0.8 0-1.3 0.6-1.3 1.5 0 0.8 0.5 1.4 1.3 1.4 0.9 0 1.4-0.6 1.4-1.5 0-0.8-0.6-1.4-1.4-1.4zm2.3 7.4c0-0.5-0.3-0.7-1.2-0.8l-1.1-0.2c-0.5 0-0.8-0.1-1.1-0.2-0.6 0.4-0.9 0.8-0.9 1.2 0 0.6 0.7 1 2.2 1 1.4 0 2.1-0.5 2.1-1zm6.1 2.1c-2.1 0-3.7-0.6-3.7-1.9 0-0.7 0.5-1.3 1.4-1.8q-0.4-0.4-0.4-0.8 0-0.7 1-1.3c-1-0.4-1.5-1.2-1.5-2.2 0-1.7 1.4-2.8 3.1-2.8q1.4 0.1 2.2 0.8l1.9-0.7 0.2 1.5-1.4 0.1q0.2 0.5 0.2 1c0 1.7-1.4 2.7-3 2.7q-0.4 0-0.7-0.1c-0.2 0.2-0.3 0.3-0.3 0.5 0 0.2 0.3 0.3 1.5 0.4l0.9 0.1c1.6 0.3 2.6 0.8 2.6 1.9 0 1.7-1.8 2.6-4 2.6zm-0.1-9.5c-0.8 0-1.3 0.6-1.3 1.5 0 0.8 0.5 1.4 1.3 1.4 0.9 0 1.4-0.6 1.4-1.5 0-0.8-0.6-1.4-1.4-1.4zm2.3 7.4c0-0.5-0.3-0.7-1.3-0.8l-1-0.2c-0.5 0-0.8-0.1-1.1-0.2-0.6 0.4-0.9 0.8-0.9 1.2 0 0.6 0.7 1 2.2 1 1.4 0 2.1-0.5 2.1-1zm3.3-0.8v-11.2l1.9-0.3v11.5zm7.3 0.2c-2.1 0-3.8-1.2-3.8-4 0-2.5 1.5-4.1 3.6-4.1 2.3 0 3.3 1.8 3.3 4 0 0.1 0 0.3 0 0.4h-5c0.1 1.5 0.9 2.2 2.1 2.2 1 0 1.8-0.4 2.7-1l0.2 1.5c-0.8 0.6-1.8 1-3.1 1zm-1.8-4.9h3c-0.1-1.2-0.6-1.8-1.5-1.8-0.8 0-1.4 0.6-1.5 1.8z"/>
	<path id="Layer" fill-rule="evenodd" class="s5" d="m283.2 350.2c-3.5 0-5.5-2.3-5.5-5.7 0-3.4 2.1-5.7 5.4-5.7 1.4 0 2.5 0.3 3.4 0.8l-0.3 2c-0.8-0.6-1.8-1-3.1-1-2.1 0-3.2 1.5-3.2 3.9 0 2.3 1.1 3.9 3.3 3.9 0.8 0 1.4-0.1 1.9-0.4v-2.5h-2.2l-0.3-1.7h4.4v5.3c-1 0.7-2.4 1.1-3.8 1.1zm7.7-4.6v4.4h-1.9v-7.7h1.6l0.3 1.5c0.5-0.9 1.3-1.6 2.5-1.7l0.3 1.9c-1.2 0.1-2.2 0.7-2.8 1.6zm8.2 4.4l-0.2-1c-0.6 0.6-1.4 1.2-2.5 1.2-1.4 0-2.2-0.8-2.2-2.2 0-1.9 1.5-2.7 4.6-3v-0.2c0-0.8-0.5-1.2-1.3-1.2-0.9 0-1.7 0.3-2.6 0.7l-0.2-1.6c0.9-0.3 1.8-0.6 3.1-0.6 2 0 2.9 0.7 2.9 2.6v5.3zm-0.2-3.9c-2.3 0.3-2.8 1-2.8 1.7 0 0.6 0.4 0.9 1 0.9 0.6 0 1.2-0.3 1.8-0.8zm6.7 6.7c-2.1 0-3.7-0.6-3.7-1.9 0-0.7 0.5-1.3 1.4-1.8q-0.4-0.4-0.4-0.8 0-0.7 1-1.3c-0.9-0.4-1.5-1.2-1.5-2.2 0-1.7 1.4-2.8 3.1-2.8q1.4 0.1 2.2 0.8l1.9-0.7 0.2 1.5-1.4 0.1q0.3 0.5 0.2 1c0 1.7-1.4 2.7-3 2.7q-0.4 0-0.7-0.1c-0.2 0.2-0.3 0.3-0.3 0.5 0 0.2 0.3 0.3 1.5 0.4l0.9 0.1c1.6 0.3 2.6 0.8 2.6 1.9 0 1.7-1.8 2.6-4 2.6zm-0.1-9.5c-0.8 0-1.3 0.6-1.3 1.5 0 0.8 0.5 1.4 1.3 1.4 0.9 0 1.4-0.6 1.4-1.5 0-0.8-0.6-1.4-1.4-1.4zm2.3 7.4c0-0.5-0.3-0.7-1.2-0.8l-1.1-0.2c-0.5 0-0.8-0.1-1.1-0.2-0.6 0.4-0.9 0.8-0.9 1.2 0 0.6 0.7 1 2.2 1 1.4 0 2.1-0.5 2.1-1zm6.1 2.1c-2.1 0-3.7-0.6-3.7-1.9 0-0.7 0.5-1.3 1.4-1.8q-0.4-0.4-0.4-0.8 0-0.7 1-1.3c-1-0.4-1.5-1.2-1.5-2.2 0-1.7 1.4-2.8 3.1-2.8q1.4 0.1 2.2 0.8l1.9-0.7 0.2 1.5-1.4 0.1q0.2 0.5 0.2 1c0 1.7-1.4 2.7-3 2.7q-0.4 0-0.7-0.1c-0.2 0.2-0.3 0.3-0.3 0.5 0 0.2 0.3 0.3 1.5 0.4l0.9 0.1c1.6 0.3 2.6 0.8 2.6 1.9 0 1.7-1.8 2.6-4 2.6zm-0.1-9.5c-0.8 0-1.3 0.6-1.3 1.5 0 0.8 0.5 1.4 1.3 1.4 0.9 0 1.4-0.6 1.4-1.5 0-0.8-0.6-1.4-1.4-1.4zm2.3 7.4c0-0.5-0.3-0.7-1.3-0.8l-1-0.2c-0.5 0-0.8-0.1-1.1-0.2-0.6 0.4-0.9 0.8-0.9 1.2 0 0.6 0.7 1 2.2 1 1.4 0 2.1-0.5 2.1-1zm3.3-0.8v-11.2l1.9-0.3v11.5zm7.3 0.2c-2.1 0-3.8-1.2-3.8-4 0-2.5 1.5-4.1 3.6-4.1 2.3 0 3.3 1.8 3.3 4 0 0.1 0 0.3 0 0.4h-5c0.1 1.5 0.9 2.2 2.1 2.2 1 0 1.8-0.4 2.7-1l0.2 1.5c-0.8 0.6-1.8 1-3.1 1zm-1.8-4.9h3c-0.1-1.2-0.6-1.8-1.5-1.8-0.8 0-1.4 0.6-1.5 1.8z"/>
	<path id="Layer" fill-rule="evenodd" class="s5" d="m278.2 121h3.2c2.5 0 4 1.1 4 3.4 0 2.3-1.6 3.5-4.2 3.5h-0.9v4.1h-2.1zm3.1 1.7h-1v3.6h0.9c1.4 0 2.2-0.6 2.2-1.9 0-1.1-0.8-1.7-2.1-1.7zm10.2 9.3v-5c0-0.7-0.2-1.2-1-1.2-0.5 0-1.2 0.4-1.7 1v5.2h-1.9v-11.2l1.9-0.3v4.8c0.6-0.6 1.4-1.1 2.5-1.1 1.4 0 2.2 0.8 2.2 2.3v5.5zm4.9-9c-0.7 0-1.2-0.4-1.2-1.1 0-0.6 0.5-1.1 1.2-1.1 0.6 0 1.1 0.5 1.1 1.1 0 0.7-0.5 1.1-1.1 1.1zm-1 9v-7.7h1.9v7.7zm7.1 0.1c-1.2 0-2.2-0.2-3.1-0.5v-10.8l1.9-0.3v4.7c0.5-0.5 1.2-1 2.2-1 1.6 0 2.9 1.2 2.9 3.8 0 2.8-1.6 4.1-3.9 4.1zm0.5-6.3c-0.7 0-1.2 0.5-1.7 1.1v3.5c0.4 0.1 0.6 0.2 1.2 0.2 1.2 0 1.9-0.8 1.9-2.5 0-1.5-0.6-2.3-1.4-2.3zm6-2.8c-0.6 0-1.1-0.4-1.1-1.1 0-0.6 0.5-1.1 1.1-1.1 0.6 0 1.1 0.5 1.1 1.1 0 0.7-0.5 1.1-1.1 1.1zm-1 9v-7.7h1.9v7.7z"/>
	<path id="Layer" fill-rule="evenodd" class="s9" d="m248.4 59.2c-4 0-6.5-2.8-6.5-7.1 0-4.3 2.6-7.1 6.6-7.1 1.6 0 2.8 0.3 3.8 1l-0.4 2.5c-0.9-0.7-1.9-1.3-3.3-1.3-2.5 0-4 1.9-4 4.9 0 3 1.6 4.8 4.1 4.8 1.3 0 2.4-0.5 3.5-1.2l0.3 2.4c-1.1 0.7-2.5 1.1-4.1 1.1zm10 0c-2.6 0-4.5-1.9-4.5-5 0-3.2 1.9-5.1 4.5-5.1 2.7 0 4.6 1.9 4.6 5.1 0 3.1-2 5-4.6 5zm0-8.1c-1.4 0-2.2 1.3-2.2 3.1 0 1.7 0.8 3 2.2 3 1.5 0 2.2-1.2 2.2-3 0-1.8-0.8-3.1-2.2-3.1zm12.2 7.9l-0.2-1.3c-0.8 0.9-1.8 1.5-3.3 1.5-1.6 0-2.7-1-2.7-2.7 0-2.3 1.9-3.3 5.8-3.7v-0.3c0-1-0.6-1.4-1.6-1.4-1.2 0-2.2 0.3-3.3 0.7l-0.3-1.9c1.2-0.4 2.3-0.8 3.9-0.8 2.5 0 3.7 1 3.7 3.3v6.6zm-0.3-4.8c-2.8 0.3-3.5 1.1-3.5 2.1 0 0.7 0.5 1.1 1.2 1.1 0.8 0 1.6-0.4 2.3-1.1zm8.8 5c-2.6 0-4.5-1.8-4.5-4.9 0-3.4 2.1-5.1 4.7-5.1 1.2 0 2.2 0.4 2.9 0.8l-0.3 2.2c-0.8-0.6-1.5-0.9-2.5-0.9-1.4 0-2.4 1-2.4 2.9 0 2 1.1 3 2.5 3 0.8 0 1.6-0.3 2.5-0.9l0.3 2c-0.9 0.6-1.9 0.9-3.2 0.9zm11-0.1v-6.4c0-0.8-0.4-1.4-1.2-1.4-0.8 0-1.5 0.5-2.2 1.2v6.6h-2.4v-14.1l2.4-0.4v6c0.8-0.7 1.8-1.4 3-1.4 1.8 0 2.8 1.1 2.8 2.9v7z"/>
	<path id="Layer" fill-rule="evenodd" class="s10" d="m246.2 186.2c-1.7 0-3.1-0.4-4.3-1l0.4-2.4c1.1 0.7 2.6 1.2 4 1.2 1.2 0 2-0.6 2-1.7 0-1-0.5-1.4-2.5-2.3-2.6-1.1-3.7-2-3.7-4.1 0-2.4 1.9-3.9 4.4-3.9 1.6 0 2.7 0.4 3.7 0.9l-0.4 2.4c-1-0.7-2.2-1.1-3.3-1.1-1.3 0-1.9 0.6-1.9 1.5 0 0.9 0.5 1.3 2.4 2.1 2.8 1.1 3.9 2.1 3.9 4.3 0 2.7-2 4.1-4.7 4.1zm10.4 0c-1.9 0-3.2-0.7-3.2-2.9v-5h-1.4v-2h1.4v-3l2.4-0.4v3.4h1.9l0.3 2h-2.2v4.6c0 0.7 0.3 1.2 1.2 1.2q0.4 0 0.8-0.1l0.3 2c-0.4 0.1-0.8 0.2-1.5 0.2zm5.6-9.9v6.4c0 0.8 0.4 1.4 1.3 1.4 0.7 0 1.5-0.5 2.2-1.2v-6.6h2.4v9.7h-2.1l-0.2-1.4c-0.9 0.9-1.9 1.6-3.2 1.6-1.8 0-2.8-1.1-2.8-2.9v-7zm12.1-0.1c0.9 0 1.6 0.2 2.2 0.4v-4.7l2.4-0.3v14.4h-2.1l-0.2-1.3c-0.6 0.8-1.6 1.5-2.9 1.5-2 0-3.7-1.5-3.7-4.8 0-3.6 2-5.2 4.3-5.2zm0 7.9c0.9 0 1.6-0.6 2.2-1.4v-4.1c-0.6-0.3-1.1-0.4-1.9-0.4-1.2 0-2.1 1-2.1 3.1 0 1.9 0.7 2.8 1.8 2.8zm11.3 2.1c-2.7 0-4.8-1.5-4.8-5 0-3.2 1.9-5.1 4.4-5.1 2.9 0 4.2 2.2 4.2 5 0 0.2 0 0.4 0 0.5h-6.2c0.1 1.9 1.1 2.7 2.6 2.7 1.3 0 2.3-0.4 3.3-1.2l0.3 1.9c-1 0.7-2.3 1.2-3.8 1.2zm-2.4-6.1h3.9c-0.2-1.5-0.8-2.3-1.9-2.3-1 0-1.8 0.8-2 2.3zm14 5.9v-6.3c0-0.9-0.3-1.4-1.2-1.4-0.8 0-1.5 0.4-2.2 1.2v6.5h-2.4v-9.7h2l0.2 1.4c0.9-0.9 2-1.6 3.3-1.6 1.8 0 2.7 1.1 2.7 2.9v7zm8.5 0.2c-1.9 0-3.2-0.7-3.2-2.9v-5h-1.3v-2h1.3v-3l2.4-0.4v3.4h2l0.3 2h-2.3v4.6c0 0.7 0.3 1.2 1.3 1.2q0.4 0 0.7-0.1l0.3 2c-0.4 0.1-0.8 0.2-1.5 0.2zm7.8-0.2v-13.8h2.7v11.4h4.6l0.4 2.4zm13.2 0.2c-2.7 0-4.7-1.5-4.7-5 0-3.2 1.9-5.1 4.4-5.1 2.9 0 4.2 2.2 4.2 5 0 0.2 0 0.4 0 0.5h-6.2c0.1 1.9 1.1 2.7 2.6 2.7 1.2 0 2.2-0.4 3.3-1.2l0.3 1.9c-1.1 0.7-2.3 1.2-3.9 1.2zm-2.3-6.1h3.8c-0.1-1.5-0.7-2.3-1.9-2.3-0.9 0-1.7 0.8-1.9 2.3zm13.7 5.9l-0.2-1.3c-0.7 0.9-1.7 1.5-3.2 1.5-1.6 0-2.7-1-2.7-2.7 0-2.3 1.9-3.3 5.8-3.7v-0.3c0-1-0.6-1.4-1.7-1.4-1.1 0-2.1 0.3-3.2 0.7l-0.3-1.9c1.1-0.4 2.3-0.8 3.9-0.8 2.5 0 3.7 1 3.7 3.3v6.6zm-0.3-4.8c-2.8 0.3-3.5 1.1-3.5 2.1 0 0.7 0.5 1.1 1.2 1.1 0.8 0 1.6-0.4 2.3-1.1zm8.5-4.9c0.9 0 1.6 0.2 2.2 0.4v-4.7l2.4-0.4v14.5h-2l-0.2-1.4c-0.7 0.8-1.7 1.6-3 1.6-2 0-3.6-1.5-3.6-4.8 0-3.6 1.9-5.2 4.2-5.2zm0 7.8c0.9 0 1.6-0.5 2.2-1.3v-4.2c-0.6-0.2-1-0.4-1.9-0.4-1.2 0-2.1 1-2.1 3.2 0 1.8 0.8 2.7 1.8 2.7z"/>
	<path id="Layer" fill-rule="evenodd" class="s11" d="m250.5 309.5h-5.2l-1.2 3.5h-2.7l5.2-13.9h2.8l5.1 13.6-2.7 0.4zm-4.5-2.1h3.8l-1.9-5.4zm15.9 5.7v-6.3c0-0.9-0.3-1.4-1.2-1.4-0.7 0-1.5 0.4-2.2 1.2v6.5h-2.4v-9.7h2l0.3 1.4c0.9-0.9 1.9-1.6 3.2-1.6 1.8 0 2.7 1.1 2.7 2.9v7zm6.2-11.3c-0.8 0-1.5-0.5-1.5-1.3 0-0.9 0.7-1.4 1.5-1.4 0.8 0 1.4 0.5 1.4 1.4 0 0.8-0.6 1.3-1.4 1.3zm-1.2 11.3v-9.7h2.4v9.7zm16.3 0v-6.3c0-0.9-0.2-1.4-1.1-1.4-0.8 0-1.5 0.4-2.2 1.2v6.5h-2.4v-6.3c0-0.9-0.3-1.4-1.2-1.4-0.7 0-1.4 0.4-2.1 1.2v6.5h-2.4v-9.7h2l0.2 1.4c1-0.9 1.9-1.6 3.2-1.6 1.4 0 2.1 0.7 2.5 1.6 0.9-0.9 1.9-1.6 3.2-1.6 1.8 0 2.8 1.1 2.8 2.9v7zm10.4 0l-0.2-1.3c-0.8 0.9-1.8 1.5-3.2 1.5-1.7 0-2.8-1-2.8-2.7 0-2.3 1.9-3.3 5.8-3.7v-0.3c0-1-0.6-1.4-1.6-1.4-1.1 0-2.2 0.3-3.2 0.7l-0.3-1.9c1.1-0.4 2.3-0.8 3.8-0.8 2.5 0 3.7 1 3.7 3.3v6.6zm-0.3-4.8c-2.8 0.3-3.4 1.1-3.4 2.1 0 0.7 0.4 1.1 1.1 1.1 0.9 0 1.6-0.4 2.3-1.1zm4.9 4.9v-14.1l2.4-0.4v14.5zm15.4 0.2c-4 0-6.5-2.8-6.5-7.1 0-4.3 2.6-7.2 6.6-7.2 1.6 0 2.8 0.4 3.8 1l-0.4 2.5c-0.9-0.7-2-1.2-3.3-1.2-2.5 0-4 1.9-4 4.9 0 3 1.6 4.8 4 4.8 1.3 0 2.5-0.5 3.5-1.2l0.4 2.3c-1.1 0.7-2.5 1.2-4.1 1.2zm8.5-5.8v5.6h-2.4v-9.7h2.1l0.3 1.9c0.6-1.1 1.6-2 3.1-2.1l0.3 2.4c-1.5 0.1-2.7 0.9-3.4 1.9zm8.7 5.8c-2.6 0-4.5-1.9-4.5-5.1 0-3.1 1.9-5 4.5-5 2.7 0 4.6 1.9 4.6 5 0 3.2-1.9 5.1-4.6 5.1zm0-8.1c-1.4 0-2.2 1.2-2.2 3 0 1.8 0.8 3.1 2.2 3.1 1.5 0 2.3-1.3 2.3-3.1 0-1.7-0.8-3-2.3-3zm9.8 8.1c-1.4 0-2.8-0.5-3.7-1l0.3-2c1 0.7 2.3 1.2 3.5 1.2 1 0 1.6-0.4 1.6-1.1 0-0.6-0.4-0.9-2-1.3-2.3-0.6-3.3-1.3-3.3-3 0-1.7 1.3-2.9 3.6-2.9 1.2 0 2.4 0.3 3.4 0.7l-0.4 2c-0.9-0.6-2.1-0.9-3-0.9-0.9 0-1.4 0.4-1.4 0.9 0 0.5 0.4 0.8 1.8 1.2 2.5 0.6 3.5 1.3 3.5 3.1 0 1.9-1.3 3.1-3.9 3.1zm9 0c-1.4 0-2.8-0.5-3.8-1l0.4-2c1 0.7 2.3 1.2 3.5 1.2 1 0 1.6-0.4 1.6-1.1 0-0.6-0.4-0.9-2-1.3-2.3-0.6-3.3-1.3-3.3-3 0-1.7 1.3-2.9 3.6-2.9 1.2 0 2.4 0.3 3.3 0.7l-0.3 2c-0.9-0.6-2.1-0.9-3-0.9-0.9 0-1.4 0.4-1.4 0.9 0 0.5 0.4 0.8 1.8 1.2 2.5 0.6 3.5 1.3 3.5 3.1 0 1.9-1.4 3.1-3.9 3.1zm7.1-11.5c-0.8 0-1.4-0.6-1.4-1.4 0-0.8 0.6-1.4 1.4-1.4 0.8 0 1.4 0.6 1.4 1.4 0 0.8-0.6 1.4-1.4 1.4zm-1.2 11.3v-9.7h2.4v9.7zm10.8 0v-6.4c0-0.8-0.4-1.4-1.3-1.4-0.7 0-1.5 0.5-2.2 1.2v6.6h-2.4v-9.7h2.1l0.2 1.4c0.9-0.9 1.9-1.6 3.2-1.6 1.8 0 2.8 1.1 2.8 2.9v7zm8.4 3.6c-2.7 0-4.6-0.8-4.6-2.4 0-0.9 0.6-1.6 1.8-2.3q-0.6-0.4-0.6-1 0-0.8 1.2-1.6c-1.1-0.5-1.8-1.5-1.8-2.8 0-2.1 1.7-3.4 3.9-3.4q1.7 0 2.7 0.9l2.4-0.8 0.3 1.9-1.7 0.1c0.1 0.4 0.2 0.8 0.2 1.3 0 2-1.8 3.3-3.8 3.3q-0.5 0-0.8-0.1c-0.3 0.2-0.4 0.4-0.4 0.5 0 0.4 0.3 0.4 1.8 0.7l1.2 0.1c2 0.3 3.2 0.9 3.2 2.4 0 2-2.2 3.2-5 3.2zm-0.1-12c-1 0-1.7 0.9-1.7 1.9 0 1 0.7 1.8 1.7 1.8 1.1 0 1.7-0.8 1.7-1.9 0-1-0.7-1.8-1.7-1.8zm2.9 9.3c0-0.5-0.4-0.8-1.6-1l-1.3-0.2c-0.7-0.1-1-0.1-1.4-0.2-0.7 0.5-1.1 0.9-1.1 1.4 0 0.8 0.9 1.3 2.7 1.3 1.7 0 2.7-0.6 2.7-1.3z"/>
	<path id="Layer" class="s12" d="m534.5 37.4l-6.4-2.8c-0.1 0-0.1-0.2 0-0.2l6.4-2.9h0.1l2.8-6.4c0-0.1 0.2-0.1 0.2 0l2.9 6.4 6.4 2.9c0.1 0 0.1 0.2 0 0.2l-6.4 2.8-2.9 6.4h-0.2l-2.8-6.4z"/>
	<path id="Layer" class="s0" d="m397 129c0-4.4 3.6-8 8-8h200c4.4 0 8 3.6 8 8v281c0 4.4-3.6 8-8 8h-200c-4.4 0-8-3.6-8-8z"/>
	<path id="Layer" class="s13" d="m397 129c0-4.4 3.6-8 8-8h200c4.4 0 8 3.6 8 8v176h-216z"/>
	<path id="Layer" fill-rule="evenodd" class="s14" d="m462.2 277.2c-3.5 0-5.5-2.3-5.5-5.7 0-3.4 2.1-5.7 5.4-5.7 1.4 0 2.5 0.3 3.4 0.8l-0.3 2c-0.8-0.6-1.8-1-3.1-1-2.1 0-3.2 1.5-3.2 3.9 0 2.3 1.1 3.9 3.3 3.9 0.8 0 1.4-0.1 1.9-0.4v-2.5h-2.2l-0.3-1.7h4.4v5.3c-1 0.7-2.4 1.1-3.8 1.1zm7.7-4.6v4.4h-1.9v-7.7h1.6l0.3 1.5c0.5-0.9 1.3-1.6 2.5-1.7l0.3 1.9c-1.2 0.1-2.2 0.7-2.8 1.6zm8.2 4.4l-0.2-1c-0.6 0.6-1.4 1.2-2.5 1.2-1.4 0-2.2-0.8-2.2-2.2 0-1.9 1.5-2.7 4.6-3v-0.2c0-0.8-0.5-1.2-1.3-1.2-0.9 0-1.7 0.3-2.6 0.7l-0.2-1.6c0.9-0.3 1.8-0.6 3.1-0.6 2 0 2.9 0.7 2.9 2.6v5.3zm-0.2-3.9c-2.3 0.3-2.8 1-2.8 1.7 0 0.6 0.4 0.9 1 0.9 0.6 0 1.2-0.3 1.8-0.8zm6.7 6.7c-2.1 0-3.7-0.6-3.7-1.9 0-0.7 0.5-1.3 1.4-1.8q-0.4-0.4-0.4-0.8 0-0.7 1-1.3c-0.9-0.4-1.5-1.2-1.5-2.2 0-1.7 1.4-2.8 3.1-2.8q1.4 0.1 2.2 0.8l1.9-0.7 0.2 1.5-1.4 0.1q0.3 0.5 0.2 1c0 1.7-1.4 2.7-3 2.7q-0.4 0-0.7-0.1c-0.2 0.2-0.3 0.3-0.3 0.5 0 0.2 0.3 0.3 1.5 0.4l0.9 0.1c1.6 0.3 2.6 0.8 2.6 1.9 0 1.7-1.8 2.6-4 2.6zm-0.1-9.5c-0.8 0-1.3 0.6-1.3 1.5 0 0.8 0.5 1.4 1.3 1.4 0.9 0 1.4-0.6 1.4-1.5 0-0.8-0.6-1.4-1.4-1.4zm2.3 7.4c0-0.5-0.3-0.7-1.2-0.8l-1.1-0.2c-0.5 0-0.8-0.1-1.1-0.2-0.6 0.4-0.9 0.8-0.9 1.2 0 0.6 0.7 1 2.2 1 1.4 0 2.1-0.5 2.1-1zm6.1 2.1c-2.1 0-3.7-0.6-3.7-1.9 0-0.7 0.5-1.3 1.4-1.8q-0.4-0.4-0.4-0.8 0-0.7 1-1.3c-1-0.4-1.5-1.2-1.5-2.2 0-1.7 1.4-2.8 3.1-2.8q1.4 0.1 2.2 0.8l1.9-0.7 0.2 1.5-1.4 0.1q0.2 0.5 0.2 1c0 1.7-1.4 2.7-3 2.7q-0.4 0-0.7-0.1c-0.2 0.2-0.3 0.3-0.3 0.5 0 0.2 0.3 0.3 1.5 0.4l0.9 0.1c1.6 0.3 2.6 0.8 2.6 1.9 0 1.7-1.8 2.6-4 2.6zm-0.1-9.5c-0.8 0-1.3 0.6-1.3 1.5 0 0.8 0.5 1.4 1.3 1.4 0.9 0 1.4-0.6 1.4-1.5 0-0.8-0.6-1.4-1.4-1.4zm2.3 7.4c0-0.5-0.3-0.7-1.3-0.8l-1-0.2c-0.5 0-0.8-0.1-1.1-0.2-0.6 0.4-0.9 0.8-0.9 1.2 0 0.6 0.7 1 2.2 1 1.4 0 2.1-0.5 2.1-1zm3.3-0.8v-11.2l1.9-0.3v11.5zm7.3 0.2c-2.1 0-3.8-1.2-3.8-4 0-2.5 1.5-4.1 3.6-4.1 2.3 0 3.3 1.8 3.3 4 0 0.1 0 0.3 0 0.4h-5c0.1 1.5 0.9 2.2 2.1 2.2 1 0 1.8-0.4 2.7-1l0.2 1.5c-0.8 0.6-1.8 1-3.1 1zm-1.8-4.9h3c-0.1-1.2-0.6-1.8-1.5-1.8-0.8 0-1.4 0.6-1.5 1.8zm11.6 2.2h-2.5l-0.4 2.7-1.3-0.3 0.4-2.4h-1.7v-1.6h2l0.4-2.6h-1.8l-0.3-1.6h2.3l0.4-2.5h1.4l-0.4 2.5h2.4l0.4-2.6 1.3 0.3-0.4 2.3h1.7v1.6h-1.9l-0.4 2.6h1.8l0.2 1.6h-2.3l-0.4 2.6h-1.3zm0.2-1.6l0.4-2.6h-2.4l-0.4 2.6zm5 2.6l3.8-4c0.9-0.9 1.3-1.5 1.3-2.3 0-0.9-0.6-1.5-1.7-1.5-1 0-2 0.5-2.9 1.2l-0.3-1.8c0.9-0.6 2-1.1 3.4-1.1 2.2 0 3.5 1.1 3.5 3 0 1.4-0.6 2.4-1.9 3.7l-2.6 2.6h4.5l0.2 1.7h-7.3zm8.6-1.3c0-1.2 0.8-2.2 2.1-2.9-1.1-0.6-1.7-1.4-1.7-2.5 0-1.7 1.6-2.8 3.7-2.8 2.2 0 3.5 1.1 3.5 2.7 0 1.1-0.6 2-1.7 2.6 1.4 0.6 2.1 1.4 2.1 2.8 0 1.7-1.5 3.1-4 3.1-2.6 0-4-1.4-4-3zm4.4-3.6c0.8-0.4 1.4-1 1.4-1.8 0-0.8-0.7-1.4-1.8-1.4-1 0-1.7 0.6-1.7 1.4 0 0.8 0.6 1.2 2.1 1.8zm1.6 3.5c0-1-0.6-1.4-2.4-2.1-1 0.5-1.6 1.2-1.6 2 0 1 0.8 1.7 2 1.7 1.2 0 2-0.7 2-1.6zm4.1 2.6l4-8.8h-5l-0.2-1.7h7.4v1.5l-4.2 9.4zm7.3-0.4l0.3-1.7c0.9 0.5 1.9 0.9 3 0.9 1.2 0 2-0.6 2-1.6 0-1.1-0.8-1.7-2.5-1.7h-0.7l-0.3-1.7h1c1.6 0 2.3-0.5 2.3-1.5 0-0.8-0.6-1.4-1.8-1.4-1.1 0-2 0.4-2.8 1l-0.3-1.7c0.8-0.6 1.9-1 3.3-1 2.4 0 3.6 1.3 3.6 2.9 0 1.4-0.8 2.1-1.9 2.5 1.3 0.4 2.1 1.2 2.1 2.7 0 2-1.6 3.2-4 3.2-1.2 0-2.4-0.4-3.3-0.9z"/>
	<g id="Clip-Path" clip-path="url(#cp5)">
		<g id="Layer">
			<path id="Layer" class="s7" d="m506 247c-29.9 0-54-24.1-54-54 0-29.9 24.1-54 54-54 29.9 0 54 24.1 54 54 0 29.9-24.1 54-54 54z"/>
		</g>
	</g>
	<path id="Layer" class="s15" d="m547 247c-6.6 0-12-5.4-12-12 0-6.6 5.4-12 12-12 6.6 0 12 5.4 12 12 0 6.6-5.4 12-12 12z"/>
	<path id="Layer" fill-rule="evenodd" class="s16" d="m417.7 330.3h-0.8v3.7h-1.9v-9.7h3c2.2 0 3.5 1.1 3.5 2.9 0 1.5-0.8 2.3-2 2.8l2.6 3.7-1.9 0.4zm0.2-4.5h-1v3.1h0.9c1.2 0 1.9-0.6 1.9-1.6 0-0.9-0.6-1.5-1.8-1.5zm7.8 8.3c-1.8 0-3.1-1.3-3.1-3.5 0-2.2 1.3-3.5 3.2-3.5 1.8 0 3.1 1.3 3.1 3.5 0 2.2-1.3 3.5-3.2 3.5zm0-5.6c-1 0-1.5 0.9-1.5 2.1 0 1.3 0.6 2.2 1.5 2.2 1.1 0 1.6-0.9 1.6-2.2 0-1.2-0.6-2.1-1.6-2.1zm4.7 5.5v-9.8l1.7-0.3v10.1zm6.4 0.1c-1.9 0-3.3-1-3.3-3.5 0-2.2 1.3-3.5 3-3.5 2.1 0 3 1.5 3 3.4 0 0.2 0 0.3 0 0.4h-4.4c0.1 1.4 0.8 1.9 1.9 1.9 0.8 0 1.5-0.3 2.3-0.8l0.2 1.3c-0.8 0.5-1.6 0.8-2.7 0.8zm-1.7-4.2h2.7c-0.1-1.1-0.5-1.6-1.3-1.6-0.7 0-1.2 0.5-1.4 1.6zm8 4.2c-1 0-2-0.3-2.6-0.6l0.2-1.4c0.7 0.5 1.6 0.8 2.5 0.8 0.7 0 1.1-0.3 1.1-0.7 0-0.5-0.3-0.7-1.4-1-1.6-0.4-2.3-0.9-2.3-2.1 0-1.2 0.9-2 2.5-2 0.9 0 1.7 0.2 2.4 0.5l-0.3 1.4c-0.6-0.4-1.4-0.6-2.1-0.6-0.6 0-0.9 0.2-0.9 0.6 0 0.3 0.2 0.5 1.2 0.8 1.8 0.5 2.5 0.9 2.5 2.2 0 1.3-1 2.1-2.8 2.1z"/>
	<path id="Layer" class="s17" d="m414 358c0-6.6 5.4-12 12-12h115c6.6 0 12 5.4 12 12 0 6.6-5.4 12-12 12h-115c-6.6 0-12-5.4-12-12z"/>
	<path id="Layer" class="s11" d="m426 366c-4.4 0-8-3.6-8-8 0-4.4 3.6-8 8-8 4.4 0 8 3.6 8 8 0 4.4-3.6 8-8 8z"/>
	<path id="Layer" fill-rule="evenodd" class="s8" d="m448.7 360.6l-3.7-0.1-0.8 2.5h-1.9l3.6-9.7h2l3.5 9.5-1.8 0.3zm-3.2-1.5h2.6l-1.3-3.8zm11.2 4v-4.4c0-0.6-0.3-1-0.9-1-0.5 0-1 0.3-1.5 0.8v4.6h-1.7v-6.8h1.4l0.2 1c0.6-0.6 1.3-1.1 2.2-1.1 1.3 0 2 0.8 2 2v4.9zm4.3-7.9c-0.6 0-1-0.4-1-0.9 0-0.6 0.4-1 1-1 0.5 0 1 0.4 1 1 0 0.5-0.5 0.9-1 0.9zm-0.9 7.9v-6.8h1.7v6.8zm11.5 0v-4.4c0-0.6-0.2-1-0.9-1-0.5 0-1 0.3-1.4 0.8v4.6h-1.7v-4.4c0-0.6-0.3-1-0.9-1-0.5 0-1 0.3-1.5 0.8v4.6h-1.6v-6.8h1.4l0.1 1c0.7-0.6 1.4-1.1 2.3-1.1 0.9 0 1.4 0.4 1.7 1.1 0.6-0.6 1.3-1.1 2.3-1.1 1.2 0 1.9 0.8 1.9 2v4.9zm7.3 0l-0.2-0.9c-0.5 0.6-1.2 1-2.2 1-1.2 0-2-0.7-2-1.8 0-1.7 1.4-2.4 4.1-2.6v-0.2c0-0.8-0.4-1-1.1-1-0.8 0-1.6 0.2-2.3 0.5l-0.2-1.3c0.8-0.4 1.6-0.6 2.7-0.6 1.7 0 2.6 0.7 2.6 2.3v4.6zm-0.2-3.4c-2 0.3-2.4 0.8-2.4 1.5 0 0.5 0.3 0.8 0.8 0.8 0.6 0 1.1-0.3 1.6-0.8zm3.4 3.4v-9.8l1.7-0.3v10.1zm10.8 0.2c-2.8 0-4.6-2-4.6-5 0-3 1.8-5 4.6-5 1.1 0 1.9 0.2 2.7 0.7l-0.3 1.7c-0.6-0.4-1.4-0.8-2.3-0.8-1.8 0-2.8 1.3-2.8 3.4 0 2.1 1.1 3.4 2.8 3.4 0.9 0 1.7-0.4 2.5-0.9l0.2 1.7c-0.7 0.5-1.7 0.8-2.8 0.8zm5.9-4.1v3.9h-1.7v-6.7h1.5l0.2 1.3c0.4-0.8 1.1-1.4 2.1-1.5l0.3 1.7c-1 0.1-1.9 0.6-2.4 1.3zm6.1 4.1c-1.8 0-3.2-1.4-3.2-3.6 0-2.2 1.4-3.5 3.2-3.5 1.9 0 3.2 1.3 3.2 3.5 0 2.2-1.3 3.6-3.2 3.6zm0-5.7c-1 0-1.5 0.9-1.5 2.1 0 1.3 0.5 2.2 1.5 2.2 1 0 1.6-0.9 1.6-2.2 0-1.2-0.6-2.1-1.6-2.1zm6.9 5.7c-1 0-2-0.3-2.7-0.7l0.3-1.4c0.7 0.5 1.6 0.8 2.4 0.8 0.7 0 1.1-0.3 1.1-0.7 0-0.5-0.3-0.7-1.3-1-1.7-0.4-2.4-0.8-2.4-2.1 0-1.2 1-2 2.5-2 0.9 0 1.7 0.2 2.4 0.5l-0.2 1.4c-0.7-0.4-1.5-0.6-2.2-0.6-0.6 0-0.9 0.2-0.9 0.6 0 0.4 0.2 0.6 1.3 0.8 1.7 0.5 2.4 1 2.4 2.2 0 1.4-1 2.2-2.7 2.2zm6.3 0c-1 0-2-0.3-2.7-0.7l0.2-1.4c0.8 0.5 1.7 0.8 2.5 0.8 0.7 0 1.1-0.3 1.1-0.7 0-0.5-0.3-0.7-1.3-1-1.7-0.4-2.4-0.8-2.4-2.1 0-1.2 1-2 2.5-2 0.9 0 1.7 0.2 2.4 0.5l-0.2 1.4c-0.7-0.4-1.5-0.6-2.2-0.6-0.6 0-0.9 0.2-0.9 0.6 0 0.4 0.2 0.6 1.2 0.8 1.8 0.5 2.5 1 2.5 2.2 0 1.4-1 2.2-2.7 2.2zm4.9-8.1c-0.5 0-1-0.4-1-0.9 0-0.6 0.5-1 1-1 0.6 0 1 0.4 1 1 0 0.5-0.4 0.9-1 0.9zm-0.8 7.9v-6.7h1.7v6.7zm7.5 0v-4.4c0-0.6-0.2-1-0.9-1-0.5 0-1 0.3-1.5 0.9v4.5h-1.7v-6.7h1.4l0.2 0.9c0.6-0.6 1.3-1.1 2.3-1.1 1.2 0 1.9 0.8 1.9 2v4.9zm5.9 2.6c-1.9 0-3.3-0.6-3.3-1.7 0-0.6 0.5-1.1 1.3-1.6q-0.4-0.3-0.4-0.7 0-0.6 0.9-1.1c-0.8-0.4-1.3-1.1-1.3-2 0-1.5 1.2-2.4 2.7-2.4q1.2 0 1.9 0.6l1.7-0.5 0.2 1.3-1.2 0.1q0.2 0.4 0.2 0.9c0 1.4-1.3 2.3-2.7 2.3q-0.3 0-0.6 0-0.3 0.1-0.3 0.3c0 0.2 0.2 0.3 1.3 0.5h0.9c1.3 0.2 2.2 0.7 2.2 1.7 0 1.5-1.6 2.3-3.5 2.3zm-0.1-8.4c-0.7 0-1.1 0.6-1.1 1.3 0 0.7 0.4 1.2 1.1 1.2 0.8 0 1.2-0.5 1.2-1.2 0-0.8-0.5-1.3-1.2-1.3zm2.1 6.5c0-0.4-0.3-0.6-1.2-0.7l-0.9-0.1c-0.4-0.1-0.7-0.1-1-0.2-0.5 0.3-0.7 0.7-0.7 1 0 0.5 0.6 0.9 1.9 0.9 1.2 0 1.9-0.4 1.9-0.9z"/>
	<path id="Layer" class="s18" d="m415 390c0-6.6 5.4-12 12-12h96c6.6 0 12 5.4 12 12 0 6.6-5.4 12-12 12h-96c-6.6 0-12-5.4-12-12z"/>
	<path id="Layer" class="s10" d="m427 398c-4.4 0-8-3.6-8-8 0-4.4 3.6-8 8-8 4.4 0 8 3.6 8 8 0 4.4-3.6 8-8 8z"/>
	<path id="Layer" fill-rule="evenodd" class="s8" d="m446.7 395.1c-1.2 0-2.2-0.3-3.1-0.7l0.3-1.7c0.8 0.5 1.8 0.9 2.8 0.9 0.8 0 1.4-0.4 1.4-1.2 0-0.7-0.3-1-1.7-1.6-1.9-0.8-2.6-1.4-2.6-2.9 0-1.7 1.3-2.7 3.1-2.7 1.1 0 1.8 0.3 2.5 0.6l-0.3 1.7c-0.7-0.5-1.5-0.8-2.2-0.8-1 0-1.4 0.5-1.4 1.1 0 0.6 0.3 0.9 1.7 1.4 2 0.9 2.7 1.5 2.7 3 0 1.9-1.4 2.9-3.2 2.9zm7.2 0c-1.3 0-2.2-0.5-2.2-2v-3.5h-1v-1.4h1v-2.1l1.6-0.3v2.4h1.4l0.2 1.4h-1.6v3.2c0 0.5 0.3 0.8 0.9 0.8q0.3 0 0.5 0l0.3 1.4c-0.3 0.1-0.6 0.1-1.1 0.1zm4-6.9v4.5c0 0.5 0.2 0.9 0.8 0.9 0.6 0 1.1-0.3 1.6-0.8v-4.6h1.7v6.8h-1.5l-0.1-1c-0.7 0.6-1.4 1.1-2.3 1.1-1.3 0-1.9-0.7-1.9-2v-4.9zm8.4 0c0.6 0 1.2 0.1 1.6 0.2v-3.2l1.7-0.3v10.1h-1.5l-0.1-0.9c-0.5 0.5-1.2 1-2.1 1-1.4 0-2.6-1-2.6-3.3 0-2.5 1.4-3.6 3-3.6zm0 5.4c0.6 0 1.1-0.3 1.6-0.9v-2.9c-0.4-0.2-0.8-0.3-1.3-0.3-0.9 0-1.6 0.7-1.6 2.2 0 1.3 0.6 1.9 1.3 1.9zm7.9 1.5c-1.9 0-3.3-1-3.3-3.5 0-2.2 1.3-3.5 3.1-3.5 2 0 2.9 1.5 2.9 3.4 0 0.2 0 0.4 0 0.4h-4.3c0 1.4 0.8 1.9 1.8 1.9 0.9 0 1.6-0.3 2.3-0.8l0.2 1.3c-0.7 0.5-1.6 0.8-2.7 0.8zm-1.6-4.2h2.7c-0.1-1.1-0.5-1.6-1.4-1.6-0.6 0-1.2 0.5-1.3 1.6zm9.8 4.1v-4.4c0-0.6-0.3-1-0.9-1-0.5 0-1 0.3-1.5 0.8v4.6h-1.7v-6.8h1.4l0.2 1c0.6-0.6 1.3-1.1 2.2-1.1 1.3 0 2 0.8 2 2v4.9zm5.9 0.1c-1.3 0-2.2-0.5-2.2-2v-3.5h-1v-1.4h1v-2.1l1.6-0.3v2.4h1.4l0.2 1.4h-1.6v3.2c0 0.5 0.3 0.8 0.9 0.8q0.3 0 0.5 0l0.3 1.4c-0.3 0.1-0.6 0.1-1.1 0.1zm5.5-0.1v-9.7h1.8v8h3.3l0.2 1.7zm9.3 0.1c-1.9 0-3.3-1-3.3-3.5 0-2.2 1.3-3.5 3-3.5 2.1 0 3 1.5 3 3.4 0 0.2 0 0.4 0 0.4h-4.4c0.1 1.4 0.8 1.9 1.9 1.9 0.8 0 1.5-0.3 2.3-0.8l0.2 1.3c-0.8 0.5-1.6 0.8-2.7 0.8zm-1.6-4.2h2.7c-0.2-1.1-0.6-1.6-1.4-1.6-0.7 0-1.2 0.5-1.3 1.6zm9.6 4.1l-0.2-0.9c-0.5 0.6-1.2 1-2.2 1-1.2 0-1.9-0.7-1.9-1.8 0-1.7 1.3-2.4 4-2.7v-0.2c0-0.7-0.4-1-1.1-1-0.8 0-1.5 0.3-2.3 0.6l-0.2-1.4c0.8-0.3 1.6-0.5 2.7-0.5 1.8 0 2.6 0.6 2.6 2.3v4.6zm-0.2-3.4c-2 0.3-2.4 0.8-2.4 1.5 0 0.5 0.3 0.8 0.8 0.8 0.6 0 1.1-0.3 1.6-0.8zm5.9-3.4c0.7 0 1.2 0.1 1.6 0.2v-3.2l1.7-0.3v10.1h-1.4l-0.2-0.9c-0.5 0.5-1.1 1.1-2.1 1.1-1.4 0-2.5-1.1-2.5-3.4 0-2.5 1.4-3.6 2.9-3.6zm0.1 5.5c0.6 0 1.1-0.4 1.5-1v-2.9c-0.4-0.2-0.7-0.3-1.3-0.3-0.9 0-1.5 0.7-1.5 2.2 0 1.3 0.5 2 1.3 2z"/>
	<path id="Layer" class="s19" d="m147.9 186.3l12.3-20.4c0.2-0.2 0.4-0.4 0.7-0.5 0.3 0 0.6 0 0.8 0.2l4.5 2.7c0.3 0.1 0.4 0.4 0.5 0.7 0.1 0.2 0 0.5-0.1 0.8l-12.3 20.4z"/>
	<path id="Layer" class="s20" d="m150.5 181.1l7.3 4.4q0.1 0.1 0.2 0.2 0.1 0.1 0.2 0.3 0 0.1 0 0.3 0 0.1-0.1 0.3c-29.1 58-62.3 108.4-81.6 130.1l-4.8-2.9c10.3-27.1 39.6-79.9 77.6-132.5q0.1-0.2 0.2-0.3 0.2-0.1 0.3-0.1 0.2 0 0.4 0 0.1 0.1 0.3 0.2z"/>
	<path id="Layer" class="s21" d="m120 226.1l16.1-30.6c0.8-1.7 2.2-3.1 3.9-4l3.4-1.8q0.3-0.2 0.6-0.1 0.3 0.1 0.5 0.3 0.3 0.2 0.3 0.6 0 0.3-0.1 0.6l-22.1 36.5c-0.3 0.3-0.6 0.5-1 0.6-0.4 0.1-0.8 0.1-1.1-0.1-0.4-0.2-0.6-0.5-0.7-0.9-0.1-0.4 0-0.8 0.2-1.1z"/>
	<path id="Layer" class="s22" d="m200.8 342l-152.1-30.6-0.8-1.8q-0.3-0.6-0.3-1.3 0.1-0.6 0.4-1.2 0.4-0.5 0.9-0.9 0.6-0.3 1.3-0.3h153.2z"/>
	<path id="Layer" class="s23" d="m212.2 311.4h7.4l29.8 126.1q0.1 0.4 0 0.9-0.1 0.4-0.4 0.8-0.3 0.4-0.7 0.6-0.4 0.2-0.8 0.2h-4.9z"/>
	<path id="Layer" class="s24" d="m189.4 311.4h22.8l30.4 128.6h-83.6z"/>
	<path id="Layer" class="s25" d="m205.8 357c1 56.9-5 83-5 83h-20.6l12.3-67.8z"/>
	<path id="Layer" class="s25" d="m206 335.5c-0.5 57.1-18.7 104.5-18.7 104.5h-22.8l32.3-128.6h15.4z"/>
	<path id="Layer" class="s25" d="m196.8 311.4h15.4l30.4 128.6h-11.5c0 0-27.7-36.1-30.2-104.5z"/>
	<path id="Layer" class="s23" d="m166.9 438.1c-0.2 0.5-0.5 1-0.9 1.3-0.5 0.4-1 0.6-1.5 0.6h-8.1l33-128.6h7.4z"/>
	<path id="Layer" class="s26" d="m63.8 222.8q0 0 0 0.1l-3.5 7.7c0 0.2-0.2 0.2-0.3 0l-3.4-7.8h-0.1l-7.8-3.4q-0.1-0.1-0.1-0.2 0-0.1 0.1-0.2l7.8-3.5h0.1l3.4-7.7c0.1-0.2 0.3-0.2 0.3 0l3.5 7.7q0 0 0 0.1 0 0 0.1 0l7.7 3.4q0.1 0 0.1 0 0.1 0.1 0.1 0.2 0 0.1-0.1 0.1 0 0.1-0.1 0.1l-7.7 3.4q-0.1 0-0.1 0z"/>
	<path id="Layer" class="s4" d="m159.6 437.5c-0.2 0.7-0.6 1.3-1.2 1.8-0.6 0.4-1.3 0.7-2 0.7h-134.8q-0.6 0-1.2-0.3-0.5-0.2-0.8-0.7-0.4-0.5-0.5-1.1-0.2-0.5 0-1.1l29.6-125.4h140.7z"/>
	<path id="Layer" class="s23" d="m219.3 306.2q0.6 0.3 1 0.9 0.4 0.5 0.4 1.2 0.1 0.7-0.2 1.3l-0.9 1.8h-30.2l-0.9-1.8q-0.3-0.6-0.3-1.3 0.1-0.7 0.4-1.2 0.4-0.6 1-0.9 0.6-0.3 1.3-0.3h27.2q0.6 0 1.2 0.3z"/>
	<path id="Layer" class="s27" d="m196.8 311.4c4 7.3 11.4 7.3 15.4 0z"/>
	<path id="Layer" class="s28" d="m237.1 440c-21-45.1-26.9-77-28.5-111.9 0 0 5.7 57.5 28.5 111.9z"/>
	<path id="Layer" class="s29" d="m200.5 360.2c-0.6 48-6.4 79.8-6.4 79.8h-8.5c0 0 5.7-15.7 14.9-79.8z"/>
	<path id="Layer" class="s30" d="m104.9 354.4c0.7-2.4 2.1-4.5 4-6.1 2-1.5 4.4-2.4 6.9-2.5h26.3c4.9 0 7.9 3.9 6.8 8.6l-10.1 42.5c-0.7 2.4-2.1 4.5-4 6.1-2 1.5-4.3 2.4-6.8 2.5h-26.3c-4.9 0-7.9-3.8-6.8-8.6z"/>
	<path id="Layer" class="s4" d="m131.1 350.8q0.3 0 0.6 0.2 0.3 0.1 0.5 0.4 0.2 0.2 0.3 0.5 0 0.4 0 0.7l-11.1 46.8c-0.1 0.3-0.2 0.6-0.5 0.8-0.3 0.3-0.6 0.4-0.9 0.4q-0.4 0-0.7-0.2-0.3-0.1-0.6-0.4-0.2-0.3-0.3-0.6 0-0.4 0.1-0.7l11.1-46.7q0.1-0.5 0.5-0.9 0.4-0.3 1-0.3z"/>
	<path id="Layer" class="s31" d="m148.4 238.1l-18.4-7.4h43.5z"/>
	<path id="Layer" class="s32" d="m173.5 305.9h-43.5l12.9-21z"/>
	<path id="Layer" class="s33" d="m108.3 268.3l40.1-30.2-5.5 46.8z"/>
	<path id="Layer" class="s34" d="m142.9 284.9l5.5-46.8 36.4 26.9z"/>
	<path id="Layer" class="s6" d="m130 230.7l18.4 7.4-40.1 30.2z"/>
	<path id="Layer" class="s35" d="m108.3 268.3l34.6 16.6-12.9 21z"/>
	<path id="Layer" class="s36" d="m142.9 284.9l41.9-19.9-11.3 40.9z"/>
	<path id="Layer" class="s37" d="m173.5 305.9l11.3-40.9 10.4 3.3z"/>
	<path id="Layer" class="s38" d="m184.8 265l-36.4-26.9 25.1-7.4z"/>
	<path id="Layer" class="s39" d="m195.2 268.3l-10.4-3.3-11.3-34.3z"/>
	<path id="Layer" class="s4" d="m305.7 419.7q-0.1 0.3-0.3 0l-3.5-7.7-7.8-3.4q-0.1-0.1-0.1-0.2 0-0.1 0.1-0.2l7.8-3.5 3.5-7.7q0 0 0-0.1 0.1 0 0.1 0 0.1 0 0.1 0 0 0.1 0.1 0.1l3.5 7.8 7.8 3.4q0.1 0.1 0.1 0.2 0 0.1-0.1 0.2l-7.8 3.4z"/>
	<g id="Clip-Path" clip-path="url(#cp6)">
		<g id="Layer">
			<path id="Layer" class="s7" d="m255 360c-7.7 0-14-6.3-14-14 0-7.7 6.3-14 14-14 7.7 0 14 6.3 14 14 0 7.7-6.3 14-14 14z"/>
		</g>
	</g>
</svg>