<svg version="1.2" xmlns="http://www.w3.org/2000/svg" viewBox="0 0 678 440" width="678" height="440">
	<title>section-1-svg</title>
	<defs>
		<clipPath clipPathUnits="userSpaceOnUse" id="cp1">
			<path d="m319 343c-11.06 0-20-8.94-20-20 0-11.06 8.94-20 20-20 11.06 0 20 8.94 20 20 0 11.06-8.94 20-20 20z"/>
		</clipPath>
		<clipPath clipPathUnits="userSpaceOnUse" id="cp2">
			<path d="m319 287c-11.06 0-20-8.94-20-20 0-11.06 8.94-20 20-20 11.06 0 20 8.94 20 20 0 11.06-8.94 20-20 20z"/>
		</clipPath>
		<clipPath clipPathUnits="userSpaceOnUse" id="cp3">
			<path d="m319 155c-11.06 0-20-8.94-20-20 0-11.06 8.94-20 20-20 11.06 0 20 8.94 20 20 0 11.06-8.94 20-20 20z"/>
		</clipPath>
		<clipPath clipPathUnits="userSpaceOnUse" id="cp4">
			<path d="m319 231c-11.06 0-20-8.94-20-20 0-11.06 8.94-20 20-20 11.06 0 20 8.94 20 20 0 11.06-8.94 20-20 20z"/>
		</clipPath>
	</defs>
	<style>
		.s0 { fill: #292841 } 
		.s1 { fill: #b9bbbe } 
		.s2 { fill: #ffffff } 
		.s3 { fill: #1c1b29 } 
		.s4 { fill: #cfdeff } 
		.s5 { fill: #2ddfb4 } 
		.s6 { fill: #72767d } 
		.s7 { fill: #dcddde } 
		.s8 { fill: #f7e5bc } 
		.s9 { fill: #bed3ff } 
		.s10 { fill: #ffa78b } 
		.s11 { fill: #fdd171 } 
		.s12 { fill: #fdd2f8 } 
		.s13 { fill: #fff0db } 
		.s14 { fill: #2950cc } 
		.s15 { fill: #2139a6 } 
		.s16 { fill: #ff9ccd } 
		.s17 { fill: #50a7b5 } 
		.s18 { fill: #61c7c7 } 
		.s19 { fill: #ffdeb0 } 
		.s20 { fill: #c84493 } 
		.s21 { fill: #e060ad } 
		.s22 { fill: #f2a97b } 
		.s23 { fill: #feccaf } 
		.s24 { fill: #e65c5c } 
		.s25 { fill: #e3bd9a } 
		.s26 { fill: #dec3c7 } 
		.s27 { fill: #d1abb1 } 
		.s28 { fill: #ffb869 } 
		.s29 { fill: #ff82a6 } 
	</style>
	<path id="Layer" class="s0" d="m181 48c0-4.4 3.6-8 8-8h411c4.4 0 8 3.6 8 8v312c0 4.4-3.6 8-8 8h-411c-4.4 0-8-3.6-8-8z"/>
	<path id="Layer" fill-rule="evenodd" class="s1" d="m304.9 85c-0.3 0-0.6-0.3-0.5-0.6l0.6-3.4h-3.4c-0.3 0-0.6-0.3-0.5-0.6l0.2-1c0-0.2 0.2-0.4 0.5-0.4h3.6l1-6h-3.4c-0.3 0-0.5-0.3-0.5-0.6l0.2-1c0-0.2 0.2-0.4 0.5-0.4h3.6l0.6-3.6c0-0.2 0.2-0.4 0.5-0.4h1c0.3 0 0.5 0.3 0.5 0.6l-0.6 3.4h6l0.6-3.6c0-0.2 0.2-0.4 0.5-0.4h1c0.3 0 0.5 0.3 0.5 0.6l-0.6 3.4h3.4c0.3 0 0.5 0.3 0.5 0.6l-0.2 1c-0.1 0.2-0.3 0.4-0.5 0.4h-3.6l-1 6h3.4c0.3 0 0.5 0.3 0.4 0.6l-0.1 1c-0.1 0.2-0.3 0.4-0.5 0.4h-3.6l-0.6 3.6c-0.1 0.2-0.3 0.4-0.5 0.4h-1c-0.3 0-0.6-0.3-0.5-0.6l0.6-3.4h-6l-0.6 3.6c-0.1 0.2-0.3 0.4-0.5 0.4zm3.5-12l-1.1 6h6l1.1-6z"/>
	<path id="Layer" class="s2" d="m335.5 83.2c-1.4 0-2.9-0.4-3.8-0.9l0.3-2c1.1 0.6 2.4 1.1 3.6 1.1 1 0 1.6-0.4 1.6-1 0-0.7-0.5-1-2-1.4-2.3-0.6-3.3-1.2-3.3-3 0-1.7 1.3-2.9 3.5-2.9 1.3 0 2.5 0.3 3.4 0.7l-0.3 2c-1-0.5-2.1-0.9-3.1-0.9-0.9 0-1.3 0.4-1.3 0.9 0 0.5 0.4 0.8 1.8 1.2 2.5 0.7 3.5 1.3 3.5 3.2 0 1.9-1.4 3-3.9 3z"/>
	<path id="Layer" class="s2" d="m344.9 83.2c-1.9 0-3.2-0.7-3.2-2.9v-5h-1.3v-2h1.3v-3l2.4-0.4v3.4h2l0.3 2h-2.3v4.6c0 0.7 0.4 1.2 1.3 1.2q0.4 0 0.7-0.1l0.3 2c-0.3 0.1-0.8 0.2-1.5 0.2z"/>
	<path id="Layer" class="s2" d="m350.6 73.3v6.4c0 0.8 0.4 1.4 1.2 1.4 0.8 0 1.5-0.5 2.2-1.2v-6.6h2.4v9.7h-2l-0.2-1.4c-0.9 0.9-2 1.6-3.2 1.6-1.9 0-2.8-1.1-2.8-2.9v-7z"/>
	<path id="Layer" fill-rule="evenodd" class="s2" d="m362.6 73.2c0.9 0 1.7 0.2 2.3 0.4v-4.7l2.4-0.3v14.4h-2.1l-0.2-1.3c-0.7 0.8-1.6 1.5-3 1.5-2 0-3.6-1.5-3.6-4.8 0-3.6 2-5.2 4.2-5.2zm0.1 7.9c0.8 0 1.5-0.6 2.2-1.4v-4.1c-0.6-0.3-1.1-0.4-1.9-0.4-1.3 0-2.2 1-2.2 3.1 0 1.9 0.8 2.8 1.9 2.8z"/>
	<path id="Layer" class="s2" d="m369.7 86.5l-0.3-2q0.5 0.1 1.1 0.2c0.8 0 1.4-0.4 1.7-1.4l0.1-0.3-3.5-9.5 2.5-0.3 2.2 6.9 2.2-6.8h2.4l-3.7 10.3c-0.8 2.3-1.9 3-3.7 3-0.5 0-0.7 0-1-0.1z"/>
	<path id="Layer" class="s2" d="m379.1 78.4v-2.3h5.2v2.3z"/>
	<path id="Layer" fill-rule="evenodd" class="s2" d="m390 86.6c-2.6 0-4.6-0.8-4.6-2.4 0-0.9 0.7-1.6 1.9-2.2q-0.6-0.5-0.6-1.1 0-0.8 1.2-1.5c-1.1-0.6-1.8-1.6-1.8-2.8 0-2.2 1.7-3.5 3.9-3.5q1.7 0.1 2.7 0.9l2.4-0.8 0.3 1.9-1.8 0.1c0.2 0.4 0.3 0.9 0.3 1.3 0 2.1-1.8 3.3-3.9 3.3q-0.4 0-0.7 0c-0.3 0.1-0.4 0.3-0.4 0.5 0 0.3 0.3 0.4 1.8 0.6l1.2 0.1c2 0.3 3.2 0.9 3.2 2.4 0 2.1-2.3 3.2-5.1 3.2zm0-11.9c-1.1 0-1.7 0.8-1.7 1.9 0 1 0.7 1.7 1.7 1.7 1.1 0 1.7-0.8 1.7-1.8 0-1-0.7-1.8-1.7-1.8zm2.9 9.2c0-0.5-0.4-0.8-1.6-1l-1.3-0.1c-0.7-0.1-1-0.2-1.5-0.3-0.7 0.5-1 1-1 1.5 0 0.7 0.9 1.2 2.7 1.2 1.7 0 2.7-0.6 2.7-1.3z"/>
	<path id="Layer" class="s2" d="m399.2 77.5v5.5h-2.4v-9.7h2.1l0.3 2c0.6-1.1 1.6-2.1 3.1-2.2l0.3 2.4c-1.5 0.1-2.7 0.9-3.4 2z"/>
	<path id="Layer" fill-rule="evenodd" class="s2" d="m407.9 83.2c-2.6 0-4.5-1.9-4.5-5 0-3.2 1.9-5.1 4.6-5.1 2.6 0 4.5 1.9 4.5 5.1 0 3.1-1.9 5-4.6 5zm0-8.1c-1.4 0-2.1 1.3-2.1 3.1 0 1.7 0.7 3 2.1 3 1.5 0 2.3-1.2 2.3-3 0-1.8-0.8-3.1-2.3-3.1z"/>
	<path id="Layer" class="s2" d="m416.8 73.3v6.4c0 0.8 0.4 1.4 1.3 1.4 0.7 0 1.5-0.5 2.2-1.2v-6.6h2.4v9.7h-2.1l-0.2-1.4c-0.9 0.9-1.9 1.6-3.2 1.6-1.8 0-2.8-1.1-2.8-2.9v-7z"/>
	<path id="Layer" fill-rule="evenodd" class="s2" d="m429.8 83.1c-1 0-1.7-0.2-2.3-0.4v3.7l-2.4 0.3v-13.4h2.1l0.2 1.4c0.7-0.8 1.6-1.6 2.9-1.6 2.1 0 3.7 1.6 3.7 4.8 0 3.6-2 5.2-4.2 5.2zm-0.1-7.8c-0.9 0-1.5 0.5-2.2 1.3v4.2c0.6 0.2 1.1 0.4 1.9 0.4 1.2 0 2.2-1 2.2-3.2 0-1.8-0.8-2.7-1.9-2.7z"/>
	<path id="Layer" class="s3" d="m162 48c0-4.4 3.6-8 8-8h105v328h-105c-4.4 0-8-3.6-8-8z"/>
	<g id="Clip-Path" clip-path="url(#cp1)">
		<g id="Layer">
			<path id="Layer" class="s4" d="m319 343c-11.1 0-20-8.9-20-20 0-11.1 8.9-20 20-20 11.1 0 20 8.9 20 20 0 11.1-8.9 20-20 20z"/>
		</g>
	</g>
	<path id="Layer" fill-rule="evenodd" class="s5" d="m357.3 307.7h3.3c2.5 0 4 1.2 4 3.4 0 2.4-1.7 3.6-4.2 3.6h-1v4h-2.1zm3.1 1.7h-1v3.6h1c1.3 0 2.1-0.6 2.1-1.8 0-1.2-0.7-1.8-2.1-1.8z"/>
	<path id="Layer" class="s5" d="m370.7 318.7v-5c0-0.7-0.3-1.2-1-1.2-0.6 0-1.2 0.4-1.8 1v5.2h-1.9v-11.2l1.9-0.3v4.8c0.7-0.6 1.5-1.2 2.5-1.2 1.5 0 2.2 0.9 2.2 2.4v5.5z"/>
	<path id="Layer" class="s5" d="m375.6 309.7c-0.6 0-1.2-0.4-1.2-1.1 0-0.6 0.6-1.1 1.2-1.1 0.6 0 1.1 0.5 1.1 1.1 0 0.7-0.5 1.1-1.1 1.1zm-1 9v-7.7h1.9v7.7z"/>
	<path id="Layer" fill-rule="evenodd" class="s5" d="m381.7 318.8c-1.2 0-2.2-0.2-3.1-0.5v-10.8l1.9-0.3v4.7c0.5-0.5 1.2-1.1 2.2-1.1 1.6 0 2.9 1.3 2.9 3.8 0 2.9-1.6 4.2-3.9 4.2zm0.5-6.3c-0.6 0-1.2 0.5-1.7 1v3.5c0.4 0.2 0.7 0.3 1.2 0.3 1.2 0 2-0.8 2-2.5 0-1.5-0.6-2.3-1.5-2.3z"/>
	<path id="Layer" class="s5" d="m388.2 309.7c-0.6 0-1.1-0.4-1.1-1.1 0-0.6 0.5-1.1 1.1-1.1 0.6 0 1.2 0.5 1.2 1.1 0 0.7-0.6 1.1-1.2 1.1zm-1 9v-7.7h2v7.7z"/>
	<path id="Layer" class="s6" d="m397.1 309.4v7.2h-1.1v-7.2h-2.6v-1h6.3l0.1 1z"/>
	<path id="Layer" fill-rule="evenodd" class="s6" d="m401.9 316.8c-1.5 0-2.6-1.1-2.6-3 0-1.9 1.1-3 2.6-3 1.6 0 2.7 1.1 2.7 3 0 1.9-1.1 3-2.7 3zm0-5.1c-1 0-1.5 0.9-1.5 2.1 0 1.2 0.5 2.1 1.5 2.1 1.1 0 1.6-0.9 1.6-2.1 0-1.2-0.5-2.1-1.6-2.1z"/>
	<path id="Layer" fill-rule="evenodd" class="s6" d="m408.2 310.8c0.6 0 1.1 0.2 1.5 0.3v-3l1-0.1v8.6h-0.8l-0.2-0.8c-0.4 0.5-1 1-1.8 1-1.3 0-2.3-0.9-2.3-2.9 0-2 1.2-3.1 2.6-3.1zm-0.2 5c0.7 0 1.2-0.4 1.7-1v-2.7c-0.5-0.3-0.8-0.4-1.5-0.4-0.9 0-1.5 0.8-1.5 2.2 0 1.3 0.6 1.9 1.3 1.9z"/>
	<path id="Layer" fill-rule="evenodd" class="s6" d="m415.9 316.6l-0.1-0.7c-0.5 0.4-1.1 0.9-2.1 0.9-1 0-1.6-0.7-1.6-1.6 0-1.5 1.2-2 3.6-2.3v-0.2c0-0.7-0.5-1-1.1-1-0.7 0-1.4 0.2-2 0.5l-0.1-0.9c0.6-0.3 1.3-0.5 2.2-0.5 1.4 0 2 0.6 2 1.8v4zm-0.2-2.9c-2.1 0.2-2.5 0.8-2.5 1.4 0 0.5 0.3 0.8 0.8 0.8 0.7 0 1.2-0.3 1.7-0.8z"/>
	<path id="Layer" class="s6" d="m418.2 318.8l-0.1-1c0.2 0.1 0.4 0.1 0.5 0.1 0.5 0 0.8-0.2 1.1-0.9l0.1-0.3-2.1-5.7 1.1-0.2 1.5 4.6 1.5-4.5h1.2l-2.4 6.3c-0.4 1.3-1.1 1.6-1.9 1.6-0.2 0-0.4 0-0.5 0z"/>
	<path id="Layer" fill-rule="evenodd" class="s6" d="m430.2 316.6l-0.1-0.7c-0.5 0.4-1.1 0.9-2 0.9-1.1 0-1.7-0.7-1.7-1.6 0-1.5 1.2-2 3.6-2.3v-0.2c0-0.7-0.4-1-1.1-1-0.7 0-1.4 0.2-2 0.5l-0.1-0.9c0.7-0.3 1.3-0.5 2.2-0.5 1.4 0 2.1 0.6 2.1 1.8v4zm-0.3-2.9c-2.1 0.2-2.5 0.8-2.5 1.4 0 0.5 0.3 0.8 0.8 0.8 0.7 0 1.3-0.3 1.7-0.8z"/>
	<path id="Layer" class="s6" d="m434.7 316.7c-1.1 0-1.7-0.3-1.7-1.5v-3.4h-0.9v-0.9h0.9v-1.9l1-0.1v2h1.3l0.1 0.9h-1.4v3.2c0 0.5 0.2 0.8 0.8 0.8q0.3 0 0.5 0l0.2 0.9q-0.3 0-0.8 0z"/>
	<path id="Layer" fill-rule="evenodd" class="s6" d="m440.1 315.8c1.6-0.3 3-1.1 3.4-2.8-0.5 0.4-1.2 0.6-2 0.6-1.5 0-2.5-1-2.5-2.5 0-1.6 1.2-2.7 2.8-2.7 1.7 0 2.9 1.2 2.9 3.4 0 2.8-1.8 4.4-4.5 5zm3.6-3.9v-0.1c0-1.5-0.7-2.5-1.9-2.5-1 0-1.7 0.6-1.7 1.7 0 1 0.6 1.6 1.7 1.6 0.7 0 1.4-0.2 1.9-0.7z"/>
	<path id="Layer" class="s6" d="m446.1 312.3v-1.4h1.2v1.4zm0 4.3v-1.4h1.2v1.4z"/>
	<path id="Layer" class="s6" d="m448.6 316.2l0.1-1.1c0.7 0.5 1.4 0.7 2.2 0.7 1.1 0 1.8-0.5 1.8-1.4 0-1-0.7-1.5-2.2-1.5h-0.4l-0.2-1h0.6c1.4 0 2-0.5 2-1.4 0-0.7-0.5-1.2-1.5-1.2-0.8 0-1.6 0.3-2.2 0.8l-0.1-1c0.6-0.4 1.3-0.7 2.3-0.7 1.9 0 2.6 1 2.6 2.1 0 1-0.6 1.6-1.5 1.9 1.1 0.3 1.7 0.9 1.7 2 0 1.4-1.1 2.4-2.9 2.4-0.9 0-1.7-0.3-2.3-0.6z"/>
	<path id="Layer" fill-rule="evenodd" class="s6" d="m458 316.8c-1.8 0-3.1-1.5-3.1-4.2 0-2.7 1.3-4.2 3.1-4.2 1.9 0 3.1 1.5 3.1 4.2 0 2.7-1.2 4.2-3.1 4.2zm0-7.5c-1.2 0-2 1.2-2 3.3 0 2.1 0.8 3.2 2 3.2 1.3 0 2-1.1 2-3.2 0-2.1-0.7-3.3-2-3.3z"/>
	<path id="Layer" fill-rule="evenodd" class="s6" d="m470.2 314.2h-3.4l-0.9 2.4h-1.2l3.3-8.3h1.1l3.2 8.2-1.1 0.2zm-3-1h2.6l-1.3-3.5z"/>
	<path id="Layer" class="s6" d="m481.6 316.6l-0.5-6.6-2.6 6.7h-0.9l-2.6-6.7-0.5 6.6h-1.1l0.7-8.2h1.4l2.6 6.8 2.5-6.8h1.4l0.7 8.2z"/>
	<path id="Layer" class="s7" d="m365.5 339v-5.2c0-0.8-0.3-1.3-1.1-1.3-0.7 0-1.5 0.5-2.2 1.2v5.3h-1.4v-5.2c0-0.8-0.3-1.3-1.1-1.3-0.7 0-1.5 0.5-2.2 1.2v5.3h-1.4v-7.6h1.2l0.1 1.1c0.8-0.7 1.6-1.3 2.7-1.3 1.1 0 1.7 0.5 2 1.3 0.7-0.7 1.6-1.3 2.7-1.3 1.4 0 2.2 0.9 2.2 2.2v5.6z"/>
	<path id="Layer" fill-rule="evenodd" class="s7" d="m372.3 339.2c-2 0-3.6-1.2-3.6-4 0-2.5 1.5-4 3.4-4 2.2 0 3.2 1.7 3.2 3.8v0.3h-5.1c0 1.8 0.9 2.6 2.2 2.6 1.1 0 1.9-0.4 2.7-1l0.2 1.2c-0.8 0.7-1.8 1.1-3 1.1zm-2.1-4.9h3.7c-0.2-1.3-0.7-2-1.8-2-0.9 0-1.7 0.7-1.9 2z"/>
	<path id="Layer" class="s7" d="m383.3 339.1c-1.4 0-2.3-0.5-2.3-2v-4.5h-1.1v-1.2h1.1v-2.6l1.4-0.2v2.8h1.7l0.2 1.2h-1.9v4.3c0 0.6 0.3 1 1.1 1q0.4 0 0.6-0.1l0.2 1.2c-0.2 0.1-0.5 0.1-1 0.1z"/>
	<path id="Layer" fill-rule="evenodd" class="s7" d="m389.1 339.2c-2.1 0-3.5-1.5-3.5-4 0-2.5 1.4-4 3.5-4 2 0 3.5 1.5 3.5 4 0 2.5-1.5 4-3.5 4zm0-6.8c-1.4 0-2.1 1.2-2.1 2.8 0 1.6 0.7 2.8 2.1 2.8 1.4 0 2.1-1.2 2.1-2.8 0-1.6-0.8-2.8-2.1-2.8z"/>
	<path id="Layer" fill-rule="evenodd" class="s7" d="m397.5 339.2c-2 0-3.5-1.5-3.5-4 0-2.5 1.5-4 3.5-4 2.1 0 3.6 1.5 3.6 4 0 2.5-1.5 4-3.6 4zm0-6.8c-1.4 0-2.1 1.2-2.1 2.8 0 1.6 0.8 2.8 2.1 2.8 1.4 0 2.1-1.2 2.1-2.8 0-1.6-0.7-2.8-2.1-2.8z"/>
	<path id="Layer" class="s7" d="m404.4 335.5l-0.9 0.2-0.4-7.7h1.7zm-1.3 3.4v-1.9h1.6v1.9z"/>
	<g id="Clip-Path" clip-path="url(#cp2)">
		<g id="Layer">
			<path id="Layer" class="s8" d="m319 287c-11.1 0-20-8.9-20-20 0-11.1 8.9-20 20-20 11.1 0 20 8.9 20 20 0 11.1-8.9 20-20 20z"/>
		</g>
	</g>
	<path id="Layer" fill-rule="evenodd" class="s9" d="m356.7 250h3.3c2.5 0 4 1.2 4 3.4 0 2.4-1.7 3.6-4.2 3.6h-1v4h-2.1zm3.1 1.7h-1v3.6h1c1.3 0 2.1-0.6 2.1-1.8 0-1.2-0.7-1.8-2.1-1.8z"/>
	<path id="Layer" fill-rule="evenodd" class="s9" d="m368.4 261.2c-2.2 0-3.8-1.2-3.8-4 0-2.5 1.5-4.1 3.5-4.1 2.4 0 3.4 1.8 3.4 4 0 0.1 0 0.3 0 0.4h-5c0.1 1.5 0.9 2.2 2.1 2.2 1 0 1.8-0.4 2.7-1l0.2 1.5c-0.9 0.6-1.9 1-3.1 1zm-1.9-4.9h3.1c-0.1-1.2-0.6-1.8-1.5-1.8-0.8 0-1.4 0.6-1.6 1.8z"/>
	<path id="Layer" fill-rule="evenodd" class="s9" d="m376.8 261.1c-0.8 0-1.4-0.1-1.8-0.3v2.9l-2 0.3v-10.7h1.7l0.2 1.1c0.5-0.7 1.3-1.3 2.3-1.3 1.6 0 2.9 1.3 2.9 3.9 0 2.8-1.6 4.1-3.3 4.1zm-0.1-6.3c-0.7 0-1.2 0.5-1.7 1.1v3.3c0.4 0.3 0.8 0.4 1.5 0.4 0.9 0 1.7-0.8 1.7-2.5 0-1.5-0.6-2.3-1.5-2.3z"/>
	<path id="Layer" fill-rule="evenodd" class="s9" d="m385.4 261.1c-0.7 0-1.3-0.1-1.8-0.3v2.9l-1.9 0.3v-10.7h1.6l0.2 1.1c0.6-0.7 1.3-1.3 2.4-1.3 1.6 0 2.9 1.3 2.9 3.9 0 2.8-1.6 4.1-3.4 4.1zm0-6.3c-0.7 0-1.3 0.5-1.8 1.1v3.3c0.5 0.3 0.9 0.4 1.5 0.4 1 0 1.8-0.8 1.8-2.5 0-1.5-0.7-2.3-1.5-2.3z"/>
	<path id="Layer" fill-rule="evenodd" class="s9" d="m393.7 261.2c-2.1 0-3.7-1.2-3.7-4 0-2.5 1.5-4.1 3.5-4.1 2.3 0 3.3 1.8 3.3 4 0 0.1 0 0.3 0 0.4h-4.9c0 1.5 0.9 2.2 2 2.2 1 0 1.9-0.4 2.7-1l0.2 1.5c-0.8 0.6-1.8 1-3.1 1zm-1.8-4.9h3.1c-0.2-1.2-0.6-1.8-1.6-1.8-0.7 0-1.4 0.6-1.5 1.8z"/>
	<path id="Layer" class="s6" d="m404.6 254.6v7.2h-1.1v-7.2h-2.7v-1.1h6.4l0.1 1.1z"/>
	<path id="Layer" fill-rule="evenodd" class="s6" d="m409.4 261.9c-1.5 0-2.6-1-2.6-2.9 0-1.9 1.1-3 2.6-3 1.5 0 2.7 1.1 2.7 3 0 1.9-1.2 2.9-2.7 2.9zm0-5c-1 0-1.5 0.9-1.5 2.1 0 1.1 0.5 2.1 1.5 2.1 1.1 0 1.6-0.9 1.6-2.1 0-1.2-0.6-2.1-1.6-2.1z"/>
	<path id="Layer" fill-rule="evenodd" class="s6" d="m415.7 256c0.6 0 1.1 0.1 1.4 0.3v-3l1.1-0.1v8.6h-0.8l-0.2-0.8c-0.4 0.5-1 0.9-1.8 0.9-1.3 0-2.3-0.9-2.3-2.8 0-2.1 1.2-3.1 2.6-3.1zm-0.2 5c0.7 0 1.2-0.4 1.6-1v-2.7c-0.4-0.3-0.8-0.4-1.4-0.4-0.9 0-1.5 0.8-1.5 2.2 0 1.2 0.5 1.9 1.3 1.9z"/>
	<path id="Layer" fill-rule="evenodd" class="s6" d="m423.4 261.8l-0.2-0.7c-0.4 0.4-1 0.8-2 0.8-1 0-1.7-0.6-1.7-1.6 0-1.4 1.3-1.9 3.6-2.2v-0.2c0-0.8-0.4-1-1-1-0.7 0-1.4 0.2-2 0.5l-0.2-0.9c0.7-0.3 1.4-0.5 2.3-0.5 1.3 0 2 0.5 2 1.8v4zm-0.2-2.9c-2.1 0.2-2.5 0.8-2.5 1.4 0 0.5 0.3 0.8 0.8 0.8 0.6 0 1.2-0.4 1.7-0.8z"/>
	<path id="Layer" class="s6" d="m425.7 264l-0.1-1c0.1 0 0.4 0.1 0.5 0.1 0.5 0 0.8-0.3 1.1-0.9l0.1-0.4-2.1-5.6 1.1-0.2 1.5 4.6 1.5-4.5h1.1l-2.3 6.3c-0.5 1.3-1.1 1.6-1.9 1.6-0.3 0-0.4 0-0.5 0z"/>
	<path id="Layer" fill-rule="evenodd" class="s6" d="m437.7 261.8l-0.1-0.7c-0.5 0.4-1.1 0.8-2.1 0.8-1 0-1.6-0.6-1.6-1.6 0-1.4 1.2-1.9 3.6-2.2v-0.2c0-0.8-0.5-1-1.1-1-0.7 0-1.4 0.2-2 0.5l-0.1-0.9c0.6-0.3 1.3-0.5 2.2-0.5 1.4 0 2 0.5 2 1.8v4zm-0.2-2.9c-2.1 0.2-2.5 0.8-2.5 1.4 0 0.5 0.3 0.8 0.8 0.8 0.7 0 1.3-0.4 1.7-0.8z"/>
	<path id="Layer" class="s6" d="m442.1 261.9c-1 0-1.6-0.3-1.6-1.5v-3.4h-0.9v-0.9h0.9v-1.9l1-0.2v2.1h1.2l0.2 0.9h-1.4v3.2c0 0.5 0.2 0.8 0.8 0.8q0.3 0 0.5-0.1l0.1 0.9q-0.2 0.1-0.8 0.1z"/>
	<path id="Layer" fill-rule="evenodd" class="s6" d="m447.5 261c1.7-0.3 3.1-1.2 3.5-2.8-0.6 0.3-1.2 0.6-2 0.6-1.6 0-2.5-1-2.5-2.6 0-1.5 1.2-2.6 2.8-2.6 1.7 0 2.9 1.1 2.9 3.4 0 2.8-1.9 4.4-4.5 5zm3.6-3.9v-0.1c0-1.5-0.7-2.5-1.9-2.5-1 0-1.7 0.6-1.7 1.7 0 1 0.5 1.6 1.7 1.6 0.7 0 1.3-0.3 1.9-0.7z"/>
	<path id="Layer" class="s6" d="m453.6 257.5v-1.4h1.2v1.4zm0 4.3v-1.4h1.2v1.4z"/>
	<path id="Layer" class="s6" d="m456.2 261l3-3.1c0.7-0.8 1-1.3 1-2 0-0.9-0.5-1.3-1.5-1.3-0.8 0-1.5 0.3-2.2 0.9l-0.1-1c0.6-0.5 1.4-0.9 2.4-0.9 1.6 0 2.5 0.9 2.5 2.2 0 1-0.4 1.7-1.4 2.7l-2.3 2.4h3.7l0.2 0.9h-5.3z"/>
	<path id="Layer" class="s6" d="m462.5 261l3-3.1c0.7-0.8 1-1.3 1-2 0-0.9-0.5-1.3-1.4-1.3-0.9 0-1.6 0.3-2.3 0.9l-0.1-1c0.6-0.5 1.4-0.9 2.4-0.9 1.6 0 2.5 0.9 2.5 2.2 0 1-0.4 1.7-1.4 2.7l-2.3 2.4h3.7l0.2 0.9h-5.3z"/>
	<path id="Layer" fill-rule="evenodd" class="s6" d="m476.8 259.3h-3.4l-0.9 2.5h-1.2l3.3-8.3h1.1l3.2 8.2-1.1 0.2zm-3-1h2.6l-1.3-3.5z"/>
	<path id="Layer" class="s6" d="m488.2 261.8l-0.5-6.7-2.6 6.8h-0.9l-2.6-6.8-0.5 6.7h-1.1l0.7-8.3h1.4l2.6 6.8 2.5-6.8h1.4l0.7 8.3z"/>
	<path id="Layer" class="s7" d="m358.4 283.2c-1 0-2.1-0.4-2.7-0.8l0.2-1.3c0.7 0.5 1.6 0.9 2.7 0.9 0.9 0 1.5-0.4 1.5-1 0-0.7-0.4-1-1.8-1.3-1.8-0.5-2.5-1-2.5-2.4 0-1.2 1-2.1 2.7-2.1 0.9 0 1.8 0.2 2.5 0.5l-0.2 1.4c-0.7-0.4-1.6-0.7-2.4-0.7-0.8 0-1.3 0.3-1.3 0.9 0 0.5 0.4 0.8 1.6 1.1 1.9 0.5 2.7 1 2.7 2.5 0 1.4-1 2.3-3 2.3z"/>
	<path id="Layer" fill-rule="evenodd" class="s7" d="m366.3 283.2c-2 0-3.5-1.2-3.5-4 0-2.5 1.4-4 3.3-4 2.3 0 3.3 1.7 3.3 3.8v0.3h-5.2c0.1 1.8 0.9 2.6 2.2 2.6 1.1 0 1.9-0.4 2.7-1l0.3 1.2c-0.9 0.7-1.8 1.1-3.1 1.1zm-2-4.9h3.6c-0.1-1.3-0.7-2-1.8-2-0.9 0-1.6 0.7-1.8 2z"/>
	<path id="Layer" class="s7" d="m376 283v-5.2c0-0.8-0.4-1.3-1.2-1.3-0.7 0-1.5 0.5-2.2 1.2v5.3h-1.4v-7.6h1.1l0.2 1.1c0.7-0.7 1.6-1.3 2.7-1.3 1.4 0 2.2 0.9 2.2 2.2v5.6z"/>
	<path id="Layer" fill-rule="evenodd" class="s7" d="m382.6 275.3c0.8 0 1.5 0.1 2 0.3v-3.9l1.4-0.3v11.6h-1.1l-0.2-1.1c-0.6 0.7-1.4 1.3-2.5 1.3-1.7 0-3-1.2-3-3.8 0-2.8 1.6-4.1 3.4-4.1zm-0.2 6.6c0.9 0 1.6-0.5 2.2-1.3v-3.7c-0.6-0.3-1.1-0.4-1.9-0.4-1.2 0-2.1 0.9-2.1 2.8 0 1.7 0.8 2.6 1.8 2.6z"/>
	<path id="Layer" fill-rule="evenodd" class="s7" d="m395.1 283.1c-0.8 0-1.5-0.1-1.9-0.3v3l-1.5 0.2v-10.6h1.2l0.2 1.1c0.5-0.7 1.3-1.3 2.4-1.3 1.7 0 3 1.2 3 3.8 0 2.8-1.6 4.1-3.4 4.1zm0.2-6.6c-0.9 0-1.5 0.5-2.1 1.3v3.7c0.5 0.3 1 0.4 1.8 0.4 1.2 0 2.1-1 2.1-2.9 0-1.6-0.7-2.5-1.8-2.5z"/>
	<path id="Layer" class="s7" d="m400.5 283v-11.3l1.4-0.3v11.6z"/>
	<path id="Layer" fill-rule="evenodd" class="s7" d="m407.3 283.2c-1.9 0-3.5-1.2-3.5-4 0-2.5 1.5-4 3.4-4 2.2 0 3.2 1.7 3.2 3.8v0.3h-5.2c0.1 1.8 0.9 2.6 2.3 2.6 1.1 0 1.9-0.4 2.7-1l0.2 1.2c-0.8 0.7-1.8 1.1-3.1 1.1zm-2-4.9h3.7c-0.2-1.3-0.7-2-1.8-2-0.9 0-1.7 0.7-1.9 2z"/>
	<path id="Layer" fill-rule="evenodd" class="s7" d="m416.9 283l-0.2-1c-0.6 0.6-1.4 1.2-2.7 1.2-1.4 0-2.2-0.9-2.2-2.2 0-1.9 1.6-2.6 4.8-3v-0.3c0-0.9-0.6-1.3-1.5-1.3-0.9 0-1.8 0.3-2.6 0.7l-0.2-1.3c0.9-0.3 1.8-0.6 3-0.6 1.8 0 2.7 0.8 2.7 2.5v5.3zm-0.3-3.9c-2.8 0.3-3.4 1.1-3.4 1.9 0 0.6 0.4 1 1.2 1 0.8 0 1.6-0.4 2.2-1.1z"/>
	<path id="Layer" class="s7" d="m422.5 283.2c-1 0-2.1-0.4-2.8-0.8l0.3-1.3c0.7 0.5 1.6 0.9 2.6 0.9 1 0 1.6-0.4 1.6-1 0-0.7-0.4-1-1.8-1.3-1.8-0.5-2.5-1-2.5-2.4 0-1.2 1-2.1 2.7-2.1 0.9 0 1.8 0.2 2.5 0.5l-0.2 1.4c-0.7-0.4-1.6-0.7-2.4-0.7-0.8 0-1.3 0.3-1.3 0.9 0 0.5 0.4 0.8 1.6 1.1 1.9 0.5 2.7 1 2.7 2.5 0 1.4-1 2.3-3 2.3z"/>
	<path id="Layer" fill-rule="evenodd" class="s7" d="m430.4 283.2c-2 0-3.5-1.2-3.5-4 0-2.5 1.4-4 3.3-4 2.2 0 3.3 1.7 3.3 3.8v0.3h-5.2c0 1.8 0.9 2.6 2.2 2.6 1.1 0 1.9-0.4 2.7-1l0.3 1.2c-0.9 0.7-1.8 1.1-3.1 1.1zm-2.1-4.9h3.7c-0.1-1.3-0.7-2-1.8-2-0.9 0-1.6 0.7-1.9 2z"/>
	<path id="Layer" class="s10" d="m361.2 205.3c-3.2 0-5.2-2.2-5.2-5.7 0-3.4 2.1-5.7 5.3-5.7 1.2 0 2.2 0.3 3 0.8l-0.3 2c-0.7-0.5-1.6-1-2.6-1-2 0-3.2 1.5-3.2 3.9 0 2.4 1.2 3.9 3.2 3.9 1 0 1.9-0.4 2.8-1l0.3 1.9c-0.9 0.5-2 0.9-3.3 0.9z"/>
	<path id="Layer" fill-rule="evenodd" class="s10" d="m370.6 205.1l-0.2-1c-0.6 0.7-1.4 1.2-2.5 1.2-1.4 0-2.2-0.8-2.2-2.2 0-1.8 1.5-2.6 4.6-2.9v-0.3c0-0.8-0.5-1.1-1.3-1.1-0.9 0-1.8 0.2-2.6 0.6l-0.2-1.5c0.9-0.4 1.8-0.7 3-0.7 2 0 3 0.8 3 2.6v5.3zm-0.2-3.8c-2.3 0.2-2.8 0.9-2.8 1.6 0 0.6 0.4 0.9 1 0.9 0.6 0 1.2-0.3 1.8-0.8z"/>
	<path id="Layer" fill-rule="evenodd" class="s10" d="m377.9 205.2c-0.8 0-1.4-0.1-1.8-0.3v2.9l-2 0.3v-10.7h1.7l0.1 1.1c0.6-0.7 1.3-1.3 2.4-1.3 1.6 0 2.9 1.3 2.9 3.8 0 2.9-1.6 4.2-3.3 4.2zm-0.1-6.3c-0.7 0-1.2 0.5-1.7 1.1v3.3c0.4 0.3 0.8 0.4 1.4 0.4 1 0 1.8-0.8 1.8-2.5 0-1.5-0.6-2.3-1.5-2.3z"/>
	<path id="Layer" class="s6" d="m389 198.7v7.2h-1.1v-7.2h-2.7v-1.1h6.3l0.2 1.1z"/>
	<path id="Layer" fill-rule="evenodd" class="s6" d="m393.8 206c-1.5 0-2.6-1.1-2.6-2.9 0-1.9 1.1-3 2.6-3 1.5 0 2.7 1.1 2.7 3 0 1.8-1.2 2.9-2.7 2.9zm0-5c-1 0-1.6 0.9-1.6 2.1 0 1.1 0.6 2.1 1.6 2.1 1 0 1.6-0.9 1.6-2.1 0-1.2-0.6-2.1-1.6-2.1z"/>
	<path id="Layer" fill-rule="evenodd" class="s6" d="m400.1 200.1c0.5 0 1.1 0.1 1.4 0.3v-3l1.1-0.1v8.6h-0.9l-0.1-0.8c-0.4 0.5-1 0.9-1.9 0.9-1.2 0-2.2-0.9-2.2-2.8 0-2.1 1.2-3.1 2.6-3.1zm-0.2 5c0.7 0 1.2-0.4 1.6-1v-2.8c-0.4-0.2-0.8-0.3-1.4-0.3-0.9 0-1.5 0.8-1.5 2.2 0 1.2 0.5 1.9 1.3 1.9z"/>
	<path id="Layer" fill-rule="evenodd" class="s6" d="m407.7 205.9l-0.1-0.7c-0.4 0.4-1.1 0.8-2 0.8-1 0-1.7-0.6-1.7-1.6 0-1.4 1.2-1.9 3.6-2.2v-0.2c0-0.8-0.4-1-1.1-1-0.7 0-1.3 0.2-1.9 0.5l-0.2-0.9c0.7-0.3 1.3-0.5 2.2-0.5 1.4 0 2.1 0.5 2.1 1.8v4zm-0.2-2.9c-2.1 0.2-2.6 0.8-2.6 1.4 0 0.5 0.4 0.8 0.9 0.8 0.6 0 1.2-0.4 1.7-0.9z"/>
	<path id="Layer" class="s6" d="m410.1 208.1l-0.2-1c0.2 0 0.4 0.1 0.6 0.1 0.5 0 0.8-0.3 1-0.9l0.2-0.4-2.1-5.6 1.1-0.2 1.5 4.5 1.5-4.4h1.1l-2.3 6.3c-0.5 1.3-1.1 1.6-1.9 1.6-0.3 0-0.4 0-0.5 0z"/>
	<path id="Layer" fill-rule="evenodd" class="s6" d="m422.1 205.9l-0.2-0.7c-0.4 0.4-1 0.8-2 0.8-1 0-1.7-0.6-1.7-1.6 0-1.4 1.3-1.9 3.7-2.2v-0.2c0-0.8-0.5-1-1.1-1-0.7 0-1.4 0.2-2 0.5l-0.2-0.9c0.7-0.3 1.4-0.5 2.3-0.5 1.3 0 2 0.5 2 1.8v4zm-0.2-2.9c-2.1 0.2-2.5 0.8-2.5 1.4 0 0.5 0.3 0.8 0.8 0.8 0.6 0 1.2-0.4 1.7-0.9z"/>
	<path id="Layer" class="s6" d="m426.5 206c-1 0-1.6-0.3-1.6-1.5v-3.4h-0.9v-0.9h0.9v-1.9l1-0.2v2.1h1.2l0.2 0.9h-1.4v3.2c0 0.5 0.2 0.8 0.8 0.8q0.3 0 0.5-0.1l0.1 0.9q-0.2 0.1-0.8 0.1z"/>
	<path id="Layer" fill-rule="evenodd" class="s6" d="m431.9 205.1c1.7-0.3 3.1-1.2 3.5-2.8-0.6 0.3-1.2 0.6-2 0.6-1.6 0-2.5-1-2.5-2.6 0-1.5 1.1-2.6 2.8-2.6 1.7 0 2.9 1.1 2.9 3.4 0 2.8-1.9 4.4-4.5 5zm3.6-3.9v-0.1c0-1.5-0.8-2.5-1.9-2.5-1 0-1.7 0.6-1.7 1.7 0 1 0.5 1.6 1.7 1.6 0.7 0 1.3-0.3 1.9-0.7z"/>
	<path id="Layer" class="s6" d="m438 201.6v-1.4h1.2v1.4zm0 4.3v-1.4h1.2v1.4z"/>
	<path id="Layer" class="s6" d="m442.1 205.9v-7l-1.7 0.6-0.1-0.8 1.9-0.9h1v8.1z"/>
	<path id="Layer" fill-rule="evenodd" class="s6" d="m445.8 205.1c1.7-0.3 3.1-1.2 3.5-2.8-0.6 0.3-1.2 0.6-2 0.6-1.6 0-2.5-1-2.5-2.6 0-1.5 1.1-2.6 2.8-2.6 1.7 0 2.9 1.1 2.9 3.4 0 2.8-1.9 4.4-4.5 5zm3.6-3.9v-0.1c0-1.5-0.8-2.5-1.9-2.5-1 0-1.7 0.6-1.7 1.7 0 1 0.5 1.6 1.7 1.6 0.7 0 1.3-0.3 1.9-0.7z"/>
	<path id="Layer" fill-rule="evenodd" class="s6" d="m459.5 203.4h-3.3l-1 2.5h-1.1l3.2-8.3h1.1l3.2 8.2-1.1 0.2zm-3-1h2.6l-1.3-3.5z"/>
	<path id="Layer" class="s6" d="m470.9 205.9l-0.5-6.7-2.6 6.8h-0.9l-2.6-6.8-0.5 6.7h-1l0.6-8.3h1.4l2.6 6.8 2.6-6.8h1.4l0.6 8.3z"/>
	<path id="Layer" class="s7" d="m356.4 227v-11h1.5v11z"/>
	<path id="Layer" class="s7" d="m368.8 227v-5.2c0-0.8-0.3-1.3-1.2-1.3-0.7 0-1.5 0.5-2.2 1.2v5.3h-1.4v-7.6h1.1l0.2 1.1c0.7-0.7 1.6-1.3 2.7-1.3 1.5 0 2.2 0.9 2.2 2.2v5.6z"/>
	<path id="Layer" fill-rule="evenodd" class="s7" d="m375.5 227.2c-1.9 0-3.5-1.2-3.5-4 0-2.5 1.4-4 3.4-4 2.2 0 3.2 1.7 3.2 3.8v0.3h-5.2c0.1 1.8 0.9 2.6 2.2 2.6 1.2 0 2-0.4 2.8-1l0.2 1.2c-0.8 0.7-1.8 1.1-3.1 1.1zm-2-4.9h3.7c-0.2-1.3-0.8-2-1.9-2-0.8 0-1.6 0.7-1.8 2z"/>
	<path id="Layer" fill-rule="evenodd" class="s7" d="m383.5 227.2c-2 0-3.5-1.2-3.5-4 0-2.5 1.4-4 3.3-4 2.3 0 3.3 1.7 3.3 3.8v0.3h-5.2c0.1 1.8 0.9 2.6 2.2 2.6 1.1 0 1.9-0.4 2.8-1l0.2 1.2c-0.8 0.7-1.8 1.1-3.1 1.1zm-2-4.9h3.7c-0.2-1.3-0.8-2-1.9-2-0.9 0-1.6 0.7-1.8 2z"/>
	<path id="Layer" fill-rule="evenodd" class="s7" d="m391.4 219.3c0.8 0 1.5 0.1 1.9 0.3v-3.9l1.5-0.3v11.6h-1.2l-0.1-1.1c-0.6 0.7-1.4 1.3-2.5 1.3-1.7 0-3-1.2-3-3.8 0-2.8 1.6-4.1 3.4-4.1zm-0.2 6.6c0.9 0 1.5-0.5 2.1-1.3v-3.7c-0.5-0.3-1-0.4-1.8-0.4-1.2 0-2.1 0.9-2.1 2.8 0 1.7 0.8 2.6 1.8 2.6z"/>
	<path id="Layer" class="s7" d="m403.1 227.1c-1.3 0-2.2-0.5-2.2-2v-4.5h-1.2v-1.2h1.2v-2.6l1.4-0.2v2.8h1.6l0.2 1.2h-1.8v4.3c0 0.6 0.2 1 1 1q0.4 0 0.7-0.1l0.2 1.2c-0.3 0.1-0.6 0.1-1.1 0.1z"/>
	<path id="Layer" class="s7" d="m410.7 227v-5.2c0-0.8-0.3-1.3-1.2-1.3-0.7 0-1.5 0.5-2.2 1.2v5.3h-1.4v-11.3l1.4-0.3v5c0.7-0.6 1.5-1.2 2.6-1.2 1.5 0 2.2 0.9 2.2 2.2v5.6z"/>
	<path id="Layer" fill-rule="evenodd" class="s7" d="m417.5 227.2c-2 0-3.6-1.2-3.6-4 0-2.5 1.5-4 3.4-4 2.2 0 3.2 1.7 3.2 3.8v0.3h-5.2c0.1 1.8 0.9 2.6 2.3 2.6 1.1 0 1.9-0.4 2.7-1l0.2 1.2c-0.8 0.7-1.8 1.1-3 1.1zm-2.1-4.9h3.7c-0.2-1.3-0.7-2-1.8-2-0.9 0-1.7 0.7-1.9 2z"/>
	<path id="Layer" class="s7" d="m431.7 227v-5.2c0-0.8-0.2-1.3-1.1-1.3-0.7 0-1.4 0.5-2.1 1.2v5.3h-1.5v-5.2c0-0.8-0.2-1.3-1.1-1.3-0.7 0-1.4 0.5-2.1 1.2v5.3h-1.5v-7.6h1.2l0.2 1.1c0.7-0.7 1.5-1.3 2.6-1.3 1.1 0 1.7 0.5 2 1.3 0.7-0.7 1.6-1.3 2.7-1.3 1.5 0 2.2 0.9 2.2 2.2v5.6z"/>
	<path id="Layer" class="s7" d="m441.5 227.1c-1.4 0-2.2-0.5-2.2-2v-4.5h-1.2v-1.2h1.2v-2.6l1.4-0.2v2.8h1.6l0.2 1.2h-1.8v4.3c0 0.6 0.2 1 1 1q0.4 0 0.7-0.1l0.2 1.2c-0.3 0.1-0.6 0.1-1.1 0.1z"/>
	<path id="Layer" fill-rule="evenodd" class="s7" d="m447.3 227.2c-2 0-3.5-1.5-3.5-4 0-2.5 1.5-4 3.5-4 2 0 3.6 1.5 3.6 4 0 2.5-1.6 4-3.6 4zm0-6.8c-1.4 0-2.1 1.2-2.1 2.8 0 1.6 0.8 2.8 2.1 2.8 1.4 0 2.1-1.2 2.1-2.8 0-1.6-0.7-2.8-2.1-2.8z"/>
	<path id="Layer" fill-rule="evenodd" class="s7" d="m455.7 227.2c-2 0-3.5-1.5-3.5-4 0-2.5 1.5-4 3.5-4 2.1 0 3.6 1.5 3.6 4 0 2.5-1.5 4-3.6 4zm0-6.8c-1.3 0-2 1.2-2 2.8 0 1.6 0.7 2.8 2 2.8 1.4 0 2.2-1.2 2.2-2.8 0-1.6-0.8-2.8-2.2-2.8z"/>
	<path id="Layer" class="s7" d="m462.6 223.5l-0.9 0.2-0.4-7.7h1.7zm-1.2 3.4v-1.9h1.6v1.9z"/>
	<path id="Layer" class="s11" d="m361.5 129.5c-3.5 0-5.4-2.3-5.4-5.7 0-3.4 2-5.7 5.4-5.7 1.4 0 2.4 0.3 3.3 0.9l-0.3 1.9c-0.8-0.6-1.8-1-3-1-2.2 0-3.3 1.5-3.3 3.9 0 2.4 1.2 3.9 3.4 3.9 0.8 0 1.3-0.1 1.8-0.4v-2.5h-2.2l-0.3-1.7h4.5v5.3c-1.1 0.7-2.4 1.1-3.9 1.1z"/>
	<path id="Layer" class="s11" d="m369.3 124.9v4.4h-2v-7.7h1.7l0.2 1.5c0.5-0.9 1.3-1.6 2.5-1.7l0.3 1.9c-1.2 0.1-2.2 0.8-2.7 1.6z"/>
	<path id="Layer" fill-rule="evenodd" class="s11" d="m377.4 129.3l-0.1-1c-0.6 0.7-1.4 1.2-2.6 1.2-1.3 0-2.2-0.8-2.2-2.2 0-1.8 1.5-2.7 4.7-3v-0.2c0-0.8-0.5-1.1-1.4-1.1-0.9 0-1.7 0.2-2.5 0.6l-0.3-1.5c0.9-0.4 1.9-0.7 3.1-0.7 2 0 3 0.8 3 2.6v5.3zm-0.3-3.8c-2.2 0.2-2.7 0.9-2.7 1.6 0 0.6 0.3 0.9 0.9 0.9 0.7 0 1.3-0.3 1.8-0.8z"/>
	<path id="Layer" fill-rule="evenodd" class="s11" d="m383.9 132.2c-2.1 0-3.7-0.6-3.7-1.9 0-0.7 0.5-1.3 1.4-1.8q-0.4-0.4-0.4-0.8 0-0.7 1-1.3c-1-0.4-1.5-1.2-1.5-2.2 0-1.7 1.4-2.8 3.1-2.8q1.4 0 2.2 0.8l1.9-0.7 0.2 1.5-1.4 0.1q0.2 0.5 0.2 1c0 1.7-1.4 2.7-3 2.7q-0.4 0-0.7-0.1c-0.2 0.2-0.3 0.3-0.3 0.4 0 0.3 0.2 0.4 1.5 0.5l0.9 0.1c1.6 0.3 2.6 0.8 2.6 1.9 0 1.7-1.8 2.6-4 2.6zm-0.1-9.5c-0.8 0-1.3 0.6-1.3 1.5 0 0.8 0.5 1.4 1.3 1.4 0.9 0 1.4-0.6 1.4-1.5 0-0.8-0.6-1.4-1.4-1.4zm2.3 7.4c0-0.5-0.3-0.7-1.3-0.8l-1-0.2c-0.5 0-0.8-0.1-1.1-0.2-0.6 0.4-0.9 0.8-0.9 1.2 0 0.6 0.7 1 2.2 1 1.4 0 2.1-0.5 2.1-1z"/>
	<path id="Layer" fill-rule="evenodd" class="s11" d="m392.2 132.2c-2.1 0-3.7-0.6-3.7-1.9 0-0.7 0.5-1.3 1.4-1.8q-0.4-0.4-0.4-0.8 0-0.7 1-1.3c-1-0.4-1.5-1.2-1.5-2.2 0-1.7 1.4-2.8 3.1-2.8q1.4 0 2.2 0.8l1.9-0.7 0.2 1.5-1.4 0.1q0.2 0.5 0.2 1c0 1.7-1.4 2.7-3 2.7q-0.4 0-0.7-0.1c-0.2 0.2-0.3 0.3-0.3 0.4 0 0.3 0.2 0.4 1.4 0.5l1 0.1c1.6 0.3 2.6 0.8 2.6 1.9 0 1.7-1.8 2.6-4 2.6zm-0.1-9.5c-0.8 0-1.3 0.6-1.3 1.5 0 0.8 0.5 1.4 1.3 1.4 0.9 0 1.4-0.6 1.4-1.5 0-0.8-0.6-1.4-1.4-1.4zm2.3 7.4c0-0.5-0.3-0.7-1.3-0.8l-1-0.2c-0.5 0-0.8-0.1-1.1-0.2-0.6 0.4-0.9 0.8-0.9 1.2 0 0.6 0.7 1 2.2 1 1.4 0 2.1-0.5 2.1-1z"/>
	<path id="Layer" class="s11" d="m397.7 129.3v-11.2l1.9-0.3v11.5z"/>
	<path id="Layer" fill-rule="evenodd" class="s11" d="m405 129.5c-2.2 0-3.8-1.3-3.8-4 0-2.5 1.5-4.1 3.5-4.1 2.4 0 3.4 1.8 3.4 4 0 0.1 0 0.3 0 0.4h-5c0.1 1.5 0.9 2.2 2.1 2.2 1 0 1.8-0.4 2.7-1l0.2 1.5c-0.9 0.6-1.9 1-3.1 1zm-1.9-4.9h3.1c-0.1-1.2-0.6-1.8-1.5-1.8-0.8 0-1.4 0.6-1.6 1.8z"/>
	<path id="Layer" class="s6" d="m415.9 122.8v7.2h-1.2v-7.2h-2.6v-1h6.3l0.2 1z"/>
	<path id="Layer" fill-rule="evenodd" class="s6" d="m420.7 130.2c-1.6 0-2.7-1.1-2.7-3 0-1.9 1.1-3 2.7-3 1.5 0 2.6 1.1 2.6 3 0 1.9-1.1 3-2.6 3zm0-5.1c-1.1 0-1.6 0.9-1.6 2.1 0 1.2 0.5 2.1 1.6 2.1 1 0 1.5-0.9 1.5-2.1 0-1.2-0.5-2.1-1.5-2.1z"/>
	<path id="Layer" fill-rule="evenodd" class="s6" d="m426.9 124.3c0.6 0 1.1 0.1 1.5 0.2v-2.9l1.1-0.2v8.6h-0.9l-0.1-0.8c-0.5 0.5-1 1-1.9 1-1.2 0-2.2-0.9-2.2-2.9 0-2 1.2-3 2.5-3zm-0.1 4.9c0.6 0 1.1-0.4 1.6-1v-2.7c-0.5-0.3-0.8-0.3-1.4-0.3-0.9 0-1.6 0.7-1.6 2.1 0 1.3 0.6 1.9 1.4 1.9z"/>
	<path id="Layer" fill-rule="evenodd" class="s6" d="m434.6 130l-0.1-0.7c-0.5 0.4-1.1 0.9-2 0.9-1.1 0-1.7-0.7-1.7-1.6 0-1.5 1.2-2 3.6-2.3v-0.2c0-0.7-0.4-1-1.1-1-0.7 0-1.3 0.2-2 0.5l-0.1-0.9c0.7-0.3 1.3-0.5 2.2-0.5 1.4 0 2.1 0.6 2.1 1.8v4zm-0.2-2.9c-2.1 0.2-2.6 0.8-2.6 1.4 0 0.5 0.3 0.8 0.9 0.8 0.6 0 1.2-0.3 1.7-0.8z"/>
	<path id="Layer" class="s6" d="m437 132.2l-0.2-1c0.2 0.1 0.4 0.1 0.6 0.1 0.5 0 0.8-0.2 1-0.8l0.2-0.4-2.1-5.7 1-0.2 1.6 4.6 1.5-4.5h1.1l-2.3 6.3c-0.5 1.3-1.1 1.6-2 1.6-0.2 0-0.3 0-0.4 0z"/>
	<path id="Layer" fill-rule="evenodd" class="s6" d="m448.9 130l-0.1-0.7c-0.5 0.4-1.1 0.9-2 0.9-1 0-1.7-0.7-1.7-1.6 0-1.5 1.2-2 3.6-2.3v-0.2c0-0.7-0.4-1-1.1-1-0.7 0-1.3 0.2-2 0.5l-0.1-0.9c0.7-0.3 1.3-0.5 2.2-0.5 1.4 0 2.1 0.6 2.1 1.8v4zm-0.2-2.9c-2.1 0.2-2.6 0.8-2.6 1.4 0 0.5 0.3 0.8 0.9 0.8 0.6 0 1.2-0.3 1.7-0.8z"/>
	<path id="Layer" class="s6" d="m453.4 130.1c-1 0-1.7-0.3-1.7-1.5v-3.4h-0.8v-0.9h0.8v-1.9l1.1-0.1v2h1.2l0.1 0.9h-1.3v3.2c0 0.5 0.2 0.8 0.8 0.8q0.2 0 0.4 0l0.2 0.9q-0.3 0-0.8 0z"/>
	<path id="Layer" fill-rule="evenodd" class="s6" d="m458.8 129.2c1.7-0.3 3.1-1.1 3.5-2.8-0.6 0.4-1.3 0.6-2 0.6-1.6 0-2.6-1-2.6-2.5 0-1.6 1.2-2.7 2.8-2.7 1.7 0 3 1.2 3 3.4 0 2.8-1.9 4.4-4.5 5zm3.6-3.9v-0.1c0-1.5-0.8-2.5-1.9-2.5-1.1 0-1.7 0.6-1.7 1.7 0 1 0.5 1.6 1.6 1.6 0.8 0 1.4-0.2 2-0.7z"/>
	<path id="Layer" class="s6" d="m464.9 125.8v-1.5h1.2v1.5zm0 4.2v-1.4h1.2v1.4z"/>
	<path id="Layer" class="s6" d="m469 130v-7l-1.7 0.7-0.1-0.9 1.9-0.9h0.9v8.1z"/>
	<path id="Layer" fill-rule="evenodd" class="s6" d="m471.7 128c0-1 0.7-1.7 1.7-2.2-1-0.5-1.4-1.1-1.4-2 0-1.2 1.1-2 2.6-2 1.6 0 2.6 0.8 2.6 2 0 0.9-0.6 1.5-1.4 2 1 0.5 1.7 1.1 1.7 2.2 0 1.2-1.1 2.2-2.9 2.2-1.9 0-2.9-1-2.9-2.2zm3.2-2.6c0.7-0.4 1.2-0.9 1.2-1.5 0-0.7-0.5-1.2-1.5-1.2-0.9 0-1.5 0.5-1.5 1.1 0 0.7 0.5 1.1 1.8 1.6zm1.5 2.6c0-0.9-0.5-1.3-2.1-1.8-0.9 0.4-1.5 1-1.5 1.7 0 0.8 0.7 1.4 1.8 1.4 1.1 0 1.8-0.6 1.8-1.3z"/>
	<path id="Layer" fill-rule="evenodd" class="s6" d="m486.5 127.6h-3.4l-0.9 2.4h-1.2l3.2-8.3h1.2l3.1 8.2-1.1 0.2zm-3-1h2.7l-1.4-3.5z"/>
	<path id="Layer" class="s6" d="m497.8 130l-0.5-6.6-2.6 6.7h-0.9l-2.6-6.7-0.5 6.6h-1l0.6-8.2h1.4l2.6 6.8 2.6-6.8h1.4l0.6 8.2z"/>
	<path id="Layer" class="s7" d="m367.4 151h-1.3l-3-8.9-3 8.9h-1.2l-3.3-10.8 1.5-0.4 2.5 8.8 2.8-8.6h1.5l2.8 8.6 2.4-8.6h1.6z"/>
	<path id="Layer" class="s7" d="m377.2 151v-5.2c0-0.8-0.3-1.3-1.2-1.3-0.7 0-1.5 0.5-2.2 1.2v5.3h-1.4v-11.3l1.4-0.3v5c0.6-0.6 1.5-1.2 2.6-1.2 1.4 0 2.2 0.9 2.2 2.2v5.6z"/>
	<path id="Layer" fill-rule="evenodd" class="s7" d="m383.9 151.2c-2 0-3.5-1.5-3.5-4 0-2.5 1.5-4 3.5-4 2 0 3.5 1.5 3.5 4 0 2.5-1.5 4-3.5 4zm0-6.8c-1.4 0-2.1 1.2-2.1 2.8 0 1.6 0.8 2.8 2.1 2.8 1.4 0 2.1-1.2 2.1-2.8 0-1.6-0.7-2.8-2.1-2.8z"/>
	<path id="Layer" class="s7" d="m389.6 143.7l-0.8-0.2 0.5-3.5h1.6z"/>
	<path id="Layer" class="s7" d="m394.6 151.2c-1 0-2.2-0.4-2.8-0.8l0.2-1.3c0.7 0.5 1.6 0.9 2.7 0.9 1 0 1.5-0.4 1.5-1 0-0.7-0.4-1-1.8-1.3-1.8-0.5-2.5-1-2.5-2.4 0-1.2 1-2.1 2.7-2.1 0.9 0 1.8 0.2 2.5 0.5l-0.2 1.4c-0.7-0.4-1.5-0.7-2.3-0.7-0.9 0-1.3 0.3-1.3 0.9 0 0.5 0.3 0.8 1.5 1.1 1.9 0.5 2.8 1 2.8 2.5 0 1.4-1.1 2.3-3 2.3z"/>
	<path id="Layer" fill-rule="evenodd" class="s7" d="m405.6 153.9c-2 0-3.6-0.6-3.6-2 0-0.7 0.5-1.3 1.6-1.9q-0.5-0.4-0.5-0.8c0-0.4 0.3-0.8 0.8-1.1-0.8-0.4-1.4-1.2-1.4-2.2 0-1.7 1.4-2.7 2.9-2.7q1.2 0 2 0.6l1.9-0.5 0.2 1.2-1.4 0.2q0.3 0.5 0.3 1.2c0 1.6-1.4 2.6-2.9 2.6q-0.3 0-0.6-0.1c-0.2 0.2-0.4 0.4-0.4 0.5 0 0.3 0.3 0.3 1.6 0.6l0.6 0.1c1.6 0.3 2.6 0.8 2.6 2 0 1.6-1.8 2.3-3.7 2.3zm-0.2-9.7c-0.9 0-1.5 0.8-1.5 1.7 0 0.9 0.6 1.6 1.5 1.6 1 0 1.6-0.7 1.6-1.7 0-0.9-0.6-1.6-1.6-1.6zm2.5 7.5c0-0.4-0.3-0.7-1.4-0.9l-0.9-0.2c-0.4-0.1-0.6-0.1-1-0.2-0.8 0.5-1.2 0.9-1.2 1.4 0 0.6 0.7 1.1 2.2 1.1 1.5 0 2.3-0.5 2.3-1.2z"/>
	<path id="Layer" fill-rule="evenodd" class="s7" d="m413.8 151.2c-2 0-3.5-1.5-3.5-4 0-2.5 1.5-4 3.5-4 2.1 0 3.6 1.5 3.6 4 0 2.5-1.5 4-3.6 4zm0-6.8c-1.3 0-2 1.2-2 2.8 0 1.6 0.7 2.8 2 2.8 1.5 0 2.2-1.2 2.2-2.8 0-1.6-0.8-2.8-2.2-2.8z"/>
	<path id="Layer" class="s7" d="m421.8 151.1c-1.3 0-2.2-0.5-2.2-2v-4.5h-1.2v-1.2h1.2v-2.6l1.4-0.2v2.8h1.6l0.2 1.2h-1.8v4.3c0 0.6 0.2 1 1 1q0.4 0 0.7-0.1l0.2 1.2c-0.3 0.1-0.6 0.1-1.1 0.1z"/>
	<path id="Layer" class="s7" d="m432.9 151v-5.2c0-0.8-0.3-1.3-1.1-1.3-0.8 0-1.6 0.5-2.3 1.2v5.3h-1.4v-7.6h1.2l0.1 1.1c0.8-0.7 1.6-1.3 2.7-1.3 1.5 0 2.2 0.9 2.2 2.2v5.6z"/>
	<path id="Layer" fill-rule="evenodd" class="s7" d="m439.6 151.2c-2 0-3.5-1.5-3.5-4 0-2.5 1.5-4 3.5-4 2.1 0 3.6 1.5 3.6 4 0 2.5-1.5 4-3.6 4zm0-6.8c-1.3 0-2 1.2-2 2.8 0 1.6 0.7 2.8 2 2.8 1.4 0 2.1-1.2 2.1-2.8 0-1.6-0.7-2.8-2.1-2.8z"/>
	<path id="Layer" class="s7" d="m447.6 151.1c-1.4 0-2.2-0.5-2.2-2v-4.5h-1.2v-1.2h1.2v-2.6l1.4-0.2v2.8h1.6l0.2 1.2h-1.8v4.3c0 0.6 0.2 1 1 1q0.4 0 0.7-0.1l0.2 1.2c-0.3 0.1-0.6 0.1-1.1 0.1z"/>
	<path id="Layer" fill-rule="evenodd" class="s7" d="m453.4 151.2c-2 0-3.5-1.2-3.5-4 0-2.5 1.4-4 3.4-4 2.2 0 3.2 1.7 3.2 3.8v0.3h-5.2c0.1 1.8 0.9 2.6 2.2 2.6 1.1 0 1.9-0.4 2.8-1l0.2 1.2c-0.8 0.7-1.8 1.1-3.1 1.1zm-2-4.9h3.7c-0.2-1.3-0.8-2-1.9-2-0.8 0-1.6 0.7-1.8 2z"/>
	<path id="Layer" class="s7" d="m460.6 151.2c-1 0-2.1-0.4-2.8-0.8l0.3-1.3c0.7 0.5 1.6 0.9 2.6 0.9 1 0 1.6-0.4 1.6-1 0-0.7-0.4-1-1.8-1.3-1.8-0.5-2.5-1-2.5-2.4 0-1.2 1-2.1 2.7-2.1 0.9 0 1.8 0.2 2.5 0.5l-0.3 1.4c-0.6-0.4-1.5-0.7-2.3-0.7-0.8 0-1.3 0.3-1.3 0.9 0 0.5 0.4 0.8 1.6 1.1 1.9 0.5 2.7 1 2.7 2.5 0 1.4-1 2.3-3 2.3z"/>
	<path id="Layer" class="s7" d="m471.8 140.8c-0.7 0-1.1 0.3-1.1 1v1.6h1.6l0.1 1.2h-1.7v6.4h-1.4v-6.4h-1.1v-1.2h1.1v-1.8c0-1.5 1-2.1 2.4-2.1q0.3 0 0.6 0.1l0.2 1.3c-0.1-0.1-0.4-0.1-0.7-0.1z"/>
	<path id="Layer" class="s7" d="m475.3 146.5v4.5h-1.4v-7.6h1.1l0.2 1.5c0.6-0.8 1.5-1.6 2.7-1.7l0.2 1.4c-1.2 0-2.3 0.9-2.8 1.9z"/>
	<path id="Layer" fill-rule="evenodd" class="s7" d="m482.4 151.2c-2 0-3.5-1.5-3.5-4 0-2.5 1.5-4 3.5-4 2 0 3.5 1.5 3.5 4 0 2.5-1.5 4-3.5 4zm0-6.8c-1.4 0-2.1 1.2-2.1 2.8 0 1.6 0.8 2.8 2.1 2.8 1.4 0 2.1-1.2 2.1-2.8 0-1.6-0.7-2.8-2.1-2.8z"/>
	<path id="Layer" class="s7" d="m497.2 151v-5.2c0-0.8-0.3-1.3-1.2-1.3-0.7 0-1.4 0.5-2.1 1.2v5.3h-1.4v-5.2c0-0.8-0.3-1.3-1.2-1.3-0.7 0-1.4 0.5-2.1 1.2v5.3h-1.4v-7.6h1.1l0.2 1.1c0.7-0.7 1.6-1.3 2.6-1.3 1.1 0 1.8 0.5 2 1.3 0.7-0.7 1.7-1.3 2.7-1.3 1.5 0 2.2 0.9 2.2 2.2v5.6z"/>
	<path id="Layer" class="s7" d="m360.9 171v-5.2c0-0.8-0.3-1.3-1.1-1.3-0.8 0-1.6 0.5-2.3 1.2v5.3h-1.4v-11.3l1.4-0.3v5c0.7-0.6 1.5-1.2 2.6-1.2 1.5 0 2.2 0.9 2.2 2.2v5.6z"/>
	<path id="Layer" class="s7" d="m365.4 161.8c-0.5 0-0.9-0.4-0.9-0.9 0-0.5 0.4-0.9 0.9-0.9 0.5 0 0.9 0.4 0.9 0.9 0 0.5-0.4 0.9-0.9 0.9zm-0.7 9.2v-7.6h1.4v7.6z"/>
	<path id="Layer" class="s7" d="m370.8 171.2c-1 0-2.2-0.4-2.8-0.8l0.2-1.3c0.7 0.5 1.6 0.9 2.7 0.9 1 0 1.5-0.4 1.5-1 0-0.7-0.4-1-1.8-1.3-1.8-0.5-2.5-1-2.5-2.4 0-1.2 1-2.1 2.7-2.1 0.9 0 1.8 0.2 2.5 0.5l-0.2 1.4c-0.7-0.4-1.5-0.7-2.3-0.7-0.9 0-1.3 0.3-1.3 0.9 0 0.5 0.3 0.8 1.5 1.1 1.9 0.5 2.8 1 2.8 2.5 0 1.4-1.1 2.3-3 2.3z"/>
	<path id="Layer" class="s7" d="m378.1 171.1c-1.3 0-2.2-0.5-2.2-2v-4.5h-1.2v-1.2h1.2v-2.6l1.4-0.2v2.8h1.6l0.2 1.2h-1.8v4.3c0 0.6 0.2 1 1 1q0.4 0 0.7-0.1l0.2 1.2c-0.3 0.1-0.6 0.1-1.1 0.1z"/>
	<path id="Layer" fill-rule="evenodd" class="s7" d="m383.9 171.2c-2 0-3.5-1.5-3.5-4 0-2.5 1.5-4 3.5-4 2.1 0 3.6 1.5 3.6 4 0 2.5-1.5 4-3.6 4zm0-6.8c-1.3 0-2 1.2-2 2.8 0 1.6 0.7 2.8 2 2.8 1.4 0 2.1-1.2 2.1-2.8 0-1.6-0.7-2.8-2.1-2.8z"/>
	<path id="Layer" class="s7" d="m390.7 166.5v4.5h-1.4v-7.6h1.1l0.3 1.5c0.5-0.8 1.4-1.6 2.6-1.7l0.3 1.4c-1.3 0-2.4 0.9-2.9 1.9z"/>
	<path id="Layer" class="s7" d="m395 173.8l-0.2-1.2c0.2 0 0.5 0.1 0.7 0.1 0.6 0 1.1-0.3 1.4-1.2l0.2-0.5-2.8-7.5 1.4-0.2 2.1 6 2-5.9h1.5l-3.2 8.4c-0.6 1.7-1.4 2.1-2.5 2.1-0.3 0-0.5 0-0.6-0.1z"/>
	<path id="Layer" class="s7" d="m408.9 171.1c-1.4 0-2.3-0.5-2.3-2v-4.5h-1.1v-1.2h1.1v-2.6l1.4-0.2v2.8h1.7l0.2 1.2h-1.9v4.3c0 0.6 0.3 1 1.1 1q0.4 0 0.6-0.1l0.2 1.2c-0.2 0.1-0.5 0.1-1 0.1z"/>
	<path id="Layer" fill-rule="evenodd" class="s7" d="m414.7 171.2c-2.1 0-3.5-1.5-3.5-4 0-2.5 1.4-4 3.5-4 2 0 3.5 1.5 3.5 4 0 2.5-1.5 4-3.5 4zm0-6.8c-1.4 0-2.1 1.2-2.1 2.8 0 1.6 0.7 2.8 2.1 2.8 1.4 0 2.1-1.2 2.1-2.8 0-1.6-0.7-2.8-2.1-2.8z"/>
	<path id="Layer" fill-rule="evenodd" class="s7" d="m423.1 163.3c0.7 0 1.4 0.1 1.9 0.3v-3.9l1.4-0.3v11.6h-1.1l-0.2-1.1c-0.6 0.7-1.4 1.3-2.5 1.3-1.6 0-3-1.2-3-3.8 0-2.8 1.6-4.1 3.5-4.1zm-0.3 6.6c0.9 0 1.6-0.5 2.2-1.3v-3.7c-0.6-0.3-1.1-0.4-1.9-0.4-1.2 0-2.1 0.9-2.1 2.8 0 1.7 0.8 2.6 1.8 2.6z"/>
	<path id="Layer" fill-rule="evenodd" class="s7" d="m433.3 171l-0.2-1c-0.6 0.6-1.4 1.2-2.7 1.2-1.3 0-2.2-0.9-2.2-2.2 0-1.9 1.6-2.6 4.8-3v-0.3c0-0.9-0.6-1.3-1.5-1.3-0.9 0-1.8 0.3-2.6 0.7l-0.2-1.3c0.9-0.3 1.8-0.6 3-0.6 1.8 0 2.7 0.8 2.7 2.5v5.3zm-0.2-3.9c-2.9 0.3-3.5 1.1-3.5 1.9 0 0.6 0.5 1 1.2 1 0.8 0 1.6-0.4 2.3-1.1z"/>
	<path id="Layer" class="s7" d="m436.4 173.8l-0.2-1.2c0.3 0 0.6 0.1 0.8 0.1 0.6 0 1-0.3 1.4-1.2l0.1-0.5-2.7-7.5 1.4-0.2 2 6 2-5.9h1.5l-3.1 8.4c-0.6 1.7-1.4 2.1-2.6 2.1-0.3 0-0.4 0-0.6-0.1z"/>
	<path id="Layer" class="s7" d="m445.9 165.1l0.7-0.3c1.5-0.6 2.1-1.1 2.1-2.2 0-0.9-0.8-1.5-1.8-1.5-1.3 0-2.3 0.6-3.2 1.3l-0.2-1.5c1-0.7 2.1-1.1 3.5-1.1 1.9 0 3.2 1 3.2 2.8 0 1.7-1.1 2.5-3 3.3l-0.2 1.6-0.9 0.2zm-0.1 4h1.6v1.9h-1.6z"/>
	<path id="Layer" class="s0" d="m32 114c0-4.4 3.6-8 8-8h175c4.4 0 8 3.6 8 8v32c0 4.4-3.6 8-8 8h-175c-4.4 0-8-3.6-8-8z"/>
	<path id="Layer" fill-rule="evenodd" class="s1" d="m50.8 141.5c-0.3 0-0.6-0.3-0.5-0.6l0.7-4.1h-4.1c-0.3 0-0.5-0.2-0.5-0.6l0.3-1.3c0-0.2 0.2-0.4 0.5-0.4h4.2l1.2-7h-4c-0.3 0-0.6-0.3-0.5-0.6l0.2-1.3c0.1-0.3 0.3-0.4 0.5-0.4h4.3l0.7-4.3c0.1-0.2 0.3-0.4 0.5-0.4h1.3c0.3 0 0.6 0.3 0.5 0.6l-0.7 4.1h7l0.7-4.3c0.1-0.2 0.3-0.4 0.5-0.4h1.4c0.3 0 0.5 0.3 0.4 0.6l-0.7 4.1h4.1c0.3 0 0.5 0.2 0.5 0.6l-0.2 1.3c-0.1 0.2-0.3 0.4-0.5 0.4h-4.3l-1.2 7h4c0.4 0 0.6 0.3 0.5 0.6l-0.2 1.3c0 0.3-0.2 0.4-0.5 0.4h-4.2l-0.8 4.3c0 0.2-0.2 0.4-0.5 0.4h-1.3c-0.3 0-0.5-0.3-0.5-0.6l0.7-4.1h-7l-0.7 4.3c-0.1 0.2-0.3 0.4-0.5 0.4zm4.2-14l-1.2 7h7l1.2-7z"/>
	<path id="Layer" class="s2" d="m82.9 136.2c-1.5 0-3.1-0.5-4.1-1l0.3-2.2c1.2 0.7 2.6 1.2 3.9 1.2 1.2 0 1.8-0.4 1.8-1.1 0-0.7-0.5-1-2.2-1.5-2.6-0.6-3.6-1.4-3.6-3.3 0-1.8 1.4-3.1 3.9-3.1 1.4 0 2.6 0.2 3.7 0.7l-0.4 2.2c-1-0.6-2.3-1-3.3-1-1 0-1.5 0.4-1.5 1 0 0.6 0.4 0.9 2 1.3 2.7 0.7 3.8 1.5 3.8 3.5 0 2.1-1.5 3.3-4.3 3.3z"/>
	<path id="Layer" class="s2" d="m93.3 136.2c-2.1 0-3.5-0.8-3.5-3.2v-5.5h-1.5v-2.1h1.5v-3.4l2.6-0.4v3.8h2.2l0.3 2.1h-2.5v5c0 0.9 0.4 1.4 1.4 1.4q0.5 0 0.9-0.1l0.3 2.2c-0.4 0.1-0.9 0.2-1.7 0.2z"/>
	<path id="Layer" class="s2" d="m99.6 125.4v6.9c0 0.9 0.4 1.6 1.3 1.6 0.8 0 1.7-0.6 2.4-1.4v-7.1h2.7v10.6h-2.3l-0.2-1.5c-1 0.9-2.1 1.7-3.5 1.7-2.1 0-3.1-1.2-3.1-3.2v-7.6z"/>
	<path id="Layer" fill-rule="evenodd" class="s2" d="m112.8 125.3c1 0 1.8 0.1 2.4 0.4v-5.2l2.7-0.4v15.9h-2.3l-0.2-1.5c-0.7 0.9-1.8 1.7-3.3 1.7-2.2 0-4-1.6-4-5.2 0-4 2.2-5.7 4.7-5.7zm0 8.6c1 0 1.7-0.6 2.4-1.5v-4.6c-0.6-0.3-1.1-0.4-2-0.4-1.4 0-2.4 1.1-2.4 3.4 0 2.1 0.9 3.1 2 3.1z"/>
	<path id="Layer" class="s2" d="m120.6 139.9l-0.3-2.2q0.4 0.1 1.1 0.1c0.9 0 1.6-0.4 2-1.5l0.1-0.3-3.9-10.4 2.8-0.4 2.4 7.7 2.3-7.5h2.7l-4.1 11.3c-0.9 2.5-2.1 3.3-4 3.3-0.6 0-0.8 0-1.1-0.1z"/>
	<path id="Layer" class="s2" d="m130.9 130.9v-2.5h5.7v2.5z"/>
	<path id="Layer" fill-rule="evenodd" class="s2" d="m142.9 140c-2.8 0-5-0.9-5-2.6 0-1 0.7-1.8 2-2.5q-0.6-0.5-0.6-1.2 0-0.9 1.3-1.7c-1.2-0.6-2-1.7-2-3.1 0-2.3 1.9-3.7 4.3-3.7 1.2 0 2.2 0.3 3 0.9l2.6-0.9 0.3 2.1-1.9 0.2c0.2 0.4 0.3 0.9 0.3 1.3 0 2.3-2 3.7-4.3 3.7q-0.4 0-0.8-0.1c-0.3 0.2-0.5 0.4-0.5 0.6 0 0.4 0.4 0.4 2 0.7l1.4 0.1c2.2 0.3 3.5 1 3.5 2.6 0 2.3-2.5 3.6-5.6 3.6zm0-13.2c-1.2 0-1.8 0.9-1.8 2.1 0 1.1 0.7 2 1.8 2 1.2 0 1.9-0.9 1.9-2.1 0-1.1-0.8-2-1.9-2zm3.2 10.2c0-0.6-0.5-0.9-1.8-1.1l-1.4-0.2c-0.8-0.1-1.1-0.1-1.6-0.2-0.8 0.5-1.1 1-1.1 1.6 0 0.8 0.9 1.3 2.9 1.3 1.9 0 3-0.6 3-1.4z"/>
	<path id="Layer" class="s2" d="m153.1 129.9v6.1h-2.7v-10.6h2.3l0.3 2.1c0.7-1.2 1.7-2.3 3.4-2.3l0.4 2.6c-1.6 0.1-3 1-3.7 2.1z"/>
	<path id="Layer" fill-rule="evenodd" class="s2" d="m162.6 136.2c-2.8 0-4.9-2-4.9-5.5 0-3.5 2.1-5.5 5-5.5 2.9 0 5 2 5 5.5 0 3.4-2.2 5.5-5.1 5.5zm0-8.9c-1.5 0-2.4 1.4-2.4 3.4 0 1.9 0.9 3.4 2.4 3.4 1.7 0 2.5-1.4 2.5-3.4 0-2-0.9-3.4-2.5-3.4z"/>
	<path id="Layer" class="s2" d="m172.4 125.4v6.9c0 0.9 0.4 1.6 1.4 1.6 0.8 0 1.6-0.6 2.4-1.4v-7.1h2.6v10.6h-2.2l-0.3-1.5c-0.9 0.9-2.1 1.7-3.5 1.7-2 0-3-1.2-3-3.2v-7.6z"/>
	<path id="Layer" fill-rule="evenodd" class="s2" d="m186.6 136.1c-1 0-1.8-0.2-2.4-0.4v4l-2.7 0.4v-14.7h2.3l0.2 1.4c0.8-0.8 1.8-1.6 3.3-1.6 2.2 0 4 1.6 4 5.2 0 3.9-2.2 5.7-4.7 5.7zm0-8.6c-1 0-1.7 0.6-2.4 1.5v4.5c0.6 0.3 1.1 0.5 2 0.5 1.4 0 2.4-1.1 2.4-3.5 0-2-0.9-3-2-3z"/>
	<path id="Layer" class="s0" d="m64 66c0-4.4 3.6-8 8-8h162c4.4 0 8 3.6 8 8v24c0 4.4-3.6 8-8 8h-162c-4.4 0-8-3.6-8-8z"/>
	<path id="Layer" fill-rule="evenodd" class="s1" d="m77.9 87c-0.3 0-0.6-0.3-0.5-0.6l0.6-3.4h-3.4c-0.3 0-0.6-0.3-0.5-0.6l0.2-1c0-0.2 0.2-0.4 0.5-0.4h3.5l1.1-6h-3.4c-0.3 0-0.5-0.3-0.5-0.6l0.2-1c0-0.2 0.2-0.4 0.5-0.4h3.6l0.6-3.6c0-0.2 0.2-0.4 0.5-0.4h1c0.3 0 0.5 0.3 0.5 0.6l-0.6 3.4h6l0.6-3.6c0-0.2 0.2-0.4 0.5-0.4h1c0.3 0 0.5 0.3 0.5 0.6l-0.6 3.4h3.4c0.3 0 0.5 0.3 0.5 0.6l-0.2 1c-0.1 0.2-0.3 0.4-0.5 0.4h-3.6l-1.1 6h3.5c0.3 0 0.5 0.3 0.4 0.6l-0.1 1c-0.1 0.2-0.3 0.4-0.5 0.4h-3.6l-0.6 3.6c-0.1 0.2-0.3 0.4-0.5 0.4h-1c-0.3 0-0.6-0.3-0.5-0.6l0.6-3.4h-6l-0.6 3.6c-0.1 0.2-0.3 0.4-0.5 0.4zm3.5-12l-1.1 6h6l1.1-6z"/>
	<path id="Layer" fill-rule="evenodd" class="s1" d="m111.6 84.1c-1 0-1.8-0.2-2.4-0.4v3.8l-1.8 0.2v-13.2h1.4l0.2 1.3c0.8-0.8 1.7-1.5 3.1-1.5 2.1 0 3.8 1.5 3.8 4.7 0 3.4-2 5.1-4.3 5.1zm0.3-8.3c-1.1 0-2 0.7-2.7 1.7v4.6c0.7 0.4 1.3 0.5 2.3 0.5 1.5 0 2.6-1.2 2.6-3.6 0-2-0.9-3.2-2.2-3.2z"/>
	<path id="Layer" fill-rule="evenodd" class="s1" d="m122 84.2c-2.4 0-4.4-1.5-4.4-5 0-3.1 1.8-4.9 4.2-4.9 2.8 0 4.1 2.1 4.1 4.7v0.4h-6.5c0.1 2.2 1.1 3.3 2.8 3.3 1.4 0 2.4-0.6 3.4-1.4l0.3 1.6c-1.1 0.8-2.3 1.3-3.9 1.3zm-2.5-6.1h4.6c-0.2-1.6-0.9-2.4-2.3-2.4-1.1 0-2 0.8-2.3 2.4z"/>
	<path id="Layer" class="s1" d="m131.4 84.2c-1.7 0-2.8-0.6-2.8-2.6v-5.6h-1.4v-1.5h1.4v-3.2l1.7-0.3v3.5h2.1l0.2 1.5h-2.3v5.3c0 0.8 0.4 1.3 1.4 1.3q0.4 0 0.8-0.1l0.2 1.5c-0.3 0.1-0.7 0.2-1.3 0.2z"/>
	<path id="Layer" class="s1" d="m134.2 79.2v-1.8h4.9v1.8z"/>
	<path id="Layer" fill-rule="evenodd" class="s1" d="m145.8 84.1c-1 0-1.8-0.2-2.4-0.4v3.8l-1.8 0.2v-13.2h1.4l0.2 1.3c0.8-0.8 1.7-1.5 3.1-1.5 2.1 0 3.8 1.5 3.8 4.7 0 3.4-2 5.1-4.3 5.1zm0.3-8.3c-1.1 0-2 0.7-2.7 1.7v4.6c0.7 0.4 1.3 0.5 2.3 0.5 1.5 0 2.6-1.2 2.6-3.6 0-2-0.9-3.2-2.2-3.2z"/>
	<path id="Layer" class="s1" d="m158.4 84v-6.5c0-1-0.5-1.6-1.5-1.6-0.9 0-1.9 0.6-2.8 1.5v6.6h-1.7v-14.2l1.7-0.2v6.1c0.8-0.7 1.9-1.4 3.3-1.4 1.8 0 2.7 1 2.7 2.8v6.9z"/>
	<path id="Layer" fill-rule="evenodd" class="s1" d="m166.7 84.2c-2.5 0-4.3-1.8-4.3-5 0-3.1 1.8-4.9 4.3-4.9 2.6 0 4.5 1.8 4.5 4.9 0 3.2-1.9 5-4.5 5zm0-8.5c-1.7 0-2.5 1.5-2.5 3.5 0 2 0.9 3.5 2.5 3.5 1.8 0 2.7-1.5 2.7-3.5 0-1.9-0.9-3.5-2.7-3.5z"/>
	<path id="Layer" class="s1" d="m176.7 84.2c-1.7 0-2.8-0.6-2.8-2.6v-5.6h-1.4v-1.5h1.4v-3.2l1.8-0.3v3.5h2l0.3 1.5h-2.3v5.3c0 0.8 0.3 1.3 1.3 1.3q0.5 0 0.8-0.1l0.2 1.5c-0.3 0.1-0.7 0.2-1.3 0.2z"/>
	<path id="Layer" fill-rule="evenodd" class="s1" d="m184 84.2c-2.6 0-4.4-1.8-4.4-5 0-3.1 1.8-4.9 4.4-4.9 2.5 0 4.4 1.8 4.4 4.9 0 3.2-1.9 5-4.4 5zm0-8.5c-1.8 0-2.6 1.5-2.6 3.5 0 2 0.9 3.5 2.6 3.5 1.7 0 2.6-1.5 2.6-3.5 0-1.9-0.9-3.5-2.6-3.5z"/>
	<path id="Layer" class="s1" d="m193.6 84.2c-1.3 0-2.7-0.4-3.5-0.9l0.2-1.7c0.9 0.6 2.1 1.1 3.4 1.1 1.2 0 1.9-0.4 1.9-1.2 0-0.9-0.5-1.2-2.2-1.7-2.3-0.5-3.2-1.2-3.2-2.9 0-1.5 1.3-2.6 3.4-2.6 1.2 0 2.2 0.2 3.1 0.6l-0.2 1.7c-0.9-0.5-1.9-0.8-2.9-0.8-1.1 0-1.7 0.4-1.7 1.1 0 0.6 0.5 1 2 1.3 2.4 0.6 3.4 1.3 3.4 3.1 0 1.8-1.3 2.9-3.7 2.9z"/>
	<path id="Layer" class="s0" d="m64 170c0-4.4 3.6-8 8-8h162c4.4 0 8 3.6 8 8v24c0 4.4-3.6 8-8 8h-162c-4.4 0-8-3.6-8-8z"/>
	<path id="Layer" fill-rule="evenodd" class="s1" d="m77.9 191c-0.3 0-0.6-0.3-0.5-0.6l0.6-3.4h-3.4c-0.3 0-0.6-0.3-0.5-0.6l0.2-1c0-0.2 0.2-0.4 0.5-0.4h3.5l1.1-6h-3.4c-0.3 0-0.5-0.3-0.5-0.6l0.2-1c0-0.2 0.2-0.4 0.5-0.4h3.6l0.6-3.6c0-0.2 0.2-0.4 0.5-0.4h1c0.3 0 0.5 0.3 0.5 0.6l-0.6 3.4h6l0.6-3.6c0-0.2 0.2-0.4 0.5-0.4h1c0.3 0 0.5 0.3 0.5 0.6l-0.6 3.4h3.4c0.3 0 0.5 0.3 0.5 0.6l-0.2 1c-0.1 0.2-0.3 0.4-0.5 0.4h-3.6l-1.1 6h3.5c0.3 0 0.5 0.3 0.4 0.6l-0.1 1c-0.1 0.2-0.3 0.4-0.5 0.4h-3.6l-0.6 3.6c-0.1 0.2-0.3 0.4-0.5 0.4h-1c-0.3 0-0.6-0.3-0.5-0.6l0.6-3.4h-6l-0.6 3.6c-0.1 0.2-0.3 0.4-0.5 0.4zm3.5-12l-1.1 6h6l1.1-6z"/>
	<path id="Layer" fill-rule="evenodd" class="s1" d="m110.8 191.6c-2.5 0-4.5-0.7-4.5-2.4 0-1 0.7-1.8 2.1-2.5-0.5-0.3-0.6-0.6-0.6-1 0-0.4 0.3-0.9 1-1.3-1.1-0.5-1.8-1.5-1.8-2.8 0-2.1 1.7-3.3 3.6-3.3 1 0 1.8 0.2 2.5 0.8l2.4-0.8 0.3 1.6-1.8 0.2q0.3 0.7 0.3 1.5c0 2-1.7 3.3-3.6 3.3q-0.4 0-0.7-0.1c-0.3 0.2-0.5 0.4-0.5 0.6 0 0.3 0.3 0.4 2 0.7l0.7 0.1c2 0.4 3.3 1 3.3 2.5 0 2-2.2 2.9-4.7 2.9zm-0.2-12c-1.2 0-1.9 0.9-1.9 2 0 1.1 0.8 2 1.9 2 1.3 0 2-0.9 2-2 0-1.2-0.8-2-2-2zm3.2 9.3c0-0.6-0.5-1-1.8-1.2l-1.2-0.2c-0.5-0.1-0.8-0.2-1.1-0.2-1.2 0.5-1.7 1.1-1.7 1.7 0 0.8 1 1.4 2.9 1.4 1.8 0 2.9-0.7 2.9-1.5z"/>
	<path id="Layer" fill-rule="evenodd" class="s1" d="m123.2 188l-0.2-1.3c-0.8 0.8-1.8 1.5-3.4 1.5-1.7 0-2.8-1-2.8-2.7 0-2.3 2-3.3 6-3.7v-0.4c0-1.2-0.7-1.6-1.8-1.6-1.2 0-2.3 0.3-3.3 0.8l-0.2-1.5c1.1-0.5 2.2-0.8 3.7-0.8 2.3 0 3.4 0.9 3.4 3v6.7zm-0.3-4.8c-3.6 0.3-4.3 1.3-4.3 2.2 0 0.8 0.5 1.3 1.4 1.3 1.1 0 2.1-0.5 2.9-1.3z"/>
	<path id="Layer" class="s1" d="m139.1 188v-6.5c0-1-0.3-1.6-1.4-1.6-0.9 0-1.8 0.6-2.7 1.5v6.6h-1.8v-6.5c0-1-0.3-1.6-1.4-1.6-0.9 0-1.8 0.6-2.7 1.5v6.6h-1.7v-9.5h1.4l0.2 1.3c0.9-0.8 2-1.5 3.3-1.5 1.4 0 2.2 0.6 2.5 1.5 0.9-0.8 2.1-1.5 3.4-1.5 1.8 0 2.7 1 2.7 2.8v6.9z"/>
	<path id="Layer" fill-rule="evenodd" class="s1" d="m147.6 188.2c-2.5 0-4.5-1.5-4.5-5 0-3.1 1.8-4.9 4.2-4.9 2.8 0 4.1 2.1 4.1 4.7v0.4h-6.5c0.1 2.2 1.1 3.3 2.8 3.3 1.4 0 2.4-0.6 3.4-1.4l0.3 1.6c-1 0.8-2.3 1.3-3.8 1.3zm-2.6-6.1h4.6c-0.2-1.6-0.9-2.4-2.3-2.4-1.1 0-2 0.8-2.3 2.4z"/>
	<path id="Layer" class="s1" d="m156.6 188.2c-1.3 0-2.7-0.4-3.5-0.9l0.2-1.7c0.9 0.6 2.1 1.1 3.4 1.1 1.2 0 1.9-0.4 1.9-1.2 0-0.9-0.5-1.2-2.2-1.7-2.3-0.5-3.2-1.2-3.2-2.9 0-1.5 1.3-2.6 3.4-2.6 1.2 0 2.2 0.2 3.1 0.6l-0.3 1.7c-0.8-0.5-1.8-0.8-2.8-0.8-1.1 0-1.7 0.4-1.7 1.1 0 0.6 0.5 1 2 1.3 2.4 0.6 3.4 1.3 3.4 3.1 0 1.8-1.3 2.9-3.7 2.9z"/>
	<path id="Layer" class="s0" d="m64 218c0-4.4 3.6-8 8-8h162c4.4 0 8 3.6 8 8v24c0 4.4-3.6 8-8 8h-162c-4.4 0-8-3.6-8-8z"/>
	<path id="Layer" fill-rule="evenodd" class="s1" d="m77.9 239c-0.3 0-0.6-0.3-0.5-0.6l0.6-3.4h-3.4c-0.3 0-0.6-0.3-0.5-0.6l0.2-1c0-0.2 0.2-0.4 0.5-0.4h3.5l1.1-6h-3.4c-0.3 0-0.5-0.3-0.5-0.6l0.2-1c0-0.2 0.2-0.4 0.5-0.4h3.6l0.6-3.6c0-0.2 0.2-0.4 0.5-0.4h1c0.3 0 0.5 0.3 0.5 0.6l-0.6 3.4h6l0.6-3.6c0-0.2 0.2-0.4 0.5-0.4h1c0.3 0 0.5 0.3 0.5 0.6l-0.6 3.4h3.4c0.3 0 0.5 0.3 0.5 0.6l-0.2 1c-0.1 0.2-0.3 0.4-0.5 0.4h-3.6l-1.1 6h3.5c0.3 0 0.5 0.3 0.4 0.6l-0.1 1c-0.1 0.2-0.3 0.4-0.5 0.4h-3.6l-0.6 3.6c-0.1 0.2-0.3 0.4-0.5 0.4h-1c-0.3 0-0.6-0.3-0.5-0.6l0.6-3.4h-6l-0.6 3.6c-0.1 0.2-0.3 0.4-0.5 0.4zm3.5-12l-1.1 6h6l1.1-6z"/>
	<path id="Layer" class="s1" d="m111.3 236.2c-2.6 0-4.4-1.8-4.4-5 0-3.2 2-4.9 4.5-4.9 1.4 0 2.4 0.4 3.1 0.8l-0.3 1.8c-0.8-0.7-1.7-1.1-2.8-1.1-1.6 0-2.7 1.2-2.7 3.4 0 2.3 1.2 3.4 2.8 3.4 0.9 0 1.9-0.2 2.8-1l0.3 1.6c-0.9 0.7-1.9 1-3.3 1z"/>
	<path id="Layer" fill-rule="evenodd" class="s1" d="m120.4 236.2c-2.5 0-4.4-1.8-4.4-5 0-3.1 1.9-4.9 4.4-4.9 2.6 0 4.4 1.8 4.4 4.9 0 3.2-1.8 5-4.4 5zm0-8.5c-1.7 0-2.6 1.5-2.6 3.5 0 2 0.9 3.5 2.6 3.5 1.8 0 2.6-1.5 2.6-3.5 0-1.9-0.9-3.5-2.6-3.5z"/>
	<path id="Layer" fill-rule="evenodd" class="s1" d="m130.9 236.2c-2.5 0-4.3-1.8-4.3-5 0-3.1 1.8-4.9 4.3-4.9 2.6 0 4.5 1.8 4.5 4.9 0 3.2-1.9 5-4.5 5zm0-8.5c-1.7 0-2.5 1.5-2.5 3.5 0 2 0.9 3.5 2.5 3.5 1.8 0 2.7-1.5 2.7-3.5 0-1.9-0.9-3.5-2.7-3.5z"/>
	<path id="Layer" class="s1" d="m139.4 231v5h-1.7v-14.2l1.7-0.2v8.9l3.7-4h2.2l-4 4.2 4.3 5.1-1.9 0.3z"/>
	<path id="Layer" class="s1" d="m148.3 224.5c-0.6 0-1.1-0.5-1.1-1.1 0-0.6 0.5-1.1 1.1-1.1 0.6 0 1.1 0.5 1.1 1.1 0 0.6-0.5 1.1-1.1 1.1zm-0.9 11.5v-9.5h1.8v9.5z"/>
	<path id="Layer" class="s1" d="m158.1 236v-6.5c0-1-0.4-1.6-1.4-1.6-1 0-1.9 0.6-2.8 1.5v6.6h-1.8v-9.5h1.5l0.2 1.3c0.9-0.8 2-1.5 3.4-1.5 1.8 0 2.7 1 2.7 2.8v6.9z"/>
	<path id="Layer" fill-rule="evenodd" class="s1" d="m166.1 239.6c-2.5 0-4.5-0.7-4.5-2.4 0-1 0.7-1.8 2.1-2.5q-0.7-0.4-0.6-1c0-0.4 0.3-0.9 1-1.3-1.1-0.5-1.8-1.5-1.8-2.8 0-2.1 1.7-3.3 3.6-3.3 1 0 1.8 0.2 2.5 0.8l2.4-0.8 0.3 1.6-1.8 0.2q0.3 0.7 0.3 1.5c0 2-1.7 3.3-3.6 3.3q-0.4 0-0.7-0.1c-0.3 0.2-0.5 0.4-0.5 0.6 0 0.3 0.3 0.4 2 0.7l0.7 0.1c2 0.4 3.3 1 3.3 2.5 0 2-2.2 2.9-4.7 2.9zm-0.2-12c-1.2 0-1.9 0.9-1.9 2 0 1.1 0.8 2 1.9 2 1.3 0 2-0.9 2-2 0-1.2-0.8-2-2-2zm3.2 9.3c0-0.6-0.5-1-1.8-1.2l-1.2-0.2c-0.5-0.1-0.8-0.2-1.1-0.2-1.2 0.5-1.7 1.1-1.7 1.7 0 0.8 1 1.4 2.9 1.4 1.8 0 2.9-0.7 2.9-1.5z"/>
	<path id="Layer" class="s12" d="m30.4 67.4l-2.8 6.4h-0.2l-2.9-6.4-6.4-2.8c-0.1 0-0.1-0.2 0-0.2l6.4-2.9 2.9-6.4c0-0.1 0.2-0.1 0.2 0l2.8 6.4h0.1l6.4 2.9c0.1 0 0.1 0.2 0 0.2l-6.4 2.8z"/>
	<path id="Layer" class="s13" d="m486.8 283.9l-3.8-1.7c-0.1 0-0.1-0.1 0-0.2l3.8-1.7h0.1l1.7-3.8c0-0.1 0.1-0.1 0.1 0l1.7 3.8h0.1l3.8 1.7v0.2l-3.8 1.7h-0.1l-1.7 3.8h-0.1l-1.7-3.8z"/>
	<path id="Layer" class="s10" d="m623.7 355.1l-3.8-1.7c-0.1 0-0.1-0.1 0-0.1l3.8-1.7 1.7-3.8h0.2l1.7 3.8 3.8 1.7c0.1 0 0.1 0.1 0 0.1l-3.8 1.7-1.7 3.8h-0.2z"/>
	<g id="Layer">
	</g>
	<g id="Layer">
	</g>
	<g id="Layer">
	</g>
	<g id="Layer">
	</g>
	<path id="Layer" class="s14" d="m214.1 312.2l-14.4 50.3-38.7 6.1-0.9-1.1 0.4-2.2-1.3-1.6h-2.2l-1-1.2 9.4-56.4h43.7c1.4 0.3 2.7 1 3.6 2.2 0.9 1.1 1.4 2.5 1.4 3.9z"/>
	<path id="Layer" class="s15" d="m204.7 368.6h-43.7l9.4-56.4h43.7z"/>
	<path id="Layer" class="s16" d="m228.5 302.1l-2.2-1 2.2-0.9 0.9-2.2h0.1l1 2.2 2.1 0.9c0.1 0 0.1 0.1 0 0.1l-2.1 1-1 2.1h-0.1l-0.9-2.1z"/>
	<path id="Layer" class="s17" d="m261.5 353.1v12.5h3.8v3h-94.1c-1.3-1.2-2.3-2.6-3-4.2-0.6-1.6-1-3.3-1-5 0-1.8 0.4-3.5 1-5.1 0.7-1.6 1.7-3 3-4.2h94.1v3z"/>
	<path id="Layer" class="s18" d="m214.3 354.3c-0.7 1.6-1.1 3.3-1.1 5.1 0 1.7 0.4 3.4 1.1 5 0.7 1.6 1.7 3 2.9 4.2h-46c-1.2-1.2-2.2-2.6-2.9-4.2-0.7-1.6-1.1-3.3-1.1-5 0-1.8 0.4-3.5 1.1-5.1 0.7-1.6 1.7-3 2.9-4.2h46c-1.2 1.2-2.2 2.6-2.9 4.2z"/>
	<path id="Layer" class="s19" d="m176.1 354.3c-0.7 1.6-1.1 3.3-1.1 5.1 0 1.7 0.4 3.4 1.1 5 0.7 1.6 1.7 3 2.9 4.2h-1.8c-1.2-1.2-2.2-2.6-2.9-4.2-0.7-1.6-1.1-3.3-1.1-5 0-1.8 0.4-3.5 1.1-5.1 0.7-1.6 1.7-3 2.9-4.2h1.8c-1.2 1.2-2.2 2.6-2.9 4.2z"/>
	<path id="Layer" class="s19" d="m207.7 354.3c-0.7 1.6-1 3.3-1 5.1 0 1.7 0.3 3.4 1 5 0.7 1.6 1.7 3 2.9 4.2h-1.7c-1.2-1.2-2.2-2.6-2.9-4.2-0.7-1.6-1.1-3.3-1.1-5 0-1.8 0.4-3.5 1.1-5.1 0.7-1.6 1.7-3 2.9-4.2h1.7c-1.2 1.2-2.2 2.6-2.9 4.2z"/>
	<path id="Layer" class="s20" d="m256.4 321.6q0.5 0.2 0.7 0.7c1.9 4.4 2.9 9.2 2.8 14-0.1 4.8-1.2 9.5-3.3 13.8h-65.4c2.2-4.5 3.3-9.4 3.3-14.4 0-5-1.1-9.9-3.3-14.4h64.3q0.5 0 0.9 0.3z"/>
	<path id="Layer" class="s20" d="m186 321.3h69.1v3.9h-69.1q-0.3 0-0.6-0.2-0.2-0.3-0.2-0.6v-2.3q0-0.3 0.2-0.6 0.3-0.2 0.6-0.2z"/>
	<path id="Layer" class="s20" d="m186 346.2h69.1v3.9h-69.1q-0.3 0-0.6-0.2-0.2-0.3-0.2-0.6v-2.2q0-0.2 0-0.3 0.1-0.2 0.2-0.3 0.1-0.2 0.3-0.2 0.1-0.1 0.3-0.1z"/>
	<path id="Layer" class="s21" d="m186 321.3h38.3v3.9h-38.3q-0.3 0-0.6-0.2-0.2-0.3-0.2-0.6v-2.3q0-0.3 0.2-0.6 0.3-0.2 0.6-0.2z"/>
	<path id="Layer" class="s21" d="m186 346.2h38.3v3.9h-38.3q-0.3 0-0.6-0.2-0.2-0.3-0.2-0.6v-2.2q0-0.2 0-0.3 0.1-0.2 0.2-0.3 0.1-0.2 0.3-0.2 0.1-0.1 0.3-0.1z"/>
	<path id="Layer" class="s22" d="m253.9 346.2h-30.7v-21.1h30.7z"/>
	<path id="Layer" class="s23" d="m227.2 346.2h-38.9v-21.1h38.9z"/>
	<path id="Layer" class="s22" d="m229.7 330.5l-41.4-2.7v-2.7h41.4z"/>
	<path id="Layer" class="s3" d="m253.9 325.1v21.1c3.2-5.8 3.2-15.2 0-21.1z"/>
	<path id="Layer" class="s22" d="m229.4 332.9h-41.1v-0.8h41.1z"/>
	<path id="Layer" class="s22" d="m233.1 339h-44.8v-0.8h44.8z"/>
	<path id="Layer" class="s22" d="m233.1 341.2h-44.8v-0.8h44.8z"/>
	<path id="Layer" class="s24" d="m236 328.8h5.6c0.5 0 0.9 0.2 1.2 0.5 0.3 0.3 0.5 0.7 0.5 1.2v8.6l-2.1-2-2.1 2v-8.5c0-0.4-0.1-0.7-0.4-1-0.3-0.3-0.6-0.4-1-0.4h-1.7z"/>
	<path id="Layer" class="s25" d="m210.6 310.6h-39.7-1.3l-9.1 54.7-1.3-1.6 9.3-56h39.8z"/>
	<path id="Layer" class="s3" d="m208.3 307.7c0.6 0.2 1.2 0.5 1.6 1.1 0.4 0.5 0.7 1.1 0.7 1.8z"/>
	<path id="Layer" class="s3" d="m217.8 359.4c0-2.3 0.8-4.6 2.3-6.3v12.5c-1.5-1.7-2.3-4-2.3-6.2z"/>
	<path id="Layer" class="s26" d="m261.5 365.6h-41.4v-12.5h41.4z"/>
	<path id="Layer" class="s27" d="m261.4 357.1h-38.5v-0.6h38.5z"/>
	<path id="Layer" class="s27" d="m261.4 355.8h-38.5v-0.6h38.5z"/>
	<path id="Layer" class="s27" d="m261.4 363.7h-38.5v-0.6h38.5z"/>
	<path id="Layer" class="s15" d="m250.1 364.5l-1.1-0.9-1.2 0.9v-5.1q0-0.4-0.4-0.7-0.3-0.3-0.7-0.3h-0.4v-0.2h2.9q0.4 0 0.6 0.3 0.3 0.3 0.3 0.7z"/>
	<g id="Clip-Path" clip-path="url(#cp3)">
		<g id="Layer">
			<path id="Layer" class="s28" d="m319 155c-11.1 0-20-8.9-20-20 0-11.1 8.9-20 20-20 11.1 0 20 8.9 20 20 0 11.1-8.9 20-20 20z"/>
		</g>
	</g>
	<g id="Clip-Path" clip-path="url(#cp4)">
		<g id="Layer">
			<path id="Layer" class="s29" d="m319 231c-11.1 0-20-8.9-20-20 0-11.1 8.9-20 20-20 11.1 0 20 8.9 20 20 0 11.1-8.9 20-20 20z"/>
		</g>
	</g>
</svg>