<svg version="1.2" xmlns="http://www.w3.org/2000/svg" viewBox="0 0 874 530" width="874" height="530">
	<title>section-4-svg</title>
	<defs>
		<clipPath clipPathUnits="userSpaceOnUse" id="cp1">
			<path d="m843.99 85.95v341.1c0 16.47-13.5 29.95-30 29.95h-146.99c-16.5 0-30-13.48-30-29.95v-341.1c0-16.47 13.5-29.95 30-29.95h147.37c16.5 0 30 13.48 29.62 29.95z"/>
		</clipPath>
		<clipPath clipPathUnits="userSpaceOnUse" id="cp2">
			<path d="m487 280c0-4.42 3.58-8 8-8h147c4.42 0 8 3.58 8 8v80c0 4.42-3.58 8-8 8h-147c-4.42 0-8-3.58-8-8z"/>
		</clipPath>
		<clipPath clipPathUnits="userSpaceOnUse" id="cp3">
			<path d="m487 170c0-4.42 3.58-8 8-8h147c4.42 0 8 3.58 8 8v80c0 4.42-3.58 8-8 8h-147c-4.42 0-8-3.58-8-8z"/>
		</clipPath>
		<clipPath clipPathUnits="userSpaceOnUse" id="cp4">
			<path d="m473 390c0 4.42-3.58 8-8 8h-414c-4.42 0-8-3.58-8-8v-250c0-4.42 3.58-8 8-8h414c4.42 0 8 3.58 8 8z"/>
		</clipPath>
	</defs>
	<style>
		.s0 { fill: #225b73 } 
		.s1 { fill: #236682 } 
		.s2 { fill: #f7d197 } 
		.s3 { fill: #ff9ccd } 
		.s4 { fill: #23272a } 
		.s5 { fill: #dbe7ff } 
		.s6 { fill: #1c1b29 } 
		.s7 { fill: #e7366b } 
		.s8 { fill: #ffffff } 
		.s9 { fill: #292841 } 
		.s10 { fill: #f7e5bc } 
		.s11 { fill: #fafafa } 
		.s12 { fill: #f7d78d } 
		.s13 { fill: #5e87f9 } 
		.s14 { fill: #ff99b9 } 
		.s15 { fill: #5580f9 } 
		.s16 { fill: #b9bbbe } 
		.s17 { fill: #a8bfff } 
		.s18 { fill: #648ae8 } 
		.s19 { fill: #7b6eb3 } 
		.s20 { fill: #6273e3 } 
		.s21 { fill: #7d2952 } 
		.s22 { fill: #70254a } 
		.s23 { fill: #3366e0 } 
		.s24 { fill: #783837 } 
		.s25 { fill: #571e2f } 
		.s26 { fill: #5177d6 } 
		.s27 { fill: #8f80cf } 
	</style>
	<g id="Clip-Path" clip-path="url(#cp1)">
		<g id="Layer">
			<path id="Layer" class="s0" d="m844 456.6h-207v-399.6h207z"/>
			<path id="Layer" class="s1" d="m637 57h207v156.1c-86.1-13.8-157.7-44.4-207-86.5z"/>
			<path id="Layer" class="s2" d="m808.2 146.6l-4-1.7c-0.1 0-0.1-0.1 0-0.2l4-1.7 1.8-4c0 0 0.1 0 0.1 0l1.8 4h0.1l3.8 1.7c0.1 0.1 0.1 0.2 0 0.2l-3.8 1.7q-0.1 0-0.1 0.1 0 0 0 0l-1.8 3.9h-0.1l-1.8-3.9q0 0 0 0 0-0.1 0-0.1z"/>
			<path id="Layer" class="s3" d="m671.5 258.7l-2.6-1.2c-0.1 0-0.1-0.1 0-0.1l2.6-1.1c0 0 0 0 0-0.1l1.2-2.6h0.1l1.1 2.6 2.7 1.2c0 0 0 0 0 0l-2.7 1.2-1.1 2.7c0 0.1-0.1 0.1-0.1 0l-1.2-2.6z"/>
			<path id="Layer" fill-rule="evenodd" class="s4" d="m844 86v341c0 16.5-13.5 30-30 30h-147c-16.5 0-30-13.5-30-30v-341c0-16.5 13.5-30 30-30h147.4c16.5 0 30 13.5 29.6 30zm-11.6 341v-340.7c0-10.5-8.3-18.7-18.8-18.7h-10.1c-5.6 0-10.1 4.5-10.1 10.1 0 5.6-4.5 10.1-10.2 10.1h-85.5c-6 0-10.5-4.8-10.5-10.5 0-5.6-4.5-10.1-10.1-10.1h-10.1c-10.5 0-18.8 8.3-18.8 18.8v341c0 10.5 8.3 18.8 18.8 18.8h147.4c10.5 0 18.7-8.3 18.7-18.8z"/>
		</g>
	</g>
	<g id="Layer">
		<path id="Layer" class="s5" d="m712 438c-13.3 0-24-10.7-24-24 0-13.3 10.7-24 24-24 13.3 0 24 10.7 24 24 0 13.3-10.7 24-24 24z"/>
		<path id="Layer" class="s6" d="m722 411v6c0 0.3-0.2 0.7-0.5 0.9q-0.2 0.1-0.5 0.1-0.2 0-0.4-0.1l-2.6-1.3v2.4c0 1.1-0.9 2-2 2h-12c-1.1 0-2-0.9-2-2v-10c0-1.1 0.9-2 2-2h12c1.1 0 2 0.9 2 2v2.4l2.6-1.3c0.3-0.1 0.6-0.1 0.9 0 0.3 0.2 0.5 0.6 0.5 0.9z"/>
	</g>
	<g id="Layer">
		<path id="Layer" class="s7" d="m769 438c-13.3 0-24-10.7-24-24 0-13.3 10.7-24 24-24 13.3 0 24 10.7 24 24 0 13.3-10.7 24-24 24z"/>
		<path id="Layer" fill-rule="evenodd" class="s8" d="m778.1 403.1l1.8 1.8-3.1 3.1 3.1 3.1-1.8 1.8-3.1-3.1-3.1 3.1-1.8-1.8 3.1-3.1-3.1-3.1 1.8-1.8 3.1 3.1zm-2.1 19.9v-4c0-0.5-0.5-1-1-1h-4c-0.6 0-1 0.5-1 1v1c-4 0-7-3-7-7h1c0.5 0 1-0.4 1-1v-4c0-0.5-0.5-1-1-1h-4c-0.6 0-1 0.5-1 1v5c0 6.1 4.9 11 11 11h5c0.5 0 1-0.4 1-1z"/>
	</g>
	<path id="Layer" class="s9" d="m27 87c0-4.4 3.6-8 8-8h623c4.4 0 8 3.6 8 8v378c0 4.4-3.6 8-8 8h-623c-4.4 0-8-3.6-8-8z"/>
	<g id="Clip-Path" clip-path="url(#cp2)">
		<g id="Layer">
			<path id="Layer" class="s10" d="m650 367.9h-162.9v-95.9h162.9z"/>
			<path id="Layer" class="s11" d="m608.1 290.7l-3.2-1.4q0 0 0 0-0.1-0.1-0.1-0.1 0 0 0.1-0.1 0 0 0 0l3.2-1.4q0 0 0 0 0 0 0 0l1.4-3.2c0 0 0.1 0 0.1 0l1.4 3.2q0 0 0.1 0l3.1 1.4q0 0.1 0 0.1 0 0 0 0.1l-3.1 1.4h-0.1l-1.4 3.1c0 0.1-0.1 0.1-0.1 0l-1.4-3.1z"/>
			<path id="Layer" class="s12" d="m519.8 295.1l-2.1-0.9c0 0 0-0.1 0-0.1l2.1-0.9q0 0 0 0 0 0 0 0l0.9-2.1c0 0 0.1 0 0.1 0l0.9 2.1h0.1l2 0.9c0 0 0 0.1 0 0.1l-2 0.9q0 0-0.1 0 0 0 0 0l-0.9 2.1h-0.1l-0.9-2.1q0 0.1 0 0z"/>
		</g>
	</g>
	<g id="Clip-Path" clip-path="url(#cp3)">
		<g id="Layer">
			<path id="Layer" class="s13" d="m650 258h-163v-96h163z"/>
			<path id="Layer" class="s14" d="m620.3 180.5l-3.2-1.4c0 0 0-0.1 0-0.1l3.2-1.4 1.4-3.2c0 0 0.1 0 0.1 0l1.4 3.2h0.1l3.1 1.4c0.1 0 0.1 0.1 0 0.1l-3.1 1.4h-0.1l-1.4 3.1h-0.1l-1.4-3.1z"/>
			<path id="Layer" class="s15" d="m512.3 229.6l-3.2-1.4q0 0 0 0 0 0 0-0.1 0 0 0 0 0 0 0 0l3.2-1.4 1.4-3.2c0 0 0.1 0 0.1 0l1.4 3.2h0.1l3.1 1.4q0.1 0 0.1 0 0 0.1-0.1 0.1l-3.1 1.4h-0.1l-1.4 3.1c0 0.1-0.1 0.1-0.1 0l-1.4-3.1z"/>
		</g>
	</g>
	<path id="Layer" class="s8" d="m72.3 103.8c-0.7 0-1.3-0.5-1.3-1.2 0-0.7 0.6-1.2 1.3-1.2 0.7 0 1.3 0.5 1.3 1.2 0 0.7-0.6 1.2-1.3 1.2zm-1.6 13.5c-0.4 0-0.7 0-0.9-0.1l-0.3-1.8q0.3 0.1 0.7 0.1c0.6 0 1-0.3 1-1v-9.2h2.1v9.4c0 1.8-1 2.6-2.6 2.6zm7.1-12v5.7c0 0.8 0.3 1.3 1.1 1.3 0.7 0 1.3-0.5 2-1.1v-5.9h2.1v8.7h-1.8l-0.2-1.2c-0.8 0.7-1.7 1.4-2.9 1.4-1.6 0-2.5-1-2.5-2.6v-6.3zm10.4 8.9c-1.3 0-2.6-0.4-3.4-0.9l0.3-1.8c0.9 0.6 2.1 1.1 3.2 1.1 0.9 0 1.4-0.4 1.4-1 0-0.6-0.4-0.8-1.7-1.2-2.2-0.5-3-1.1-3-2.7 0-1.5 1.2-2.6 3.2-2.6 1.1 0 2.1 0.3 3 0.6l-0.3 1.8c-0.8-0.4-1.9-0.8-2.7-0.8-0.8 0-1.2 0.4-1.2 0.8 0 0.5 0.3 0.8 1.6 1.1 2.2 0.6 3.1 1.2 3.1 2.8 0 1.8-1.2 2.8-3.5 2.8zm8.5-0.1c-1.7 0-2.9-0.6-2.9-2.6v-4.4h-1.2v-1.8h1.2v-2.7l2.2-0.4v3.1h1.7l0.3 1.8h-2v4.1c0 0.7 0.3 1.1 1.1 1.1q0.4 0 0.7-0.1l0.3 1.8c-0.4 0.1-0.8 0.1-1.4 0.1zm2.5-4.2v-2.1h4.7v2.1zm10.3 4.3c-2.4 0-4.2-1.7-4.2-4.5 0-3 1.9-4.6 4.3-4.6 1.1 0 2 0.4 2.7 0.8l-0.3 1.9c-0.7-0.5-1.4-0.8-2.3-0.8-1.3 0-2.2 0.9-2.2 2.6 0 1.8 1 2.7 2.3 2.7 0.7 0 1.5-0.2 2.3-0.8l0.3 1.8c-0.9 0.6-1.8 0.9-2.9 0.9zm9.8-0.2v-5.7c0-0.7-0.3-1.3-1.1-1.3-0.6 0-1.3 0.5-2 1.1v5.9h-2.1v-12.7l2.1-0.3v5.4c0.8-0.7 1.7-1.3 2.8-1.3 1.6 0 2.5 1 2.5 2.6v6.3zm5.5-10.2c-0.7 0-1.3-0.5-1.3-1.2 0-0.7 0.6-1.2 1.3-1.2 0.7 0 1.3 0.5 1.3 1.2 0 0.7-0.6 1.2-1.3 1.2zm-1.1 10.2v-8.7h2.2v8.7zm4.5 0v-12.7l2.2-0.3v13zm4.5 0v-12.7l2.2-0.3v13zm5.6-10.2c-0.7 0-1.3-0.5-1.3-1.2 0-0.7 0.6-1.2 1.3-1.2 0.7 0 1.3 0.5 1.3 1.2 0 0.7-0.6 1.2-1.3 1.2zm-1.1 10.2v-8.7h2.2v8.7zm9.7 0v-5.7c0-0.7-0.4-1.3-1.2-1.3-0.6 0-1.3 0.5-1.9 1.1v5.9h-2.2v-8.7h1.8l0.2 1.2c0.8-0.7 1.8-1.4 2.9-1.4 1.7 0 2.5 1 2.5 2.6v6.3z"/>
	<path id="Layer" fill-rule="evenodd" class="s16" d="m54 101.5v14c0 0.4-0.2 0.7-0.6 0.8-0.3 0.1-0.7 0.1-1-0.2l-3.9-4.1h-2.8c-0.5 0-0.9-0.4-0.9-0.9v-5.2c0-0.5 0.4-0.9 0.9-0.9h2.8l3.9-4.1c0.3-0.3 0.7-0.3 1-0.2 0.4 0.1 0.6 0.4 0.6 0.8zm8.3 7c-0.1 3.4-2.9 6.1-6.5 6.1v-1.7c2.6 0 4.6-2 4.6-4.4 0-2.4-2-4.4-4.6-4.4v-1.7c3.6 0 6.4 2.7 6.4 6.1zm-6.4-2.6c1.5 0 2.8 1.2 2.8 2.6 0 1.5-1.3 2.6-2.8 2.6v-1.7c0.5 0 0.9-0.4 0.9-0.9 0-0.5-0.4-0.9-0.9-0.9z"/>
	<path id="Layer" class="s5" d="m261 459c-13.3 0-24-10.7-24-24 0-13.3 10.7-24 24-24 13.3 0 24 10.7 24 24 0 13.3-10.7 24-24 24z"/>
	<path id="Layer" class="s6" d="m271 432v6c0 0.3-0.2 0.7-0.5 0.9q-0.2 0.1-0.5 0.1-0.2 0-0.4-0.1l-2.6-1.3v2.4c0 1.1-0.9 2-2 2h-12c-1.1 0-2-0.9-2-2v-10c0-1.1 0.9-2 2-2h12c1.1 0 2 0.9 2 2v2.4l2.6-1.3c0.3-0.1 0.6-0.1 0.9 0 0.3 0.2 0.5 0.6 0.5 0.9z"/>
	<path id="Layer" class="s5" d="m318 459c-13.3 0-24-10.7-24-24 0-13.3 10.7-24 24-24 13.3 0 24 10.7 24 24 0 13.3-10.7 24-24 24z"/>
	<path id="Layer" fill-rule="evenodd" class="s6" d="m308 428.5c0-1.1 0.9-2 2-2h16c1.1 0 2 0.9 2 2v11c0 1.1-0.9 2-2 2h-7v2h4v2h-10v-2h4v-2h-7c-1.1 0-2-0.9-2-2zm16 5.2l-4.8-4.7v2.7c-4.7 0.6-6.5 4-7.2 7.3 1.7-2.3 3.9-3.4 7.2-3.4v2.7z"/>
	<path id="Layer" class="s5" d="m375 459c-13.3 0-24-10.7-24-24 0-13.3 10.7-24 24-24 13.3 0 24 10.7 24 24 0 13.3-10.7 24-24 24z"/>
	<path id="Layer" class="s6" d="m370.1 436.1l-1.2 1.2c-0.6-1-0.9-2.1-0.9-3.3h1.7q0 1.1 0.4 2z"/>
	<path id="Layer" class="s6" d="m372 434v-6c0-1.7 1.3-3 3-3 1.7 0 3 1.3 3 3v0.2l-6 6q0-0.1 0-0.1 0-0.1 0-0.1z"/>
	<path id="Layer" class="s6" d="m375 439.1c2.8 0 5.3-2.1 5.3-5.1h1.7c0 3.4-2.7 6.2-6 6.7v4.3h-2v-4.3q-0.4 0-0.7-0.1l0.7-0.7 0.7-0.8q0.2 0 0.3 0z"/>
	<path id="Layer" class="s6" d="m378 433.3l-3.6 3.6-1.7 1.7-1.2 1.2-4.2 4.2-1.3-1.3 16.7-16.7 1.3 1.3z"/>
	<path id="Layer" class="s7" d="m432 459c-13.3 0-24-10.7-24-24 0-13.3 10.7-24 24-24 13.3 0 24 10.7 24 24 0 13.3-10.7 24-24 24z"/>
	<path id="Layer" fill-rule="evenodd" class="s8" d="m441.1 424.1l1.8 1.8-3.1 3.1 3.1 3.1-1.8 1.8-3.1-3.1-3.1 3.1-1.8-1.8 3.1-3.1-3.1-3.1 1.8-1.8 3.1 3.1zm-2.1 19.9v-4c0-0.5-0.5-1-1-1h-4c-0.6 0-1 0.5-1 1v1c-4 0-7-3-7-7h1c0.5 0 1-0.4 1-1v-4c0-0.5-0.5-1-1-1h-4c-0.6 0-1 0.5-1 1v5c0 6.1 4.9 11 11 11h5c0.5 0 1-0.4 1-1z"/>
	<g id="Clip-Path" clip-path="url(#cp4)">
		<g id="Layer">
			<path id="Layer" class="s17" d="m473 390c0 4.4-3.6 8-8 8h-414c-4.4 0-8-3.6-8-8v-250c0-4.4 3.6-8 8-8h414c4.4 0 8 3.6 8 8z"/>
			<path id="Layer" class="s18" d="m43 360h52.3l17-18.2 12.5 4v-61.3h24.4v17.2h49.3l111.7 51.8h61.8v24.3h27v-77.3h74v97.5h-430z"/>
			<path id="Layer" class="s19" d="m95.3 377.8h-52.3v-5.5h52.3z"/>
			<path id="Layer" class="s20" d="m114.6 398.1l19.4-19.4h42.1v19.3z"/>
			<path id="Layer" class="s20" d="m454.4 398.1h-110.3v-8.1h110.3z"/>
			<path id="Layer" class="s21" d="m283.1 186.9c0-3.2 2.6-5.8 5.8-5.8 3.2 0 5.8 2.6 5.8 5.8 0 3.2-2.6 5.8-5.8 5.8-3.2 0-5.8-2.6-5.8-5.8z"/>
			<path id="Layer" class="s21" d="m243.5 200.3c0-3.2 2.6-5.8 5.8-5.8 3.2 0 5.8 2.6 5.8 5.8 0 3.2-2.6 5.8-5.8 5.8-3.2 0-5.8-2.6-5.8-5.8z"/>
			<path id="Layer" class="s21" d="m192.6 213.9c0-3.2 2.6-5.8 5.8-5.8 3.2 0 5.8 2.6 5.8 5.8 0 3.2-2.6 5.8-5.8 5.8-3.2 0-5.8-2.6-5.8-5.8z"/>
			<path id="Layer" class="s21" d="m156.1 220.7c0-3.2 2.6-5.8 5.8-5.8 3.2 0 5.8 2.6 5.8 5.8 0 3.2-2.6 5.8-5.8 5.8-3.2 0-5.8-2.6-5.8-5.8z"/>
			<path id="Layer" class="s21" d="m116.4 225c0-3.2 2.6-5.8 5.8-5.8 3.2 0 5.8 2.6 5.8 5.8 0 3.2-2.6 5.8-5.8 5.8-3.2 0-5.8-2.6-5.8-5.8z"/>
			<path id="Layer" class="s21" d="m78.7 224c0-3.2 2.6-5.8 5.8-5.8 3.2 0 5.8 2.6 5.8 5.8 0 3.2-2.6 5.8-5.8 5.8-3.2 0-5.8-2.6-5.8-5.8z"/>
			<path id="Layer" class="s21" d="m437.1 312.2c0-3.2 2.6-5.8 5.8-5.8 3.2 0 5.8 2.6 5.8 5.8 0 3.2-2.6 5.8-5.8 5.8-3.2 0-5.8-2.6-5.8-5.8z"/>
			<path id="Layer" class="s21" d="m470.7 134.3c1.5 1.5 2.3 3.6 2.3 5.7v178.1c0 0-100.1-40.1-126.5-169.2-77.8 48.7-218.6 83-303.5 60.4v-77.3h422c2.1 0 4.2 0.8 5.7 2.3z"/>
			<path id="Layer" class="s22" d="m328.7 132c-55 41.5-186.1 71.4-285.7 15.7v-15.7z"/>
			<path id="Layer" class="s23" d="m123.6 368l-6.7-3c-0.1 0-0.1-0.2 0-0.2l6.7-3 3-6.7h0.3l3 6.7 6.7 3c0.1 0 0.1 0.2 0 0.2l-6.7 3-3 6.7h-0.3z"/>
			<path id="Layer" class="s11" d="m338.3 232.9l-3.1-1.4c-0.1 0-0.1-0.1 0-0.1l3.1-1.4 1.4-3.2h0.2l1.4 3.2 3.2 1.4-3.2 1.4-1.4 3.1c-0.1 0.1-0.1 0.1-0.2 0l-1.4-3.1z"/>
			<path id="Layer" class="s10" d="m148.7 193.9l-3.2-1.4 3.2-1.4 1.4-3.2h0.1l1.4 3.2h0.1l3.1 1.4c0.1 0 0.1 0.1 0 0.1l-3.1 1.4h-0.1l-1.4 3.1c0 0.1-0.1 0.1-0.1 0l-1.4-3.1z"/>
			<path id="Layer" class="s24" d="m442.9 398.1h-15.6v-266.1h15.6z"/>
			<path id="Layer" class="s24" d="m83.4 398.1h-15.6v-266.1h15.6z"/>
			<path id="Layer" class="s25" d="m442.9 334.7h-15.6v-202.7h15.6z"/>
			<path id="Layer" class="s25" d="m83.4 252.9h-15.6v-120.9h15.6z"/>
			<path id="Layer" class="s21" d="m339.5 178.1c0-3.2 2.6-5.8 5.8-5.8 3.2 0 5.8 2.6 5.8 5.8 0 3.2-2.6 5.8-5.8 5.8-3.2 0-5.8-2.6-5.8-5.8z"/>
			<path id="Layer" class="s21" d="m306.2 177c0-3.2 2.6-5.8 5.8-5.8 3.2 0 5.8 2.6 5.8 5.8 0 3.2-2.6 5.8-5.8 5.8-3.2 0-5.8-2.6-5.8-5.8z"/>
			<path id="Layer" class="s21" d="m47.1 215.6c1.1 1.1 1.7 2.6 1.7 4.1 0 1.5-0.6 3-1.7 4-1.1 1.1-2.6 1.7-4.1 1.7v-11.5c1.5 0 3 0.6 4.1 1.7z"/>
			<path id="Layer" class="s21" d="m346.5 202.8c0-3.2 2.6-5.8 5.8-5.8 3.2 0 5.8 2.6 5.8 5.8 0 3.2-2.6 5.8-5.8 5.8-3.2 0-5.8-2.6-5.8-5.8z"/>
			<path id="Layer" class="s21" d="m381.8 261c0-3.2 2.6-5.8 5.8-5.8 3.2 0 5.8 2.6 5.8 5.8 0 3.2-2.6 5.8-5.8 5.8-3.2 0-5.8-2.6-5.8-5.8z"/>
			<path id="Layer" class="s21" d="m402.4 284.5c0-3.2 2.6-5.8 5.8-5.8 3.2 0 5.8 2.6 5.8 5.8 0 3.2-2.6 5.8-5.8 5.8-3.2 0-5.8-2.6-5.8-5.8z"/>
			<path id="Layer" class="s21" d="m360.9 229.7c0-3.2 2.6-5.8 5.8-5.8 3.2 0 5.8 2.6 5.8 5.8 0 3.2-2.6 5.8-5.8 5.8-3.2 0-5.8-2.6-5.8-5.8z"/>
			<path id="Layer" class="s26" d="m416 326.8l-4-0.1v-7.8h4z"/>
			<path id="Layer" class="s26" d="m458.4 352.6l-4-0.1v-7.8h4z"/>
			<path id="Layer" class="s26" d="m424 358.9h-4v-7.9h4z"/>
			<path id="Layer" class="s26" d="m414 380.1h-4v-7.8h4z"/>
			<path id="Layer" class="s26" d="m356.2 384.1l-4-0.1v-7.8h4z"/>
			<path id="Layer" class="s26" d="m158.2 338.3l-4-0.1v-7.8h4z"/>
			<path id="Layer" class="s26" d="m103.5 384.1l-4-0.1v-7.8h4z"/>
			<path id="Layer" class="s27" d="m151.1 284.5h-28.2v-3.6h28.2z"/>
			<path id="Layer" class="s27" d="m391 377.8h-19v-5.5h19z"/>
		</g>
	</g>
</svg>